<svg viewBox="0 0 20 20" xmlns="http://www.w3.org/2000/svg">
<path d="M10 2C5.58892 2 2 5.58892 2 10C2 14.4111 5.58892 18 10 18C14.4111 18 18 14.4111 18 10C18 5.58892 14.4111 2 10 2ZM12.8964 12.0267C12.9569 12.083 13.0054 12.1509 13.039 12.2264C13.0726 12.3019 13.0907 12.3834 13.0922 12.466C13.0936 12.5487 13.0784 12.6307 13.0475 12.7074C13.0165 12.784 12.9705 12.8536 12.912 12.912C12.8536 12.9705 12.784 13.0165 12.7074 13.0475C12.6307 13.0784 12.5487 13.0936 12.466 13.0922C12.3834 13.0907 12.3019 13.0726 12.2264 13.039C12.1509 13.0054 12.083 12.9569 12.0267 12.8964L10 10.8697L7.97333 12.8964C7.85668 13.0051 7.70238 13.0643 7.54296 13.0615C7.38353 13.0587 7.23142 12.9941 7.11867 12.8813C7.00592 12.7686 6.94134 12.6165 6.93852 12.457C6.93571 12.2976 6.99489 12.1433 7.10359 12.0267L9.13026 10L7.10359 7.97333C6.99489 7.85668 6.93571 7.70238 6.93852 7.54296C6.94134 7.38353 7.00592 7.23142 7.11867 7.11867C7.23142 7.00592 7.38353 6.94134 7.54296 6.93852C7.70238 6.93571 7.85668 6.99489 7.97333 7.10359L10 9.13026L12.0267 7.10359C12.1433 6.99489 12.2976 6.93571 12.457 6.93852C12.6165 6.94134 12.7686 7.00592 12.8813 7.11867C12.9941 7.23142 13.0587 7.38353 13.0615 7.54296C13.0643 7.70238 13.0051 7.85668 12.8964 7.97333L10.8697 10L12.8964 12.0267Z" fill="#FF0000"/>
</svg>
