<svg viewBox="0 0 20 20" xmlns="http://www.w3.org/2000/svg">
<rect width="20" height="20" rx="10" fill="#F05D23"/>
<path d="M8.32696 16.5636C8.25362 16.5637 8.18114 16.5477 8.11464 16.5168C8.04814 16.4858 7.98923 16.4407 7.94207 16.3845C7.89491 16.3284 7.86064 16.2625 7.84167 16.1917C7.8227 16.1208 7.81951 16.0467 7.8323 15.9744V15.9715L8.59996 11.7511H5.62496C5.54233 11.7511 5.46137 11.7277 5.39148 11.6837C5.32158 11.6396 5.2656 11.5766 5.23001 11.502C5.19443 11.4274 5.1807 11.3443 5.19041 11.2622C5.20012 11.1801 5.23287 11.1025 5.28488 11.0383L11.2775 3.62995C11.3457 3.54333 11.4403 3.48144 11.547 3.45371C11.6537 3.42599 11.7666 3.43398 11.8683 3.47644C11.97 3.5189 12.055 3.59351 12.1104 3.68886C12.1657 3.78421 12.1883 3.89505 12.1746 4.00445C12.1746 4.01261 12.1723 4.02078 12.1711 4.02895L11.4 8.25111H14.375C14.4575 8.25118 14.5383 8.2746 14.6081 8.31866C14.6779 8.36272 14.7338 8.42562 14.7694 8.5001C14.8049 8.57458 14.8187 8.6576 14.8091 8.73958C14.7995 8.82155 14.7669 8.89913 14.715 8.96336L8.7213 16.3717C8.67425 16.4313 8.61435 16.4795 8.54607 16.5127C8.47779 16.546 8.4029 16.5634 8.32696 16.5636Z" fill="white"/>
</svg>
