<svg viewBox="0 0 17 17" xmlns="http://www.w3.org/2000/svg">
<path d="M14.3438 3.1875H12.75V2.65625C12.7496 2.23368 12.5816 1.82852 12.2828 1.52971C11.984 1.23091 11.5788 1.06288 11.1562 1.0625H5.84375C5.42118 1.06288 5.01602 1.23091 4.71721 1.52971C4.41841 1.82852 4.25038 2.23368 4.25 2.65625V3.1875H2.65625C2.09284 3.18806 1.55266 3.41213 1.15427 3.81052C0.755877 4.20891 0.531813 4.74909 0.53125 5.3125V13.8125C0.53125 14.3761 0.755133 14.9166 1.15365 15.3151C1.55216 15.7136 2.09266 15.9375 2.65625 15.9375H14.3438C14.9073 15.9375 15.4478 15.7136 15.8464 15.3151C16.2449 14.9166 16.4688 14.3761 16.4688 13.8125V5.3125C16.4682 4.74909 16.2441 4.20891 15.8457 3.81052C15.4473 3.41213 14.9072 3.18806 14.3438 3.1875ZM11.1562 10.0938H9.03125V12.2188C9.03125 12.3596 8.97528 12.4948 8.87565 12.5944C8.77602 12.694 8.6409 12.75 8.5 12.75C8.3591 12.75 8.22398 12.694 8.12435 12.5944C8.02472 12.4948 7.96875 12.3596 7.96875 12.2188V10.0938H5.84375C5.70285 10.0938 5.56773 10.0378 5.4681 9.93815C5.36847 9.83852 5.3125 9.7034 5.3125 9.5625C5.3125 9.4216 5.36847 9.28648 5.4681 9.18685C5.56773 9.08722 5.70285 9.03125 5.84375 9.03125H7.96875V6.90625C7.96875 6.76535 8.02472 6.63023 8.12435 6.5306C8.22398 6.43097 8.3591 6.375 8.5 6.375C8.6409 6.375 8.77602 6.43097 8.87565 6.5306C8.97528 6.63023 9.03125 6.76535 9.03125 6.90625V9.03125H11.1562C11.2971 9.03125 11.4323 9.08722 11.5319 9.18685C11.6315 9.28648 11.6875 9.4216 11.6875 9.5625C11.6875 9.7034 11.6315 9.83852 11.5319 9.93815C11.4323 10.0378 11.2971 10.0938 11.1562 10.0938ZM11.6875 3.1875H5.3125V2.65625C5.3125 2.51535 5.36847 2.38023 5.4681 2.2806C5.56773 2.18097 5.70285 2.125 5.84375 2.125H11.1562C11.2971 2.125 11.4323 2.18097 11.5319 2.2806C11.6315 2.38023 11.6875 2.51535 11.6875 2.65625V3.1875Z"/>
</svg>
