<svg viewBox="0 0 20 20" xmlns="http://www.w3.org/2000/svg">
<rect width="20" height="20" rx="10" fill="#FFBE00"/>
<path d="M15.432 7.63167C15.3509 7.54999 15.2543 7.48525 15.148 7.44118C15.0417 7.39712 14.9276 7.37463 14.8125 7.375H13.0625V6.9375C13.0625 6.12527 12.7398 5.34632 12.1655 4.77199C11.5912 4.19766 10.8122 3.875 10 3.875C9.18777 3.875 8.40882 4.19766 7.83449 4.77199C7.26016 5.34632 6.9375 6.12527 6.9375 6.9375V7.375H5.1875C4.95544 7.375 4.73288 7.46719 4.56878 7.63128C4.40469 7.79538 4.3125 8.01794 4.3125 8.25V14.1562C4.3125 15.2226 5.21492 16.125 6.28125 16.125H13.7188C14.2344 16.125 14.7302 15.9232 15.0989 15.5632C15.2847 15.3861 15.4326 15.1731 15.5338 14.9372C15.6349 14.7013 15.6872 14.4474 15.6875 14.1907V8.25C15.6879 8.13516 15.6655 8.02138 15.6217 7.91525C15.5778 7.80911 15.5133 7.71272 15.432 7.63167ZM7.8125 6.9375C7.8125 6.35734 8.04297 5.80094 8.4532 5.3907C8.86344 4.98047 9.41984 4.75 10 4.75C10.5802 4.75 11.1366 4.98047 11.5468 5.3907C11.957 5.80094 12.1875 6.35734 12.1875 6.9375V7.375H7.8125V6.9375Z" fill="black"/>
</svg>
