<svg viewBox="0 0 17 17" xmlns="http://www.w3.org/2000/svg">
<path fill-rule="evenodd" clip-rule="evenodd" d="M14.836 5.36676C14.9669 5.42071 15.0857 5.49999 15.1855 5.6C15.2857 5.69925 15.365 5.81728 15.419 5.94724C15.473 6.0772 15.5005 6.21652 15.5 6.35714V13.6314C15.4997 13.9457 15.4353 14.2567 15.3108 14.5456C15.1863 14.8345 15.0042 15.0952 14.7756 15.3121C14.3218 15.7529 13.7116 16 13.0769 16H3.92308C2.61067 16 1.5 14.895 1.5 13.5893V6.35714C1.5 6.07298 1.61346 5.80046 1.81542 5.59953C2.01739 5.3986 2.2913 5.28571 2.57692 5.28571H4.73077V4.75C4.73077 3.75544 5.12788 2.80161 5.83475 2.09835C6.54162 1.39509 7.50034 1 8.5 1C9.49966 1 10.4584 1.39509 11.1652 2.09835C11.8721 2.80161 12.2692 3.75544 12.2692 4.75V5.28571H14.4231C14.5647 5.28526 14.7051 5.31281 14.836 5.36676ZM6.59625 2.85596C6.09134 3.35829 5.80769 4.0396 5.80769 4.75V5.28571H11.1923V4.75C11.1923 4.0396 10.9087 3.35829 10.4037 2.85596C9.89884 2.35363 9.21404 2.07143 8.5 2.07143C7.78595 2.07143 7.10115 2.35363 6.59625 2.85596ZM9.76657 8.29882C10.1354 8.45486 10.4693 8.68218 10.7492 8.96762C11.3169 9.53246 11.6358 10.2985 11.6357 11.0973C11.6357 11.8961 11.3167 12.6621 10.749 13.2269C10.1813 13.7918 9.41127 14.109 8.60839 14.109C7.80552 14.109 7.03554 13.7916 6.46784 13.2268C6.18096 12.9484 5.95249 12.6161 5.79568 12.2492C5.63887 11.8823 5.55684 11.488 5.55435 11.0893C5.55187 10.6906 5.62897 10.2954 5.78119 9.92657C5.93341 9.55774 6.15771 9.22265 6.4411 8.94073C6.72448 8.65881 7.06131 8.43567 7.43204 8.28425C7.80277 8.13283 8.20003 8.05615 8.60077 8.05865C9.00152 8.06115 9.39778 8.14279 9.76657 8.29882ZM10.5032 12.5258C10.8175 12.1153 10.9875 11.6134 10.987 11.0974L10.9873 11.0971C10.9873 9.79312 9.92057 8.73069 8.60878 8.73069C8.08988 8.73019 7.5852 8.8994 7.17245 9.21229L10.5032 12.5258ZM6.71405 9.66864C6.39962 10.0792 6.22954 10.5812 6.22999 11.0974L6.23027 11.0971C6.23027 12.4022 7.29786 13.4634 8.60878 13.4634C9.12745 13.4639 9.6319 13.2948 10.0445 12.9821L6.71405 9.66864Z"/>
</svg>
