<svg viewBox="0 0 17 17" xmlns="http://www.w3.org/2000/svg">
<path d="M12.8539 9.89886H12.3426C12.1135 9.89886 11.9276 10.0848 11.9276 10.3139C11.9276 10.543 12.1135 10.7289 12.3426 10.7289H12.8539C13.083 10.7289 13.269 10.543 13.269 10.3139C13.269 10.0848 13.083 9.89886 12.8539 9.89886Z" />
<path d="M12.8539 11.227H12.3426C12.1135 11.227 11.9276 11.4129 11.9276 11.642C11.9276 11.8711 12.1135 12.0571 12.3426 12.0571H12.8539C13.083 12.0571 13.269 11.8711 13.269 11.642C13.269 11.4129 13.083 11.227 12.8539 11.227Z" />
<path d="M12.8539 12.5551H12.3426C12.1135 12.5551 11.9276 12.7411 11.9276 12.9702C11.9276 13.1993 12.1135 13.3852 12.3426 13.3852H12.8539C13.083 13.3852 13.269 13.1993 13.269 12.9702C13.269 12.7411 13.083 12.5551 12.8539 12.5551Z" />
<path d="M4.14609 10.7289H4.65742C4.88652 10.7289 5.07245 10.543 5.07245 10.3139C5.07245 10.0848 4.88652 9.89886 4.65742 9.89886H4.14609C3.91699 9.89886 3.73105 10.0848 3.73105 10.3139C3.73105 10.543 3.91699 10.7289 4.14609 10.7289Z" />
<path d="M4.14609 12.0571H4.65742C4.88652 12.0571 5.07245 11.8711 5.07245 11.642C5.07245 11.4129 4.88652 11.227 4.65742 11.227H4.14609C3.91699 11.227 3.73105 11.4129 3.73105 11.642C3.73105 11.8711 3.91699 12.0571 4.14609 12.0571Z" />
<path d="M4.14609 13.3852H4.65742C4.88652 13.3852 5.07245 13.1993 5.07245 12.9702C5.07245 12.7411 4.88652 12.5551 4.65742 12.5551H4.14609C3.91699 12.5551 3.73105 12.7411 3.73105 12.9702C3.73105 13.1993 3.91699 13.3852 4.14609 13.3852Z" />
<path d="M15.1745 15.5357H14.6107V9.80653C14.6107 9.18563 14.2123 8.64409 13.6196 8.45948L11.4159 7.77251V6.42645C11.4159 5.6485 10.7827 5.01532 10.0048 5.01532H6.99489C6.21694 5.01532 5.58376 5.6485 5.58376 6.42645V7.77251L3.38007 8.45948C2.78739 8.64442 2.38895 9.18563 2.38895 9.80653V15.5357H1.82516C1.59606 15.5357 1.41013 15.7217 1.41013 15.9508C1.41013 16.1799 1.59606 16.3658 1.82516 16.3658H7.51319C7.51319 16.3658 7.51386 16.3658 7.51419 16.3658H9.48579C9.48579 16.3658 9.48645 16.3658 9.48679 16.3658H15.1745C15.4036 16.3658 15.5895 16.1799 15.5895 15.9508C15.5895 15.7217 15.4036 15.5357 15.1745 15.5357ZM8.49999 13.4569C8.18522 13.4569 7.92923 13.7132 7.92923 14.028V15.5357H7.09915V14.028C7.09915 13.2553 7.72768 12.6268 8.49999 12.6268C9.27229 12.6268 9.90083 13.2553 9.90083 14.028V15.5357H9.07075V14.028C9.07075 13.7132 8.81475 13.4569 8.49999 13.4569ZM9.58374 10.1864H9.07241C8.84331 10.1864 8.65737 10.0004 8.65737 9.77134C8.65737 9.54223 8.84331 9.3563 9.07241 9.3563H9.58374C9.81284 9.3563 9.99878 9.5419 9.99878 9.77134C9.99878 10.0008 9.81284 10.1864 9.58374 10.1864ZM9.99878 11.0995C9.99878 11.3286 9.81284 11.5145 9.58374 11.5145H9.07241C8.84331 11.5145 8.65737 11.3286 8.65737 11.0995C8.65737 10.8704 8.84331 10.6844 9.07241 10.6844H9.58374C9.81284 10.6844 9.99878 10.87 9.99878 11.0995ZM9.58374 8.85825H9.07241C8.84331 8.85825 8.65737 8.67231 8.65737 8.44321C8.65737 8.21411 8.84331 8.02817 9.07241 8.02817H9.58374C9.81284 8.02817 9.99878 8.21378 9.99878 8.44321C9.99878 8.67264 9.81284 8.85825 9.58374 8.85825ZM9.58374 7.53012H9.07241C8.84331 7.53012 8.65737 7.34419 8.65737 7.11509C8.65737 6.88598 8.84331 6.70005 9.07241 6.70005H9.58374C9.81284 6.70005 9.99878 6.88565 9.99878 7.11509C9.99878 7.34452 9.81284 7.53012 9.58374 7.53012ZM7.92757 10.1864H7.41624C7.18714 10.1864 7.0012 10.0004 7.0012 9.77134C7.0012 9.54223 7.18714 9.3563 7.41624 9.3563H7.92757C8.15667 9.3563 8.34261 9.5419 8.34261 9.77134C8.34261 10.0008 8.15667 10.1864 7.92757 10.1864ZM8.34261 11.0995C8.34261 11.3286 8.15667 11.5145 7.92757 11.5145H7.41624C7.18714 11.5145 7.0012 11.3286 7.0012 11.0995C7.0012 10.8704 7.18714 10.6844 7.41624 10.6844H7.92757C8.15667 10.6844 8.34261 10.87 8.34261 11.0995ZM7.92757 8.85825H7.41624C7.18714 8.85825 7.0012 8.67231 7.0012 8.44321C7.0012 8.21411 7.18714 8.02817 7.41624 8.02817H7.92757C8.15667 8.02817 8.34261 8.21378 8.34261 8.44321C8.34261 8.67264 8.15667 8.85825 7.92757 8.85825ZM7.92757 7.53012H7.41624C7.18714 7.53012 7.0012 7.34419 7.0012 7.11509C7.0012 6.88598 7.18714 6.70005 7.41624 6.70005H7.92757C8.15667 6.70005 8.34261 6.88565 8.34261 7.11509C8.34261 7.34452 8.15667 7.53012 7.92757 7.53012ZM3.21936 9.80653C3.21936 9.55087 3.38339 9.32807 3.62743 9.25171L5.58409 8.64176V15.5357H4.81677V14.7362C4.81677 14.5071 4.63083 14.3212 4.40173 14.3212C4.17263 14.3212 3.98669 14.5071 3.98669 14.7362V15.5357H3.21936V9.80653ZM13.0136 15.5357V14.7362C13.0136 14.5071 12.8277 14.3212 12.5986 14.3212C12.3695 14.3212 12.1835 14.5071 12.1835 14.7362V15.5357H11.4162V8.64176L13.3729 9.25171C13.6169 9.32774 13.7809 9.55087 13.7809 9.80653V15.5357H13.0136Z" />
<path d="M3.31931 6.32289C3.40032 6.4039 3.50657 6.44441 3.61282 6.44441C3.71907 6.44441 3.82532 6.4039 3.90634 6.32289L5.0296 5.19963C5.19163 5.0376 5.19163 4.77463 5.0296 4.6126C4.86757 4.45056 4.6046 4.45056 4.44257 4.6126L4.02786 5.0273V3.21674C4.02786 2.98763 3.84193 2.8017 3.61282 2.8017C3.38372 2.8017 3.19779 2.98763 3.19779 3.21674V5.0273L2.78308 4.6126C2.62105 4.45056 2.35808 4.45056 2.19605 4.6126C2.03402 4.77463 2.03402 5.0376 2.19605 5.19963L3.31931 6.32289Z" />
<path d="M8.20948 4.15535C8.29049 4.23636 8.39674 4.27687 8.50299 4.27687C8.60924 4.27687 8.71549 4.23636 8.79651 4.15535L9.91977 3.03208C10.0818 2.87005 10.0818 2.60708 9.91977 2.44505C9.75774 2.28302 9.49477 2.28302 9.33274 2.44505L8.91803 2.85976V1.04919C8.91803 0.820093 8.73209 0.634155 8.50299 0.634155C8.27389 0.634155 8.08795 0.820093 8.08795 1.04919V2.85976L7.67325 2.44505C7.51121 2.28302 7.24825 2.28302 7.08621 2.44505C6.92418 2.60708 6.92418 2.87005 7.08621 3.03208L8.20948 4.15535Z" />
<path d="M13.097 6.35273C13.178 6.43375 13.2842 6.47426 13.3905 6.47426C13.4967 6.47426 13.603 6.43375 13.684 6.35273L14.8073 5.22947C14.9693 5.06744 14.9693 4.80447 14.8073 4.64244C14.6452 4.48041 14.3823 4.48041 14.2202 4.64244L13.8055 5.05715V3.24658C13.8055 3.01748 13.6196 2.83154 13.3905 2.83154C13.1614 2.83154 12.9754 3.01748 12.9754 3.24658V5.05715L12.5607 4.64244C12.3987 4.48041 12.1357 4.48041 11.9737 4.64244C11.8117 4.80447 11.8117 5.06744 11.9737 5.22947L13.097 6.35273Z" />
</svg>
