<svg viewBox="0 0 52 52" xmlns="http://www.w3.org/2000/svg">
<path d="M26 0C11.664 0 0 11.664 0 26C0 40.336 11.664 52 26 52C40.336 52 52 40.336 52 26C52 11.664 40.336 0 26 0ZM35.4133 32.5867C35.6098 32.7698 35.7674 32.9906 35.8768 33.2359C35.9861 33.4812 36.0448 33.7461 36.0496 34.0146C36.0543 34.2831 36.0049 34.5499 35.9043 34.7989C35.8037 35.048 35.654 35.2742 35.4641 35.4641C35.2742 35.654 35.048 35.8037 34.7989 35.9043C34.5499 36.0049 34.2831 36.0543 34.0146 36.0496C33.7461 36.0448 33.4812 35.9861 33.2359 35.8768C32.9906 35.7674 32.7698 35.6098 32.5867 35.4133L26 28.8267L19.4133 35.4133C19.0342 35.7666 18.5327 35.9589 18.0146 35.9498C17.4965 35.9407 17.0021 35.7308 16.6357 35.3643C16.2692 34.9979 16.0593 34.5035 16.0502 33.9854C16.0411 33.4673 16.2334 32.9658 16.5867 32.5867L23.1733 26L16.5867 19.4133C16.2334 19.0342 16.0411 18.5327 16.0502 18.0146C16.0593 17.4965 16.2692 17.0021 16.6357 16.6357C17.0021 16.2692 17.4965 16.0593 18.0146 16.0502C18.5327 16.0411 19.0342 16.2334 19.4133 16.5867L26 23.1733L32.5867 16.5867C32.9658 16.2334 33.4673 16.0411 33.9854 16.0502C34.5035 16.0593 34.9979 16.2692 35.3643 16.6357C35.7308 17.0021 35.9407 17.4965 35.9498 18.0146C35.9589 18.5327 35.7666 19.0342 35.4133 19.4133L28.8267 26L35.4133 32.5867Z" fill="#FF0000"/>
</svg>
