<svg viewBox="0 0 20 20" xmlns="http://www.w3.org/2000/svg">
<rect width="20" height="20" rx="10" fill="#44D453"/>
<path d="M10 4.3125C6.864 4.3125 4.3125 6.864 4.3125 10C4.3125 13.136 6.864 15.6875 10 15.6875C13.136 15.6875 15.6875 13.136 15.6875 10C15.6875 6.864 13.136 4.3125 10 4.3125ZM12.9598 8.09367L9.28483 12.4687C9.24462 12.5167 9.19453 12.5556 9.13796 12.5826C9.08138 12.6095 9.01967 12.624 8.957 12.625H8.94942C8.88815 12.625 8.82757 12.6121 8.77159 12.5872C8.71562 12.5623 8.66551 12.5259 8.6245 12.4803L7.0495 10.7303C6.97982 10.6554 6.93857 10.5584 6.9329 10.4563C6.92724 10.3541 6.95753 10.2532 7.0185 10.171C7.07948 10.0888 7.1673 10.0306 7.26672 10.0064C7.36615 9.98216 7.47091 9.99353 7.56283 10.0385C7.61533 10.0647 7.662 10.1009 7.69933 10.1447L8.93775 11.5213L12.2902 7.53133C12.3661 7.44715 12.4717 7.39571 12.5848 7.38787C12.6979 7.38002 12.8096 7.41638 12.8964 7.48928C12.9832 7.56217 13.0384 7.66592 13.0502 7.77866C13.062 7.89141 13.0296 8.00434 12.9598 8.09367Z" fill="white"/>
</svg>
