<svg viewBox="0 0 10 10" fill="none" xmlns="http://www.w3.org/2000/svg">
<path d="M0.0819876 4.07811C-0.0774003 3.92354 0.00917949 3.64411 0.224765 3.6173L3.27951 3.23734C3.36737 3.22642 3.44369 3.16856 3.48075 3.08431L4.7692 0.155066C4.86013 -0.0516621 5.14038 -0.0517018 5.23131 0.155026L6.51976 3.08424C6.55681 3.1685 6.63264 3.22651 6.7205 3.23744L9.77541 3.6173C9.991 3.64411 10.0773 3.92362 9.91794 4.07819L7.65975 6.26853C7.59479 6.33152 7.56587 6.42529 7.58311 6.5163L8.18243 9.68026C8.22474 9.90355 7.99812 10.0766 7.80869 9.96537L5.12449 8.38935C5.04728 8.34403 4.95348 8.34424 4.87628 8.38956L2.1918 9.96496C2.00236 10.0762 1.77533 9.90354 1.81764 9.68025L2.41706 6.51649C2.4343 6.42549 2.40545 6.3315 2.34049 6.26851L0.0819876 4.07811Z" fill="#FFCF23"/>
</svg>
