<svg viewBox="0 0 17 17" xmlns="http://www.w3.org/2000/svg">
<path d="M14.8552 9.42818L13.3259 9.79441C13.1335 9.84363 12.9495 9.92136 12.7798 10.025L11.536 9.25757C11.6703 8.76163 11.6703 8.23859 11.536 7.74265L12.7798 6.97518C12.9495 7.07886 13.1335 7.15659 13.3259 7.20581C13.3259 7.20581 15.0001 7.59766 15.0722 7.59766C15.5874 7.59272 16.0011 7.169 15.9962 6.65126C15.9921 6.22363 15.7006 5.85296 15.2874 5.75023L13.7556 5.38212C13.7208 5.37361 13.6911 5.35096 13.6735 5.31963C13.6547 5.28947 13.6489 5.25293 13.6574 5.21839L14.0218 3.68096C14.1709 3.18537 13.892 2.66215 13.3988 2.51234C12.9056 2.36254 12.3849 2.64283 12.2359 3.13841C12.2248 3.17516 12.216 3.21253 12.2095 3.25036L11.8451 4.78779C11.8023 4.98047 11.7883 5.17844 11.8034 5.37526L10.5595 6.14584C10.2398 5.86914 9.86708 5.66111 9.46434 5.53463V4.06281C9.64085 3.97293 9.80273 3.8566 9.94446 3.71782L11.0571 2.60037C11.4214 2.23414 11.4212 1.64052 11.0568 1.2745C10.6923 0.908453 10.1016 0.9086 9.73735 1.27483L8.62534 2.39287C8.57387 2.44465 8.4904 2.44471 8.43887 2.39299L8.43876 2.39287L7.32551 1.2748C6.96107 0.90857 6.37022 0.90857 6.00578 1.2748C5.64134 1.64103 5.64134 2.23476 6.00578 2.60099L7.11841 3.71844C7.26017 3.85698 7.42207 3.97311 7.59853 4.06281V5.53463C7.19667 5.66226 6.82502 5.87112 6.50642 6.14834L5.25944 5.37526C5.27502 5.177 5.26096 4.97749 5.21778 4.78341L4.85334 3.25036C4.74191 2.74489 4.24378 2.42588 3.74077 2.53785C3.23775 2.64983 2.9203 3.15039 3.03173 3.65586C3.03387 3.66551 3.03615 3.67513 3.03858 3.6847L3.40302 5.22213C3.41151 5.2567 3.40569 5.29324 3.38686 5.32336C3.3693 5.35473 3.33955 5.37735 3.30477 5.38585L1.77544 5.7502C1.27427 5.87044 0.964982 6.37615 1.08464 6.87974C1.18477 7.30125 1.55937 7.59887 1.9906 7.59952C2.06274 7.59952 3.73696 7.20766 3.73696 7.20766C3.92934 7.15844 4.11338 7.08071 4.28301 6.97703L5.52686 7.7445C5.39254 8.24044 5.39254 8.76348 5.52686 9.25942L4.28301 10.0269C4.11338 9.92321 3.92934 9.84548 3.73696 9.79626L2.20763 9.43003C1.71521 9.27769 1.19314 9.55537 1.04154 10.0502C0.889944 10.545 1.16626 11.0696 1.65868 11.222C1.69694 11.2338 1.73594 11.2432 1.77538 11.25L3.30471 11.6162C3.33949 11.6247 3.36924 11.6473 3.3868 11.6787C3.40563 11.7088 3.41146 11.7454 3.40297 11.7799L3.03855 13.3174C2.91834 13.821 3.22713 14.3271 3.72827 14.4479C4.22941 14.5687 4.73312 14.2585 4.85334 13.7549L5.21778 12.2174C5.26102 12.0231 5.27508 11.8234 5.25944 11.625L6.50642 10.8544C6.82502 11.1316 7.19667 11.3405 7.59853 11.4681V12.9374C7.42213 13.0278 7.26028 13.1443 7.11841 13.283L6.00578 14.3992C5.64134 14.7654 5.64134 15.3592 6.00578 15.7254C6.37022 16.0916 6.96107 16.0916 7.32551 15.7254L8.43753 14.6073C8.489 14.5555 8.57247 14.5555 8.62399 14.6072L8.62411 14.6073L9.73612 15.7254C10.1006 16.0916 10.6914 16.0916 11.0559 15.7254C11.4203 15.3592 11.4203 14.7654 11.0559 14.3992L9.94323 13.2817C9.80165 13.1435 9.64021 13.0275 9.46434 12.9374V11.4656C9.8662 11.3379 10.2378 11.1291 10.5564 10.8518L11.8003 11.6224C11.7847 11.8207 11.7988 12.0202 11.842 12.2143L12.2064 13.7517C12.3266 14.2553 12.8303 14.5656 13.3315 14.4448C13.8326 14.324 14.1414 13.8178 14.0212 13.3142L13.6567 11.7768C13.6483 11.7422 13.6541 11.7057 13.6729 11.6756C13.6905 11.6442 13.7202 11.6216 13.755 11.6131L15.2843 11.2468C15.7855 11.126 16.0943 10.6199 15.974 10.1163C15.8538 9.61268 15.3501 9.30238 14.849 9.42318L14.8552 9.42818ZM8.53142 9.75004C7.84446 9.75004 7.28757 9.19043 7.28757 8.50011C7.28757 7.80978 7.84446 7.25018 8.53142 7.25018C9.21838 7.25018 9.77527 7.80978 9.77527 8.50011C9.77527 9.19043 9.21838 9.75004 8.53142 9.75004Z"/>
</svg>
