<svg viewBox="0 0 17 17" xmlns="http://www.w3.org/2000/svg">
<path d="M14.3438 5.84375H10.625V2.125C10.625 1.70231 10.4571 1.29693 10.1582 0.998049C9.85931 0.699162 9.45394 0.53125 9.03125 0.53125H2.65625C2.23356 0.53125 1.82818 0.699162 1.5293 0.998049C1.23041 1.29693 1.0625 1.70231 1.0625 2.125V15.9375C1.0625 16.0784 1.11847 16.2135 1.2181 16.3132C1.31773 16.4128 1.45285 16.4688 1.59375 16.4688H5.04688C5.11732 16.4688 5.18489 16.4408 5.2347 16.391C5.28451 16.3411 5.3125 16.2736 5.3125 16.2031V13.8274C5.3125 13.5412 5.53208 13.2961 5.81825 13.282C5.89002 13.2787 5.96171 13.29 6.029 13.3152C6.09629 13.3404 6.15779 13.3789 6.2098 13.4285C6.26181 13.478 6.30326 13.5376 6.33165 13.6036C6.36004 13.6696 6.37479 13.7407 6.375 13.8125V16.2031C6.375 16.2736 6.40299 16.3411 6.4528 16.391C6.50261 16.4408 6.57018 16.4688 6.64062 16.4688H15.4062C15.5471 16.4688 15.6823 16.4128 15.7819 16.3132C15.8815 16.2135 15.9375 16.0784 15.9375 15.9375V7.4375C15.9375 7.01481 15.7696 6.60943 15.4707 6.31055C15.1718 6.01166 14.7664 5.84375 14.3438 5.84375ZM3.25692 14.3395C3.11715 14.3578 2.97583 14.3199 2.86404 14.234C2.75226 14.1481 2.67917 14.0213 2.66085 13.8816C2.64254 13.7418 2.68049 13.6005 2.76637 13.4887C2.85225 13.3769 2.97902 13.3038 3.11879 13.2855C3.25856 13.2672 3.39988 13.3051 3.51166 13.391C3.62345 13.4769 3.69654 13.6037 3.71485 13.7434C3.73317 13.8832 3.69521 14.0245 3.60933 14.1363C3.52345 14.2481 3.39669 14.3212 3.25692 14.3395ZM3.25692 11.6832C3.18771 11.6923 3.11739 11.6877 3.04999 11.6696C2.98258 11.6515 2.91939 11.6203 2.86404 11.5777C2.80869 11.5352 2.76226 11.4822 2.7274 11.4217C2.69254 11.3613 2.66992 11.2945 2.66085 11.2253C2.65178 11.1561 2.65644 11.0858 2.67454 11.0184C2.69265 10.951 2.72385 10.8878 2.76637 10.8324C2.8089 10.7771 2.86191 10.7307 2.92237 10.6958C2.98284 10.6609 3.04958 10.6383 3.11879 10.6292C3.25856 10.6109 3.39988 10.6489 3.51166 10.7348C3.62345 10.8206 3.69654 10.9474 3.71485 11.0872C3.73317 11.227 3.69521 11.3683 3.60933 11.4801C3.52345 11.5918 3.39669 11.6649 3.25692 11.6832ZM3.25692 9.027C3.18771 9.03607 3.11739 9.03142 3.04999 9.01331C2.98258 8.99521 2.91939 8.964 2.86404 8.92148C2.80869 8.87896 2.76226 8.82595 2.7274 8.76548C2.69254 8.70501 2.66992 8.63827 2.66085 8.56906C2.65178 8.49986 2.65644 8.42954 2.67454 8.36213C2.69265 8.29472 2.72385 8.23154 2.76637 8.17619C2.8089 8.12084 2.86191 8.07441 2.92237 8.03954C2.98284 8.00468 3.04958 7.98207 3.11879 7.973C3.25856 7.95468 3.39988 7.99264 3.51166 8.07852C3.62345 8.1644 3.69654 8.29117 3.71485 8.43094C3.73317 8.57071 3.69521 8.71203 3.60933 8.82381C3.52345 8.93559 3.39669 9.00868 3.25692 9.027ZM3.25692 6.37075C3.18709 6.38125 3.11587 6.37773 3.04742 6.36039C2.97898 6.34305 2.91467 6.31224 2.85827 6.26976C2.80187 6.22728 2.7545 6.17398 2.71893 6.11298C2.68337 6.05198 2.66033 5.9845 2.65114 5.91449C2.64196 5.84447 2.64683 5.77334 2.66546 5.70523C2.6841 5.63712 2.71612 5.57341 2.75966 5.51782C2.8032 5.46223 2.85739 5.41588 2.91905 5.38148C2.98072 5.34708 3.04862 5.32531 3.11879 5.31746C3.25708 5.30198 3.39593 5.34138 3.50548 5.42719C3.61502 5.513 3.68653 5.63836 3.70462 5.77634C3.72272 5.91431 3.68595 6.05387 3.60223 6.16503C3.51851 6.27618 3.39452 6.35005 3.25692 6.37075ZM3.25692 3.7145C3.18709 3.725 3.11587 3.72148 3.04742 3.70414C2.97898 3.6868 2.91467 3.65599 2.85827 3.61351C2.80187 3.57103 2.7545 3.51773 2.71893 3.45673C2.68337 3.39573 2.66033 3.32825 2.65114 3.25824C2.64196 3.18822 2.64683 3.11709 2.66546 3.04898C2.6841 2.98087 2.71612 2.91716 2.75966 2.86157C2.8032 2.80598 2.85739 2.75963 2.91905 2.72523C2.98072 2.69083 3.04862 2.66906 3.11879 2.66121C3.25708 2.64573 3.39593 2.68513 3.50548 2.77094C3.61502 2.85675 3.68653 2.98211 3.70462 3.12009C3.72272 3.25806 3.68595 3.39762 3.60223 3.50878C3.51851 3.61993 3.39452 3.6938 3.25692 3.7145ZM5.91317 11.6832C5.84396 11.6923 5.77364 11.6877 5.70623 11.6696C5.63883 11.6515 5.57564 11.6203 5.52029 11.5777C5.46494 11.5352 5.41851 11.4822 5.38365 11.4217C5.34879 11.3613 5.32617 11.2945 5.3171 11.2253C5.30803 11.1561 5.31269 11.0858 5.33079 11.0184C5.3489 10.951 5.3801 10.8878 5.42262 10.8324C5.46515 10.7771 5.51816 10.7307 5.57862 10.6958C5.63909 10.6609 5.70583 10.6383 5.77504 10.6292C5.91481 10.611 6.05609 10.6491 6.16781 10.735C6.27953 10.821 6.35253 10.9478 6.37075 11.0875C6.38897 11.2273 6.35093 11.3686 6.26498 11.4803C6.17903 11.592 6.05294 11.665 5.91317 11.6832ZM5.91317 9.027C5.84396 9.03607 5.77364 9.03142 5.70623 9.01331C5.63883 8.99521 5.57564 8.964 5.52029 8.92148C5.46494 8.87896 5.41851 8.82595 5.38365 8.76548C5.34879 8.70501 5.32617 8.63827 5.3171 8.56906C5.30803 8.49986 5.31269 8.42954 5.33079 8.36213C5.3489 8.29472 5.3801 8.23154 5.42262 8.17619C5.46515 8.12084 5.51816 8.07441 5.57862 8.03954C5.63909 8.00468 5.70583 7.98207 5.77504 7.973C5.84425 7.96398 5.91455 7.96867 5.98195 7.98682C6.04934 8.00497 6.11249 8.03621 6.16781 8.07877C6.22313 8.12133 6.26952 8.17436 6.30434 8.23485C6.33916 8.29533 6.36173 8.36208 6.37075 8.43129C6.37977 8.5005 6.37508 8.5708 6.35693 8.6382C6.33878 8.70559 6.30754 8.76874 6.26498 8.82406C6.22242 8.87938 6.16939 8.92577 6.1089 8.96059C6.04842 8.99541 5.98237 9.01798 5.91317 9.027ZM5.91317 6.37075C5.84334 6.38125 5.77212 6.37773 5.70367 6.36039C5.63523 6.34305 5.57092 6.31224 5.51452 6.26976C5.45812 6.22728 5.41075 6.17398 5.37519 6.11298C5.33962 6.05198 5.31658 5.9845 5.30739 5.91449C5.29821 5.84447 5.30308 5.77334 5.32171 5.70523C5.34035 5.63712 5.37237 5.57341 5.41591 5.51782C5.45945 5.46223 5.51364 5.41588 5.5753 5.38148C5.63697 5.34708 5.70487 5.32531 5.77504 5.31746C5.91303 5.30268 6.05132 5.34249 6.16034 5.42836C6.26935 5.51423 6.34044 5.63935 6.3584 5.77696C6.37635 5.91457 6.33974 6.05374 6.2564 6.16471C6.17307 6.27568 6.05033 6.34963 5.91317 6.37075ZM5.91317 3.7145C5.84334 3.725 5.77212 3.72148 5.70367 3.70414C5.63523 3.6868 5.57092 3.65599 5.51452 3.61351C5.45812 3.57103 5.41075 3.51773 5.37519 3.45673C5.33962 3.39573 5.31658 3.32825 5.30739 3.25824C5.29821 3.18822 5.30308 3.11709 5.32171 3.04898C5.34035 2.98087 5.37237 2.91716 5.41591 2.86157C5.45945 2.80598 5.51364 2.75963 5.5753 2.72523C5.63697 2.69083 5.70487 2.66906 5.77504 2.66121C5.91303 2.64643 6.05132 2.68624 6.16034 2.77211C6.26935 2.85798 6.34044 2.9831 6.3584 3.12071C6.37635 3.25832 6.33974 3.39749 6.2564 3.50846C6.17307 3.61943 6.05033 3.69338 5.91317 3.7145ZM8.56942 14.3395C8.50021 14.3486 8.42989 14.3439 8.36248 14.3258C8.29508 14.3077 8.23189 14.2765 8.17654 14.234C8.12119 14.1915 8.07476 14.1384 8.0399 14.078C8.00503 14.0175 7.98242 13.9508 7.97335 13.8816C7.96428 13.8124 7.96894 13.742 7.98704 13.6746C8.00515 13.6072 8.03635 13.544 8.07887 13.4887C8.1214 13.4333 8.17441 13.3869 8.23487 13.352C8.29534 13.3172 8.36208 13.2946 8.43129 13.2855C8.57106 13.2673 8.71234 13.3053 8.82406 13.3913C8.93578 13.4772 9.00878 13.604 9.027 13.7438C9.04522 13.8836 9.00718 14.0248 8.92123 14.1366C8.83528 14.2483 8.70919 14.3213 8.56942 14.3395ZM8.56942 11.6832C8.50021 11.6923 8.42989 11.6877 8.36248 11.6696C8.29508 11.6515 8.23189 11.6203 8.17654 11.5777C8.12119 11.5352 8.07476 11.4822 8.0399 11.4217C8.00503 11.3613 7.98242 11.2945 7.97335 11.2253C7.96428 11.1561 7.96894 11.0858 7.98704 11.0184C8.00515 10.951 8.03635 10.8878 8.07887 10.8324C8.1214 10.7771 8.17441 10.7307 8.23487 10.6958C8.29534 10.6609 8.36208 10.6383 8.43129 10.6292C8.57106 10.611 8.71234 10.6491 8.82406 10.735C8.93578 10.821 9.00878 10.9478 9.027 11.0875C9.04522 11.2273 9.00718 11.3686 8.92123 11.4803C8.83528 11.592 8.70919 11.665 8.56942 11.6832ZM8.56942 9.027C8.50021 9.03607 8.42989 9.03142 8.36248 9.01331C8.29508 8.99521 8.23189 8.964 8.17654 8.92148C8.12119 8.87896 8.07476 8.82595 8.0399 8.76548C8.00503 8.70501 7.98242 8.63827 7.97335 8.56906C7.96428 8.49986 7.96894 8.42954 7.98704 8.36213C8.00515 8.29472 8.03635 8.23154 8.07887 8.17619C8.1214 8.12084 8.17441 8.07441 8.23487 8.03954C8.29534 8.00468 8.36208 7.98207 8.43129 7.973C8.5005 7.96398 8.5708 7.96867 8.6382 7.98682C8.70559 8.00497 8.76874 8.03621 8.82406 8.07877C8.87938 8.12133 8.92577 8.17436 8.96059 8.23485C8.99541 8.29533 9.01798 8.36208 9.027 8.43129C9.03602 8.5005 9.03133 8.5708 9.01318 8.6382C8.99503 8.70559 8.96379 8.76874 8.92123 8.82406C8.87867 8.87938 8.82564 8.92577 8.76515 8.96059C8.70467 8.99541 8.63862 9.01798 8.56942 9.027ZM8.56942 6.37075C8.49959 6.38125 8.42837 6.37773 8.35992 6.36039C8.29148 6.34305 8.22717 6.31224 8.17077 6.26976C8.11437 6.22728 8.067 6.17398 8.03143 6.11298C7.99587 6.05198 7.97283 5.9845 7.96364 5.91449C7.95446 5.84447 7.95933 5.77334 7.97796 5.70523C7.9966 5.63712 8.02862 5.57341 8.07216 5.51782C8.1157 5.46223 8.16989 5.41588 8.23155 5.38148C8.29322 5.34708 8.36112 5.32531 8.43129 5.31746C8.56928 5.30268 8.70757 5.34249 8.81659 5.42836C8.9256 5.51423 8.99669 5.63935 9.01465 5.77696C9.0326 5.91457 8.99599 6.05374 8.91265 6.16471C8.82932 6.27568 8.70658 6.34963 8.56942 6.37075ZM8.56942 3.7145C8.49959 3.725 8.42837 3.72148 8.35992 3.70414C8.29148 3.6868 8.22717 3.65599 8.17077 3.61351C8.11437 3.57103 8.067 3.51773 8.03143 3.45673C7.99587 3.39573 7.97283 3.32825 7.96364 3.25824C7.95446 3.18822 7.95933 3.11709 7.97796 3.04898C7.9966 2.98087 8.02862 2.91716 8.07216 2.86157C8.1157 2.80598 8.16989 2.75963 8.23155 2.72523C8.29322 2.69083 8.36112 2.66906 8.43129 2.66121C8.56928 2.64643 8.70757 2.68624 8.81659 2.77211C8.9256 2.85798 8.99669 2.9831 9.01465 3.12071C9.0326 3.25832 8.99599 3.39749 8.91265 3.50846C8.82932 3.61943 8.70658 3.69338 8.56942 3.7145ZM14.7418 15.4062H10.625V6.90625H14.3438C14.4846 6.90625 14.6198 6.96222 14.7194 7.06185C14.819 7.16148 14.875 7.2966 14.875 7.4375V15.2738C14.8748 15.309 14.8607 15.3427 14.8357 15.3675C14.8108 15.3923 14.777 15.4062 14.7418 15.4062Z"/>
<path d="M13.2812 13.2812C13.1404 13.2812 13.0052 13.3372 12.9056 13.4368C12.806 13.5365 12.75 13.6716 12.75 13.8125C12.75 13.9534 12.806 14.0885 12.9056 14.1882C13.0052 14.2878 13.1404 14.3438 13.2812 14.3438C13.4221 14.3438 13.5573 14.2878 13.6569 14.1882C13.7565 14.0885 13.8125 13.9534 13.8125 13.8125C13.8125 13.6716 13.7565 13.5365 13.6569 13.4368C13.5573 13.3372 13.4221 13.2812 13.2812 13.2812Z"/>
<path d="M13.2812 10.625C13.1404 10.625 13.0052 10.681 12.9056 10.7806C12.806 10.8802 12.75 11.0154 12.75 11.1562C12.75 11.2971 12.806 11.4323 12.9056 11.5319C13.0052 11.6315 13.1404 11.6875 13.2812 11.6875C13.4221 11.6875 13.5573 11.6315 13.6569 11.5319C13.7565 11.4323 13.8125 11.2971 13.8125 11.1562C13.8125 11.0154 13.7565 10.8802 13.6569 10.7806C13.5573 10.681 13.4221 10.625 13.2812 10.625Z"/>
<path d="M13.2812 7.96875C13.1404 7.96875 13.0052 8.02472 12.9056 8.12435C12.806 8.22398 12.75 8.3591 12.75 8.5C12.75 8.6409 12.806 8.77602 12.9056 8.87565C13.0052 8.97528 13.1404 9.03125 13.2812 9.03125C13.4221 9.03125 13.5573 8.97528 13.6569 8.87565C13.7565 8.77602 13.8125 8.6409 13.8125 8.5C13.8125 8.3591 13.7565 8.22398 13.6569 8.12435C13.5573 8.02472 13.4221 7.96875 13.2812 7.96875Z"/>
<path d="M11.1562 13.2812C11.0154 13.2812 10.8802 13.3372 10.7806 13.4368C10.681 13.5365 10.625 13.6716 10.625 13.8125C10.625 13.9534 10.681 14.0885 10.7806 14.1882C10.8802 14.2878 11.0154 14.3438 11.1562 14.3438C11.2971 14.3438 11.4323 14.2878 11.5319 14.1882C11.6315 14.0885 11.6875 13.9534 11.6875 13.8125C11.6875 13.6716 11.6315 13.5365 11.5319 13.4368C11.4323 13.3372 11.2971 13.2812 11.1562 13.2812Z"/>
<path d="M11.1562 10.625C11.0154 10.625 10.8802 10.681 10.7806 10.7806C10.681 10.8802 10.625 11.0154 10.625 11.1562C10.625 11.2971 10.681 11.4323 10.7806 11.5319C10.8802 11.6315 11.0154 11.6875 11.1562 11.6875C11.2971 11.6875 11.4323 11.6315 11.5319 11.5319C11.6315 11.4323 11.6875 11.2971 11.6875 11.1562C11.6875 11.0154 11.6315 10.8802 11.5319 10.7806C11.4323 10.681 11.2971 10.625 11.1562 10.625Z"/>
<path d="M11.1562 7.96875C11.0154 7.96875 10.8802 8.02472 10.7806 8.12435C10.681 8.22398 10.625 8.3591 10.625 8.5C10.625 8.6409 10.681 8.77602 10.7806 8.87565C10.8802 8.97528 11.0154 9.03125 11.1562 9.03125C11.2971 9.03125 11.4323 8.97528 11.5319 8.87565C11.6315 8.77602 11.6875 8.6409 11.6875 8.5C11.6875 8.3591 11.6315 8.22398 11.5319 8.12435C11.4323 8.02472 11.2971 7.96875 11.1562 7.96875Z"/>
</svg>
