<svg viewBox="0 0 20 20" xmlns="http://www.w3.org/2000/svg">
<circle cx="10" cy="10" r="8" fill="#0190DA"/>
<path fill-rule="evenodd" clip-rule="evenodd" d="M7.15904 6.1595C7.26161 6.05793 7.40174 6 7.54888 6H9.49571V8.2699C9.49571 8.58775 9.62325 8.89158 9.84869 9.11483C10.074 9.33792 10.3785 9.46238 10.695 9.46238H12.9925V13.4635C12.9925 13.6048 12.9359 13.7413 12.8335 13.8428C12.7309 13.9443 12.5908 14.0023 12.4436 14.0023H7.54888C7.40174 14.0023 7.26161 13.9443 7.15904 13.8428C7.05663 13.7413 7 13.6048 7 13.4635V6.53872C7 6.39742 7.05663 6.26092 7.15904 6.1595ZM12.2773 8.46238L10.4957 6.69858V8.2699C10.4957 8.31937 10.5155 8.36781 10.5523 8.40429C10.5893 8.44094 10.6406 8.46238 10.695 8.46238H12.2773ZM10.3793 5.35235L10.553 5.34808L13.6396 8.40396L13.6398 8.40413C13.7514 8.51469 13.8401 8.6462 13.9007 8.79127C13.9613 8.93629 13.9926 9.09187 13.9925 9.2491V9.24933V13.4635C13.9925 13.8732 13.8281 14.2651 13.5371 14.5533C13.2463 14.8413 12.8529 15.0023 12.4436 15.0023H7.54888C7.13965 15.0023 6.74622 14.8413 6.45538 14.5533C6.16438 14.2651 6 13.8732 6 13.4635V6.53872C6 6.12905 6.16438 5.73715 6.45538 5.44897L9.59679 5.37162C9.59684 5.37155 9.5969 5.37148 9.59695 5.3714L6.45538 5.44897C6.74622 5.16095 7.13965 5 7.54888 5H9.70677H9.7072C10.0235 5.00028 10.3277 5.12482 10.5527 5.34781L10.3791 5.35209C10.3791 5.35218 10.3792 5.35227 10.3793 5.35235Z" fill="white"/>
</svg>
