<svg viewBox="0 0 17 17" xmlns="http://www.w3.org/2000/svg">
<g clip-path="url(#clip0_1_10784)">
<path d="M13.6354 0H11.0422H10.625H4.25H3.83279H1.23958C0.559583 0 0 0.559583 0 1.23958V13.6354C0 14.3154 0.559583 14.875 1.23958 14.875H6.91333C6.56625 14.1171 6.375 13.2812 6.375 12.3958C6.375 9.07375 9.07375 6.375 12.3958 6.375C13.2812 6.375 14.1171 6.56625 14.875 6.91333V1.23958C14.875 0.559583 14.3154 0 13.6354 0ZM10.3062 6.3325C10.2354 6.36083 10.1646 6.375 10.0938 6.375C9.95917 6.375 9.83167 6.32542 9.7325 6.23333L7.4375 4.09417L5.1425 6.23333C4.98667 6.375 4.76 6.4175 4.56875 6.3325C4.3775 6.2475 4.25 6.05625 4.25 5.84375V1.0625H10.625V5.84375C10.625 6.05625 10.4975 6.2475 10.3062 6.3325Z"/>
<path d="M16.0011 9.54121C15.7815 9.26496 15.5265 9.00996 15.2503 8.79038C14.4711 8.16704 13.4723 7.79163 12.3957 7.79163C9.85984 7.79163 7.7915 9.85996 7.7915 12.3958C7.7915 13.4725 8.16692 14.4712 8.79025 15.2504C9.00984 15.5266 9.26484 15.7816 9.54109 16.0012C10.3203 16.6245 11.319 17 12.3957 17C14.9315 17 16.9998 14.9316 16.9998 12.3958C16.9998 11.3191 16.6244 10.3204 16.0011 9.54121ZM12.3957 15.9375C11.6094 15.9375 10.8869 15.6825 10.299 15.2433C10.0086 15.0379 9.75359 14.7829 9.54817 14.4925C9.109 13.9045 8.854 13.182 8.854 12.3958C8.854 10.4408 10.4407 8.85413 12.3957 8.85413C13.1819 8.85413 13.9044 9.10913 14.4923 9.54829C14.7828 9.75371 15.0378 10.0087 15.2432 10.2991C15.6823 10.887 15.9373 11.6095 15.9373 12.3958C15.9373 14.3508 14.3507 15.9375 12.3957 15.9375Z"/>
<path d="M16.0014 9.54124L15.2434 10.2992L10.2993 15.2433L9.54136 16.0012C9.26511 15.7817 9.01011 15.5267 8.79053 15.2504L9.54844 14.4925L14.4926 9.54832L15.2505 8.79041C15.5268 9.00999 15.7818 9.26499 16.0014 9.54124Z"/>
</g>
<defs>
<clipPath id="clip0_1_10784">
<rect width="17" height="17" fill="white"/>
</clipPath>
</defs>
</svg>
