<svg viewBox="0 0 17 17" xmlns="http://www.w3.org/2000/svg">
<path d="M7.84711 8.7638V15.9997C7.80577 15.985 7.76698 15.9636 7.73194 15.9367L2.7305 12.8547C2.50642 12.7234 2.32066 12.5329 2.19265 12.3029C2.05944 12.0632 1.99299 11.7905 2.00059 11.5147V5.15369L7.84711 8.7638Z"/>
<path d="M14.9999 5.15369V11.5384C14.99 11.8014 14.9189 12.0581 14.7924 12.2872C14.6723 12.5225 14.4881 12.7168 14.2623 12.8468L9.26088 15.9288L9.15332 15.984V8.75591L11.6579 7.17946V9.36285C11.6579 9.54052 11.7267 9.71093 11.8491 9.83658C11.9716 9.96222 12.1378 10.0328 12.3109 10.0328C12.4841 10.0328 12.6503 9.96222 12.7727 9.83658C12.8952 9.71093 12.964 9.54052 12.964 9.36285V6.41486L14.9999 5.15369Z"/>
<path d="M11.0201 6.06015L8.50023 7.63661L2.61523 4.01075L2.69974 3.9556L5.05069 2.67078L11.0201 6.06015Z"/>
<path d="M14.3774 3.99513L12.2954 5.27206L6.42578 1.89844L7.70117 1.21268C7.93457 1.07376 8.19955 1.00037 8.46944 0.999878C8.73957 1.00562 9.00393 1.08155 9.23772 1.22057L14.2084 3.94784C14.2676 3.94975 14.3254 3.96595 14.3774 3.99513Z"/>
</svg>
