<svg viewBox="0 0 20 20" xmlns="http://www.w3.org/2000/svg">
<rect width="20" height="20" rx="10" fill="#1EBEC8"/>
<path d="M13.6667 6.42857H12.6667V6.07143C12.6664 5.78735 12.561 5.51497 12.3735 5.31409C12.186 5.11322 11.9318 5.00025 11.6667 5H8.33333C8.06819 5.00025 7.81397 5.11322 7.62649 5.31409C7.439 5.51497 7.33357 5.78735 7.33333 6.07143V6.42857H6.33333C5.97982 6.42895 5.64089 6.57958 5.39091 6.84741C5.14094 7.11524 5.00035 7.47838 5 7.85714V13.5714C5 13.9503 5.14048 14.3137 5.39052 14.5816C5.64057 14.8495 5.97971 15 6.33333 15H13.6667C14.0203 15 14.3594 14.8495 14.6095 14.5816C14.8595 14.3137 15 13.9503 15 13.5714V7.85714C14.9996 7.47838 14.8591 7.11524 14.6091 6.84741C14.3591 6.57958 14.0202 6.42895 13.6667 6.42857ZM11.6667 11.0714H10.3333V12.5C10.3333 12.5947 10.2982 12.6856 10.2357 12.7525C10.1732 12.8195 10.0884 12.8571 10 12.8571C9.91159 12.8571 9.82681 12.8195 9.7643 12.7525C9.70179 12.6856 9.66667 12.5947 9.66667 12.5V11.0714H8.33333C8.24493 11.0714 8.16014 11.0338 8.09763 10.9668C8.03512 10.8998 8 10.809 8 10.7143C8 10.6196 8.03512 10.5287 8.09763 10.4617C8.16014 10.3948 8.24493 10.3571 8.33333 10.3571H9.66667V8.92857C9.66667 8.83385 9.70179 8.74301 9.7643 8.67603C9.82681 8.60906 9.91159 8.57143 10 8.57143C10.0884 8.57143 10.1732 8.60906 10.2357 8.67603C10.2982 8.74301 10.3333 8.83385 10.3333 8.92857V10.3571H11.6667C11.7551 10.3571 11.8399 10.3948 11.9024 10.4617C11.9649 10.5287 12 10.6196 12 10.7143C12 10.809 11.9649 10.8998 11.9024 10.9668C11.8399 11.0338 11.7551 11.0714 11.6667 11.0714ZM12 6.42857H8V6.07143C8 5.97671 8.03512 5.88587 8.09763 5.81889C8.16014 5.75191 8.24493 5.71429 8.33333 5.71429H11.6667C11.7551 5.71429 11.8399 5.75191 11.9024 5.81889C11.9649 5.88587 12 5.97671 12 6.07143V6.42857Z" fill="white"/>
</svg>
