<svg viewBox="0 0 17 17" xmlns="http://www.w3.org/2000/svg">
<path d="M8.50024 5.8437C7.97488 5.8437 7.46132 5.99948 7.02451 6.29135C6.58769 6.58323 6.24723 6.99808 6.04618 7.48344C5.84514 7.96881 5.79254 8.50289 5.89503 9.01815C5.99752 9.53342 6.2505 10.0067 6.62199 10.3782C6.99347 10.7497 7.46677 11.0027 7.98203 11.1052C8.49729 11.2076 9.03138 11.155 9.51674 10.954C10.0021 10.753 10.417 10.4125 10.7088 9.97568C11.0007 9.53886 11.1565 9.0253 11.1565 8.49994C11.1544 7.7961 10.8739 7.12166 10.3762 6.62396C9.87852 6.12627 9.20409 5.84575 8.50024 5.8437ZM14.2335 8.49994C14.2321 8.74786 14.2144 8.99578 14.1797 9.24157L15.7961 10.5074C15.8665 10.5655 15.914 10.6468 15.9299 10.7368C15.9459 10.8267 15.9293 10.9194 15.8832 10.9982L14.3539 13.6382C14.3074 13.7163 14.2348 13.7756 14.1489 13.8055C14.063 13.8354 13.9693 13.8341 13.8843 13.8018L11.9838 13.0382C11.588 13.3432 11.1547 13.5962 10.6947 13.7912L10.4106 15.8099C10.3944 15.9002 10.3475 15.982 10.2777 16.0416C10.208 16.1011 10.1198 16.1347 10.0281 16.1365H6.97024C6.88004 16.1349 6.79307 16.1026 6.72357 16.0451C6.65408 15.9876 6.60618 15.9082 6.58774 15.8199L6.30441 13.8018C5.84313 13.6092 5.40959 13.356 5.01524 13.0489L3.11407 13.8124C3.02914 13.845 2.93546 13.8464 2.84955 13.8166C2.76363 13.7868 2.691 13.7276 2.64445 13.6495L1.11516 11.0089C1.06922 10.9301 1.05276 10.8376 1.06872 10.7478C1.08467 10.658 1.13201 10.5768 1.20228 10.5187L2.81941 9.2529C2.78488 9.00337 2.76666 8.75185 2.76486 8.49994C2.76628 8.25203 2.78399 8.00411 2.81941 7.75832L1.20228 6.49253C1.13183 6.43438 1.08438 6.35306 1.06842 6.26312C1.05246 6.17318 1.06902 6.08049 1.11516 6.00165L2.64516 3.36169C2.69167 3.28371 2.76415 3.22459 2.84988 3.19467C2.93561 3.16475 3.02914 3.16596 3.11407 3.19807L5.01524 3.96165C5.41111 3.65675 5.84435 3.40371 6.30441 3.2087L6.58774 1.18994C6.60393 1.09969 6.65089 1.01784 6.72062 0.958307C6.79036 0.898773 6.87857 0.865237 6.97024 0.863403H10.0288C10.1189 0.86512 10.2057 0.89728 10.2752 0.954645C10.3446 1.01201 10.3926 1.0912 10.4113 1.17932L10.6947 3.19807C11.1572 3.39003 11.5914 3.64432 11.9859 3.95103L13.885 3.18744C13.9699 3.15508 14.0636 3.15367 14.1494 3.18346C14.2353 3.21326 14.308 3.27235 14.3546 3.35036L15.8846 5.99103C15.9307 6.06995 15.9471 6.16268 15.931 6.25263C15.9149 6.34257 15.8673 6.42385 15.7968 6.4819L14.1804 7.74769C14.2144 7.99703 14.2321 8.24849 14.2335 8.49994Z"/>
</svg>
