<svg viewBox="0 0 17 17" xmlns="http://www.w3.org/2000/svg">
<path d="M14.8644 7.33125C14.8568 7.29597 14.8457 7.26155 14.8311 7.22854L13.5773 4.301C13.2869 3.62454 12.5843 3.1875 11.7838 3.1875H5.21617C4.41576 3.1875 3.71167 3.62454 3.42267 4.301L2.16751 7.22854C2.13911 7.29453 2.12465 7.36566 2.12501 7.4375V13.2812C2.12501 13.4221 2.18098 13.5573 2.28061 13.6569C2.38023 13.7565 2.51536 13.8125 2.65626 13.8125H3.71876C3.85965 13.8125 3.99478 13.7565 4.09441 13.6569C4.19404 13.5573 4.25001 13.4221 4.25001 13.2812V12.75H12.75V13.2812C12.75 13.4221 12.806 13.5573 12.9056 13.6569C13.0052 13.7565 13.1404 13.8125 13.2813 13.8125H14.3438C14.4847 13.8125 14.6198 13.7565 14.7194 13.6569C14.819 13.5573 14.875 13.4221 14.875 13.2812V7.4375C14.875 7.40182 14.8715 7.36622 14.8644 7.33125ZM4.78126 10.625C4.49946 10.625 4.22921 10.5131 4.02996 10.3138C3.8307 10.1145 3.71876 9.84429 3.71876 9.5625C3.71876 9.28071 3.8307 9.01046 4.02996 8.8112C4.22921 8.61194 4.49946 8.5 4.78126 8.5C5.06305 8.5 5.3333 8.61194 5.53256 8.8112C5.73182 9.01046 5.84376 9.28071 5.84376 9.5625C5.84376 9.84429 5.73182 10.1145 5.53256 10.3138C5.3333 10.5131 5.06305 10.625 4.78126 10.625ZM12.2188 10.625C11.937 10.625 11.6667 10.5131 11.4675 10.3138C11.2682 10.1145 11.1563 9.84429 11.1563 9.5625C11.1563 9.28071 11.2682 9.01046 11.4675 8.8112C11.6667 8.61194 11.937 8.5 12.2188 8.5C12.5005 8.5 12.7708 8.61194 12.9701 8.8112C13.1693 9.01046 13.2813 9.28071 13.2813 9.5625C13.2813 9.84429 13.1693 10.1145 12.9701 10.3138C12.7708 10.5131 12.5005 10.625 12.2188 10.625ZM3.46163 6.90625L4.39876 4.71962C4.51917 4.43913 4.84784 4.25 5.21688 4.25H11.7831C12.1515 4.25 12.4808 4.43913 12.6005 4.71962L13.5384 6.90625H3.46163Z"/>
</svg>
