<svg viewBox="0 0 17 17" xmlns="http://www.w3.org/2000/svg">
<path d="M14.1161 2.92374L14.0957 2.90333C12.8682 1.6759 11.236 1 9.50005 1C7.76406 1 6.13189 1.6759 4.90424 2.90333C3.67634 4.131 3 5.76349 3 7.49982C3 9.23627 3.67634 10.8688 4.90436 12.0966L4.92615 12.1184C6.15153 13.3321 7.77508 14 9.49957 14H9.5143C11.2448 13.9962 12.8719 13.3201 14.0957 12.0966C15.3198 10.8726 15.996 9.24528 16 7.51435C16.0038 5.78377 15.3353 4.15393 14.1161 2.92374ZM9.50173 10.5766C9.24774 10.5766 9.04178 10.3701 9.04178 10.1155C9.04178 9.86091 9.24774 9.65442 9.50173 9.65442C9.75571 9.65442 9.96156 9.86091 9.96156 10.1155C9.96156 10.3701 9.75571 10.5766 9.50173 10.5766ZM10.3518 7.86502C9.97605 8.15783 9.95677 8.35964 9.94875 8.78787C9.94408 9.03939 9.73919 9.24024 9.48915 9.24024C9.48628 9.24024 9.48341 9.24024 9.48041 9.24024C9.22655 9.23543 9.02453 9.02522 9.02932 8.77071C9.03758 8.32387 9.04896 7.71195 9.78888 7.13594C9.78984 7.13522 9.79068 7.1345 9.79164 7.13378C10.3245 6.72523 10.3289 6.2419 10.3276 6.18763C10.3245 6.1599 10.3246 6.15402 10.3273 6.12569C10.3278 6.09519 10.3272 5.82219 10.1515 5.63239C10.0208 5.4912 9.80745 5.41389 9.5173 5.40248C9.14488 5.40368 8.88766 5.49096 8.75258 5.6618C8.56781 5.89542 8.60673 6.2868 8.63739 6.4179C8.73163 6.7394 8.56446 6.94733 8.31419 7.00208C8.06379 7.05682 7.811 6.96402 7.7443 6.63772C7.72155 6.54611 7.53606 5.72483 8.02571 5.09683C8.34448 4.68781 8.8491 4.48047 9.52532 4.48047C9.53071 4.48047 9.53598 4.48059 9.54124 4.48071C10.0974 4.50016 10.5338 4.68132 10.8386 5.01939C11.2395 5.46419 11.2509 6.0138 11.2465 6.15546C11.2511 6.35067 11.2178 7.20017 10.3518 7.86502Z"/>
<path d="M4.23612 12.729C4.00945 12.502 3.80592 12.258 3.62678 12L1.28353 14.3463C1.1007 14.5294 1 14.7728 1 15.0317C1 15.2906 1.1007 15.5341 1.28353 15.7172C1.4719 15.9057 1.71917 16 1.96654 16C2.21381 16 2.46128 15.9057 2.64955 15.7172L5 13.3638C4.73572 13.1832 4.48602 12.9771 4.25381 12.7468L4.23612 12.729Z"/>
</svg>
