<svg viewBox="0 0 20 20" xmlns="http://www.w3.org/2000/svg">
<path d="M18 10C18 5.58154 14.4176 2 10 2C7.87827 2 5.84344 2.84285 4.34315 4.34315C2.84285 5.84344 2 7.87827 2 10C2 14.4176 5.58154 18 10 18C14.4176 18 18 14.4176 18 10ZM8.30728 12.8513V7.14872C8.30733 7.03179 8.34068 6.91729 8.40345 6.81863C8.46622 6.71997 8.55579 6.64124 8.66169 6.59165C8.76758 6.54206 8.88541 6.52366 9.00139 6.53862C9.11736 6.55358 9.22667 6.60127 9.31651 6.6761L12.743 9.52656C12.8125 9.58431 12.8685 9.65667 12.9069 9.7385C12.9453 9.82032 12.9652 9.90961 12.9652 10C12.9652 10.0904 12.9453 10.1797 12.9069 10.2615C12.8685 10.3433 12.8125 10.4157 12.743 10.4734L9.31651 13.3239C9.22667 13.3987 9.11736 13.4464 9.00139 13.4614C8.88541 13.4763 8.76758 13.4579 8.66169 13.4084C8.55579 13.3588 8.46622 13.28 8.40345 13.1814C8.34068 13.0827 8.30733 12.9682 8.30728 12.8513Z" fill="#F39834"/>
</svg>
