<svg viewBox="0 0 17 17" xmlns="http://www.w3.org/2000/svg">
<path d="M15.9375 4.25C15.9375 3.68642 15.7136 3.14591 15.3151 2.7474C14.9166 2.34889 14.3761 2.125 13.8125 2.125H13.2813V1.60792C13.2813 1.32175 13.0617 1.07667 12.7755 1.0625C12.7037 1.05905 12.6319 1.07021 12.5645 1.09532C12.4971 1.12042 12.4356 1.15894 12.3835 1.20855C12.3315 1.25815 12.29 1.3178 12.2617 1.3839C12.2334 1.44999 12.2188 1.52114 12.2188 1.59304V2.125H4.78125V1.60792C4.78125 1.32175 4.56167 1.07667 4.2755 1.0625C4.20368 1.05905 4.13191 1.07021 4.06453 1.09532C3.99715 1.12042 3.93557 1.15894 3.88351 1.20855C3.83146 1.25815 3.79002 1.3178 3.76169 1.3839C3.73337 1.44999 3.71876 1.52114 3.71875 1.59304V2.125H3.1875C2.62392 2.125 2.08341 2.34889 1.6849 2.7474C1.28639 3.14591 1.0625 3.68642 1.0625 4.25V4.64809C1.06241 4.6656 1.06579 4.68296 1.07245 4.69916C1.07911 4.71536 1.08891 4.73007 1.1013 4.74246C1.11368 4.75484 1.1284 4.76465 1.1446 4.77131C1.1608 4.77797 1.17815 4.78135 1.19567 4.78125H15.805C15.8402 4.78106 15.8739 4.76695 15.8987 4.742C15.9236 4.71705 15.9375 4.68328 15.9375 4.64809V4.25Z"/>
<path d="M1.0625 13.8125C1.0625 14.3761 1.28638 14.9166 1.6849 15.3151C2.08341 15.7136 2.62391 15.9375 3.1875 15.9375H13.8125C14.3761 15.9375 14.9166 15.7136 15.3151 15.3151C15.7136 14.9166 15.9375 14.3761 15.9375 13.8125V5.94292C15.9375 5.91662 15.9271 5.89139 15.9085 5.8728C15.8899 5.8542 15.8646 5.84375 15.8383 5.84375H1.16167C1.13537 5.84375 1.11014 5.8542 1.09155 5.8728C1.07295 5.89139 1.0625 5.91662 1.0625 5.94292V13.8125ZM12.4844 6.90625C12.6957 6.90625 12.8984 6.99021 13.0479 7.13965C13.1973 7.28909 13.2812 7.49178 13.2812 7.70312C13.2812 7.91447 13.1973 8.11716 13.0479 8.2666C12.8984 8.41604 12.6957 8.5 12.4844 8.5C12.273 8.5 12.0703 8.41604 11.9209 8.2666C11.7715 8.11716 11.6875 7.91447 11.6875 7.70312C11.6875 7.49178 11.7715 7.28909 11.9209 7.13965C12.0703 6.99021 12.273 6.90625 12.4844 6.90625ZM12.4844 9.5625C12.6957 9.5625 12.8984 9.64646 13.0479 9.7959C13.1973 9.94534 13.2812 10.148 13.2812 10.3594C13.2812 10.5707 13.1973 10.7734 13.0479 10.9229C12.8984 11.0723 12.6957 11.1562 12.4844 11.1562C12.273 11.1562 12.0703 11.0723 11.9209 10.9229C11.7715 10.7734 11.6875 10.5707 11.6875 10.3594C11.6875 10.148 11.7715 9.94534 11.9209 9.7959C12.0703 9.64646 12.273 9.5625 12.4844 9.5625ZM9.82812 6.90625C10.0395 6.90625 10.2422 6.99021 10.3916 7.13965C10.541 7.28909 10.625 7.49178 10.625 7.70312C10.625 7.91447 10.541 8.11716 10.3916 8.2666C10.2422 8.41604 10.0395 8.5 9.82812 8.5C9.61678 8.5 9.41409 8.41604 9.26465 8.2666C9.11521 8.11716 9.03125 7.91447 9.03125 7.70312C9.03125 7.49178 9.11521 7.28909 9.26465 7.13965C9.41409 6.99021 9.61678 6.90625 9.82812 6.90625ZM9.82812 9.5625C10.0395 9.5625 10.2422 9.64646 10.3916 9.7959C10.541 9.94534 10.625 10.148 10.625 10.3594C10.625 10.5707 10.541 10.7734 10.3916 10.9229C10.2422 11.0723 10.0395 11.1562 9.82812 11.1562C9.61678 11.1562 9.41409 11.0723 9.26465 10.9229C9.11521 10.7734 9.03125 10.5707 9.03125 10.3594C9.03125 10.148 9.11521 9.94534 9.26465 9.7959C9.41409 9.64646 9.61678 9.5625 9.82812 9.5625ZM9.82812 12.2188C10.0395 12.2188 10.2422 12.3027 10.3916 12.4521C10.541 12.6016 10.625 12.8043 10.625 13.0156C10.625 13.227 10.541 13.4297 10.3916 13.5791C10.2422 13.7285 10.0395 13.8125 9.82812 13.8125C9.61678 13.8125 9.41409 13.7285 9.26465 13.5791C9.11521 13.4297 9.03125 13.227 9.03125 13.0156C9.03125 12.8043 9.11521 12.6016 9.26465 12.4521C9.41409 12.3027 9.61678 12.2188 9.82812 12.2188ZM7.17188 9.5625C7.38322 9.5625 7.58591 9.64646 7.73535 9.7959C7.88479 9.94534 7.96875 10.148 7.96875 10.3594C7.96875 10.5707 7.88479 10.7734 7.73535 10.9229C7.58591 11.0723 7.38322 11.1562 7.17188 11.1562C6.96053 11.1562 6.75784 11.0723 6.6084 10.9229C6.45896 10.7734 6.375 10.5707 6.375 10.3594C6.375 10.148 6.45896 9.94534 6.6084 9.7959C6.75784 9.64646 6.96053 9.5625 7.17188 9.5625ZM7.17188 12.2188C7.38322 12.2188 7.58591 12.3027 7.73535 12.4521C7.88479 12.6016 7.96875 12.8043 7.96875 13.0156C7.96875 13.227 7.88479 13.4297 7.73535 13.5791C7.58591 13.7285 7.38322 13.8125 7.17188 13.8125C6.96053 13.8125 6.75784 13.7285 6.6084 13.5791C6.45896 13.4297 6.375 13.227 6.375 13.0156C6.375 12.8043 6.45896 12.6016 6.6084 12.4521C6.75784 12.3027 6.96053 12.2188 7.17188 12.2188ZM4.51562 9.5625C4.72697 9.5625 4.92966 9.64646 5.0791 9.7959C5.22854 9.94534 5.3125 10.148 5.3125 10.3594C5.3125 10.5707 5.22854 10.7734 5.0791 10.9229C4.92966 11.0723 4.72697 11.1562 4.51562 11.1562C4.30428 11.1562 4.10159 11.0723 3.95215 10.9229C3.80271 10.7734 3.71875 10.5707 3.71875 10.3594C3.71875 10.148 3.80271 9.94534 3.95215 9.7959C4.10159 9.64646 4.30428 9.5625 4.51562 9.5625ZM4.51562 12.2188C4.72697 12.2188 4.92966 12.3027 5.0791 12.4521C5.22854 12.6016 5.3125 12.8043 5.3125 13.0156C5.3125 13.227 5.22854 13.4297 5.0791 13.5791C4.92966 13.7285 4.72697 13.8125 4.51562 13.8125C4.30428 13.8125 4.10159 13.7285 3.95215 13.5791C3.80271 13.4297 3.71875 13.227 3.71875 13.0156C3.71875 12.8043 3.80271 12.6016 3.95215 12.4521C4.10159 12.3027 4.30428 12.2188 4.51562 12.2188Z"/>
</svg>
