<svg viewBox="0 0 20 19" xmlns="http://www.w3.org/2000/svg">
<path d="M9.07776 0.821956C9.44427 0.0776272 10.5055 0.0776253 10.872 0.821954L12.9679 5.07842C13.1134 5.37388 13.3951 5.57876 13.721 5.62623L18.4113 6.30933C19.2308 6.42869 19.5584 7.43544 18.966 8.01418L15.5691 11.3329C15.3341 11.5625 15.2269 11.893 15.2823 12.2168L16.0838 16.9006C16.2236 17.7178 15.3654 18.3404 14.6319 17.9539L10.4411 15.7456C10.1493 15.5919 9.8005 15.5919 9.50873 15.7456L5.31787 17.9539C4.58437 18.3405 3.72618 17.7178 3.86602 16.9006L4.66751 12.2168C4.72294 11.893 4.61571 11.5625 4.38067 11.3329L0.983809 8.01418C0.391438 7.43544 0.719006 6.42869 1.53852 6.30933L6.22885 5.62623C6.55475 5.57876 6.83638 5.37388 6.98187 5.07842L9.07776 0.821956Z"/>
</svg>
