<svg viewBox="0 0 20 20" xmlns="http://www.w3.org/2000/svg">
<path d="M10 2C5.58892 2 2 5.58892 2 10C2 14.4111 5.58892 18 10 18C14.4111 18 18 14.4111 18 10C18 5.58892 14.4111 2 10 2ZM14.1633 7.31856L8.99405 13.4724C8.93749 13.54 8.86703 13.5947 8.78745 13.6326C8.70788 13.6706 8.62107 13.6909 8.53292 13.6923H8.52226C8.43608 13.6923 8.35086 13.6742 8.27213 13.6391C8.1934 13.604 8.12291 13.5528 8.06523 13.4888L5.84985 11.0273C5.75183 10.9219 5.69381 10.7855 5.68584 10.6418C5.67788 10.4981 5.72048 10.3561 5.80624 10.2405C5.89201 10.1249 6.01554 10.043 6.15539 10.0089C6.29525 9.9749 6.4426 9.9909 6.5719 10.0542C6.64574 10.0911 6.71138 10.1419 6.7639 10.2035L8.50585 12.1399L13.2213 6.52759C13.3281 6.40917 13.4767 6.33683 13.6358 6.32579C13.7948 6.31476 13.952 6.3659 14.0741 6.46843C14.1962 6.57097 14.2737 6.7169 14.2904 6.87548C14.307 7.03406 14.2614 7.19291 14.1633 7.31856Z" fill="#008000"/>
</svg>
