<svg viewBox="0 0 17 17" xmlns="http://www.w3.org/2000/svg">
<path d="M10.6452 7.57031H6.13182C5.98521 7.57031 5.86621 7.68931 5.86621 7.83592C5.86621 7.98253 5.98521 8.10153 6.13182 8.10153H10.6452C10.7919 8.10153 10.9108 7.98253 10.9108 7.83592C10.9108 7.68931 10.7919 7.57031 10.6452 7.57031Z"/>
<path d="M7.7297 8.89856H6.13182C5.98521 8.89856 5.86621 9.01756 5.86621 9.16417C5.86621 9.31078 5.98521 9.42978 6.13182 9.42978H7.7297C7.87644 9.42978 7.99531 9.31078 7.99531 9.16417C7.99531 9.01756 7.87644 8.89856 7.7297 8.89856Z"/>
<path d="M10.6453 8.89856H8.92528C8.77867 8.89856 8.65967 9.01756 8.65967 9.16417C8.65967 9.31078 8.77867 9.42978 8.92528 9.42978H10.6453C10.792 9.42978 10.9109 9.31078 10.9109 9.16417C10.9109 9.01756 10.7922 8.89856 10.6453 8.89856Z"/>
<path d="M15.4063 1.5753C15.4063 0.705302 14.7009 0 13.8309 0H3.16919C2.29905 0 1.59375 0.705302 1.59375 1.5753V15.4247C1.59375 16.2947 2.29905 17 3.16919 17H13.831C14.701 17 15.4064 16.2947 15.4064 15.4247V1.5753H15.4063ZM4.66384 14.211H2.94261C2.68597 14.211 2.47721 14.0024 2.47721 13.7462C2.47721 13.4899 2.68597 13.2813 2.94261 13.2813H4.66384C4.92047 13.2813 5.12923 13.4899 5.12923 13.7462C5.12923 14.0024 4.92047 14.211 4.66384 14.211ZM4.66384 3.71881H2.94261C2.68597 3.71881 2.47721 3.51019 2.47721 3.25396C2.47721 2.99774 2.68597 2.78911 2.94261 2.78911H4.66384C4.92047 2.78911 5.12923 2.99774 5.12923 3.25396C5.12923 3.51019 4.92047 3.71881 4.66384 3.71881ZM11.8204 10.2266H5.17969V6.77353H11.8204V10.2266Z"/>
</svg>
