<svg viewBox="0 0 17 17" xmlns="http://www.w3.org/2000/svg">
<g clip-path="url(#clip0_1_85)">
<path d="M6.33081 11.4124C5.75597 11.7443 5.39883 12.3628 5.39883 13.0266V16.9656C5.55004 16.9237 5.696 16.8627 5.83277 16.7838L8.86959 15.0305C9.44444 14.6986 9.80157 14.08 9.80157 13.4163V9.90961C9.80157 9.75169 9.78138 9.59478 9.7421 9.44287L6.33081 11.4124Z"/>
<path d="M16.9405 3.18408L13.5292 5.15359C12.9544 5.48549 12.5973 6.104 12.5973 6.76779V10.7068C12.7485 10.6649 12.8944 10.604 13.0312 10.525L16.068 8.77164C16.6429 8.43974 17 7.82123 17 7.15743V3.65079C17 3.49287 16.9798 3.33599 16.9405 3.18408Z"/>
<path d="M9.24362 8.58055C9.13272 8.47128 9.00751 8.37502 8.86962 8.2954L5.8328 6.54208C5.25795 6.21018 4.54369 6.21018 3.96884 6.54208L0.932017 8.2954C0.794124 8.37502 0.668915 8.47128 0.557983 8.58055L3.96884 10.5498C4.34639 10.7678 4.66245 11.0665 4.90082 11.4166C5.13918 11.0665 5.45525 10.7677 5.83283 10.5498L9.24362 8.58055Z"/>
<path d="M3.47076 11.4124L0.0594668 9.44293C0.0201543 9.59484 0 9.75172 0 9.90964V13.4163C0 14.08 0.3571 14.6986 0.931979 15.0305L3.9688 16.7838C4.10557 16.8627 4.25153 16.9237 4.40273 16.9656V13.0266C4.40273 12.3628 4.04563 11.7443 3.47076 11.4124Z"/>
<path d="M16.442 2.32169C16.3311 2.21241 16.2059 2.11619 16.068 2.03657L13.0312 0.283213C12.4563 -0.0486521 11.7421 -0.0486853 11.1673 0.283213L8.13044 2.03654C7.99255 2.11616 7.86734 2.21238 7.75644 2.32165L11.1673 4.2909C11.5448 4.50888 11.8609 4.80757 12.0993 5.15766C12.3376 4.80757 12.6537 4.50884 13.0313 4.2909L16.442 2.32169Z"/>
<path d="M10.6692 5.15359L7.25792 3.18408C7.21861 3.33599 7.19846 3.49287 7.19846 3.65079V6.1804L9.36765 7.43279C10.2497 7.94202 10.7977 8.8911 10.7977 9.90967V10.3116L11.1673 10.525C11.304 10.604 11.45 10.6649 11.6012 10.7069V6.76779C11.6012 6.10403 11.2441 5.48549 10.6692 5.15359Z"/>
</g>
<defs>
<clipPath id="clip0_1_85">
<rect width="17" height="17"/>
</clipPath>
</defs>
</svg>
