<svg viewBox="0 0 20 20" xmlns="http://www.w3.org/2000/svg">
<rect width="20" height="20" rx="10" fill="#B5A5FF"/>
<path d="M9.99998 4.0769C8.82851 4.0769 7.68334 4.42429 6.7093 5.07512C5.73525 5.72596 4.97608 6.65102 4.52777 7.73332C4.07947 8.81562 3.96217 10.0066 4.19072 11.1555C4.41926 12.3045 4.98338 13.3599 5.81174 14.1882C6.64009 15.0166 7.69548 15.5807 8.84445 15.8092C9.99341 16.0378 11.1843 15.9205 12.2666 15.4722C13.3489 15.0239 14.274 14.2647 14.9248 13.2907C15.5757 12.3166 15.9231 11.1715 15.9231 9.99998C15.9214 8.4296 15.2968 6.92403 14.1864 5.81361C13.0759 4.70318 11.5704 4.0786 9.99998 4.0769ZM10.4936 9.94026C10.4936 10.0239 10.4724 10.1062 10.4319 10.1795C10.3914 10.2527 10.333 10.3144 10.2621 10.3588L8.36669 11.5434C8.3116 11.5779 8.25026 11.6011 8.18619 11.6118C8.12211 11.6225 8.05656 11.6205 7.99326 11.6059C7.92996 11.5913 7.87017 11.5643 7.81728 11.5266C7.7644 11.4889 7.71947 11.4411 7.68505 11.386C7.65063 11.3309 7.6274 11.2695 7.61668 11.2055C7.60597 11.1414 7.60798 11.0758 7.6226 11.0125C7.63722 10.9492 7.66417 10.8895 7.7019 10.8366C7.73963 10.7837 7.78741 10.7388 7.8425 10.7043L9.50639 9.66681V7.53203C9.50639 7.40112 9.5584 7.27558 9.65096 7.18301C9.74353 7.09045 9.86907 7.03844 9.99998 7.03844C10.1309 7.03844 10.2564 7.09045 10.349 7.18301C10.4416 7.27558 10.4936 7.40112 10.4936 7.53203V9.94026Z" fill="white"/>
</svg>
