<svg viewBox="0 0 17 17" xmlns="http://www.w3.org/2000/svg">
<path d="M3.17051 3.45239H13.7955C13.9195 3.45239 14.0434 3.46018 14.1667 3.47576C14.1249 3.18289 14.0242 2.90151 13.8708 2.64858C13.7173 2.39565 13.5143 2.17641 13.2738 2.00406C13.0334 1.83171 12.7605 1.70983 12.4717 1.64576C12.1829 1.58169 11.8841 1.57676 11.5933 1.63126L2.8553 3.12301H2.84538C2.29692 3.22797 1.80921 3.53833 1.48184 3.99072C1.97499 3.63992 2.56531 3.45173 3.17051 3.45239Z"/>
<path d="M13.7962 4.25H3.1712C2.60779 4.25056 2.06762 4.47463 1.66922 4.87302C1.27083 5.27141 1.04677 5.81159 1.0462 6.375V12.75C1.04677 13.3134 1.27083 13.8536 1.66922 14.252C2.06762 14.6504 2.60779 14.8744 3.1712 14.875H13.7962C14.3596 14.8744 14.8998 14.6504 15.2982 14.252C15.6966 13.8536 15.9206 13.3134 15.9212 12.75V6.375C15.9205 5.81165 15.6963 5.27158 15.298 4.87323C14.8996 4.47487 14.3596 4.25075 13.7962 4.25ZM12.2187 10.625C11.937 10.625 11.6667 10.5131 11.4674 10.3138C11.2682 10.1145 11.1562 9.84429 11.1562 9.5625C11.1562 9.28071 11.2682 9.01046 11.4674 8.8112C11.6667 8.61194 11.937 8.5 12.2187 8.5C12.5005 8.5 12.7708 8.61194 12.97 8.8112C13.1693 9.01046 13.2812 9.28071 13.2812 9.5625C13.2812 9.84429 13.1693 10.1145 12.97 10.3138C12.7708 10.5131 12.5005 10.625 12.2187 10.625Z"/>
<path d="M1.0625 8.61616V5.31249C1.0625 4.59283 1.46129 3.38654 2.84396 3.12516C4.01767 2.90558 5.18004 2.90558 5.18004 2.90558C5.18004 2.90558 5.94362 3.43683 5.3125 3.43683C4.68208 3.43683 4.69837 4.25 5.3125 4.25C5.92662 4.25 5.3125 5.03058 5.3125 5.03058L2.839 7.83558L1.0625 8.61687V8.61616Z"/>
</svg>
