<svg viewBox="0 0 17 17" xmlns="http://www.w3.org/2000/svg">
<path d="M3.45312 5.3125C3.20895 5.3125 2.96716 5.26441 2.74157 5.17096C2.51598 5.07752 2.31101 4.94056 2.13835 4.7679C1.96569 4.59524 1.82873 4.39027 1.73529 4.16468C1.64184 3.93909 1.59375 3.6973 1.59375 3.45312C1.59375 3.20895 1.64184 2.96716 1.73529 2.74157C1.82873 2.51598 1.96569 2.31101 2.13835 2.13835C2.31101 1.96569 2.51598 1.82873 2.74157 1.73529C2.96716 1.64184 3.20895 1.59375 3.45312 1.59375C3.94626 1.59375 4.4192 1.78965 4.7679 2.13835C5.1166 2.48705 5.3125 2.95999 5.3125 3.45312C5.3125 3.94626 5.1166 4.4192 4.7679 4.7679C4.4192 5.1166 3.94626 5.3125 3.45312 5.3125Z"/>
<path d="M8.5 5.3125C8.25582 5.3125 8.01404 5.26441 7.78845 5.17096C7.56286 5.07752 7.35788 4.94056 7.18522 4.7679C7.01256 4.59524 6.8756 4.39027 6.78216 4.16468C6.68872 3.93909 6.64062 3.6973 6.64062 3.45312C6.64062 3.20895 6.68872 2.96716 6.78216 2.74157C6.8756 2.51598 7.01256 2.31101 7.18522 2.13835C7.35788 1.96569 7.56286 1.82873 7.78845 1.73529C8.01404 1.64184 8.25582 1.59375 8.5 1.59375C8.99314 1.59375 9.46608 1.78965 9.81478 2.13835C10.1635 2.48705 10.3594 2.95999 10.3594 3.45312C10.3594 3.94626 10.1635 4.4192 9.81478 4.7679C9.46608 5.1166 8.99314 5.3125 8.5 5.3125Z"/>
<path d="M13.5469 5.3125C13.3027 5.3125 13.0609 5.26441 12.8353 5.17096C12.6097 5.07752 12.4048 4.94056 12.2321 4.7679C12.0594 4.59524 11.9225 4.39027 11.829 4.16468C11.7356 3.93909 11.6875 3.6973 11.6875 3.45312C11.6875 3.20895 11.7356 2.96716 11.829 2.74157C11.9225 2.51598 12.0594 2.31101 12.2321 2.13835C12.4048 1.96569 12.6097 1.82873 12.8353 1.73529C13.0609 1.64184 13.3027 1.59375 13.5469 1.59375C14.04 1.59375 14.513 1.78965 14.8617 2.13835C15.2104 2.48705 15.4062 2.95999 15.4062 3.45312C15.4062 3.94626 15.2104 4.4192 14.8617 4.7679C14.513 5.1166 14.04 5.3125 13.5469 5.3125Z"/>
<path d="M3.45312 10.3594C2.95999 10.3594 2.48705 10.1635 2.13835 9.81478C1.78965 9.46608 1.59375 8.99314 1.59375 8.5C1.59375 8.00686 1.78965 7.53392 2.13835 7.18522C2.48705 6.83652 2.95999 6.64063 3.45312 6.64062C3.94626 6.64063 4.4192 6.83652 4.7679 7.18522C5.1166 7.53392 5.3125 8.00686 5.3125 8.5C5.3125 8.99314 5.1166 9.46608 4.7679 9.81478C4.4192 10.1635 3.94626 10.3594 3.45312 10.3594Z"/>
<path d="M8.5 10.3594C8.00686 10.3594 7.53392 10.1635 7.18522 9.81478C6.83652 9.46608 6.64063 8.99314 6.64062 8.5C6.64062 8.00686 6.83652 7.53392 7.18522 7.18522C7.53392 6.83652 8.00686 6.64063 8.5 6.64062C8.99314 6.64063 9.46608 6.83652 9.81478 7.18522C10.1635 7.53392 10.3594 8.00686 10.3594 8.5C10.3594 8.99314 10.1635 9.46608 9.81478 9.81478C9.46608 10.1635 8.99314 10.3594 8.5 10.3594Z"/>
<path d="M13.5469 10.3594C13.0537 10.3594 12.5808 10.1635 12.2321 9.81478C11.8834 9.46608 11.6875 8.99314 11.6875 8.5C11.6875 8.00686 11.8834 7.53392 12.2321 7.18522C12.5808 6.83652 13.0537 6.64063 13.5469 6.64062C14.04 6.64063 14.513 6.83652 14.8617 7.18522C15.2104 7.53392 15.4062 8.00686 15.4062 8.5C15.4062 8.99314 15.2104 9.46608 14.8617 9.81478C14.513 10.1635 14.04 10.3594 13.5469 10.3594Z"/>
<path d="M3.45312 15.4062C3.20895 15.4062 2.96716 15.3582 2.74157 15.2647C2.51598 15.1713 2.31101 15.0343 2.13835 14.8617C1.96569 14.689 1.82873 14.484 1.73529 14.2584C1.64184 14.0328 1.59375 13.7911 1.59375 13.5469C1.59375 13.3027 1.64184 13.0609 1.73529 12.8353C1.82873 12.6097 1.96569 12.4048 2.13835 12.2321C2.31101 12.0594 2.51598 11.9225 2.74157 11.829C2.96716 11.7356 3.20895 11.6875 3.45312 11.6875C3.94626 11.6875 4.4192 11.8834 4.7679 12.2321C5.1166 12.5808 5.3125 13.0537 5.3125 13.5469C5.3125 14.04 5.1166 14.513 4.7679 14.8617C4.4192 15.2104 3.94626 15.4062 3.45312 15.4062Z"/>
<path d="M8.5 15.4062C8.25582 15.4062 8.01404 15.3582 7.78845 15.2647C7.56286 15.1713 7.35788 15.0343 7.18522 14.8617C7.01256 14.689 6.8756 14.484 6.78216 14.2584C6.68872 14.0328 6.64062 13.7911 6.64062 13.5469C6.64062 13.3027 6.68872 13.0609 6.78216 12.8353C6.8756 12.6097 7.01256 12.4048 7.18522 12.2321C7.35788 12.0594 7.56286 11.9225 7.78845 11.829C8.01404 11.7356 8.25582 11.6875 8.5 11.6875C8.99314 11.6875 9.46608 11.8834 9.81478 12.2321C10.1635 12.5808 10.3594 13.0537 10.3594 13.5469C10.3594 14.04 10.1635 14.513 9.81478 14.8617C9.46608 15.2104 8.99314 15.4062 8.5 15.4062Z"/>
<path d="M13.5469 15.4062C13.3027 15.4062 13.0609 15.3582 12.8353 15.2647C12.6097 15.1713 12.4048 15.0343 12.2321 14.8617C12.0594 14.689 11.9225 14.484 11.829 14.2584C11.7356 14.0328 11.6875 13.7911 11.6875 13.5469C11.6875 13.3027 11.7356 13.0609 11.829 12.8353C11.9225 12.6097 12.0594 12.4048 12.2321 12.2321C12.4048 12.0594 12.6097 11.9225 12.8353 11.829C13.0609 11.7356 13.3027 11.6875 13.5469 11.6875C14.04 11.6875 14.513 11.8834 14.8617 12.2321C15.2104 12.5808 15.4062 13.0537 15.4062 13.5469C15.4062 14.04 15.2104 14.513 14.8617 14.8617C14.513 15.2104 14.04 15.4062 13.5469 15.4062Z"/>
</svg>
