<svg viewBox="0 0 17 17" xmlns="http://www.w3.org/2000/svg"><g clip-path="url(#clip0_1_10784)"><path d="M13.635 0H1.24C.56 0 0 .56 0 1.24v12.395c0 .68.56 1.24 1.24 1.24h5.673a5.925 5.925 0 01-.538-2.48 6.025 6.025 0 016.02-6.02c.886 0 1.722.191 2.48.538V1.24c0-.68-.56-1.24-1.24-1.24zm-3.329 6.332a.568.568 0 01-.212.043.527.527 0 01-.361-.142L7.437 4.094l-2.295 2.14a.536.536 0 01-.573.098.537.537 0 01-.319-.488V1.062h6.375v4.782a.537.537 0 01-.319.488z"/><path d="M16.001 9.541a4.707 4.707 0 00-.75-.75 4.568 4.568 0 00-2.855-1 4.613 4.613 0 00-4.605 4.605c0 1.076.376 2.075 1 2.854.219.277.474.532.75.751.78.623 1.778.999 2.855.999A4.613 4.613 0 0017 12.396a4.568 4.568 0 00-1-2.856zm-3.605 6.396a3.481 3.481 0 01-2.097-.694 3.15 3.15 0 01-.75-.75 3.482 3.482 0 01-.695-2.097 3.543 3.543 0 013.542-3.542c.786 0 1.508.255 2.096.694.29.206.546.46.751.751.44.588.694 1.31.694 2.097a3.543 3.543 0 01-3.541 3.541z"/><path d="M16.001 9.541l-.758.758-4.944 4.944-.758.758a4.699 4.699 0 01-.75-.75l.757-.758 4.945-4.945.758-.758c.276.22.53.475.75.751z"/></g><defs><clipPath id="clip0_1_10784"><path fill="#fff" d="M0 0h17v17H0z"/></clipPath></defs></svg>