<svg viewBox="0 0 17 17" xmlns="http://www.w3.org/2000/svg"><path d="M13.547 3.719H3.52a1.926 1.926 0 00-1.926 1.926v5.246a1.86 1.86 0 001.86 1.859h.265v1.318a1.338 1.338 0 001.339 1.338h6.885a1.338 1.338 0 001.338-1.338V12.75h.266a1.86 1.86 0 001.86-1.86V5.579a1.86 1.86 0 00-1.86-1.86zm-1.328 10.349a.277.277 0 01-.276.276H5.058a.278.278 0 01-.277-.276V8.776a.278.278 0 01.277-.276h6.885a.277.277 0 01.276.276v5.292zm.863-7.165a.797.797 0 11-.17-1.585.797.797 0 01.17 1.585zm-1.66-5.309H5.578a1.863 1.863 0 00-1.84 1.593h9.524a1.863 1.863 0 00-1.84-1.593z"/></svg>