<svg viewBox="0 0 20 20" xmlns="http://www.w3.org/2000/svg"><rect width="20" height="20" rx="10" fill="#1EBEC8"/><path d="M13.667 6.429h-1V6.07c0-.284-.106-.556-.293-.757A.968.968 0 0011.666 5H8.333a.968.968 0 00-.707.314 1.118 1.118 0 00-.293.757v.358h-1c-.353 0-.692.15-.942.418S5 7.478 5 7.857v5.714c0 .38.14.743.39 1.01.25.269.59.419.943.419h7.334c.353 0 .692-.15.943-.418.25-.268.39-.632.39-1.01V7.856c0-.379-.14-.742-.39-1.01a1.291 1.291 0 00-.943-.418zm-2 4.642h-1.334V12.5a.37.37 0 01-.097.252.322.322 0 01-.236.105.322.322 0 01-.236-.104.37.37 0 01-.097-.253v-1.429H8.333a.322.322 0 01-.235-.104.37.37 0 01-.098-.253.37.37 0 01.098-.252.323.323 0 01.235-.105h1.334V8.93a.37.37 0 01.097-.253.322.322 0 01.236-.105c.088 0 .173.038.236.105a.37.37 0 01.097.253v1.428h1.334c.088 0 .173.038.235.105a.37.37 0 01.098.252.37.37 0 01-.098.253.322.322 0 01-.235.104zM12 6.43H8v-.36a.37.37 0 01.098-.252.322.322 0 01.235-.105h3.334c.088 0 .173.038.235.105A.37.37 0 0112 6.07v.358z" fill="#fff"/></svg>