<svg viewBox="0 0 17 17" xmlns="http://www.w3.org/2000/svg"><path d="M14.855 9.428l-1.53.366c-.191.05-.375.127-.545.231l-1.244-.767a2.898 2.898 0 000-1.515l1.244-.768c.17.104.354.182.546.23 0 0 1.674.393 1.746.393a.935.935 0 00.924-.947.937.937 0 00-.709-.9l-1.531-.369a.13.13 0 01-.082-.062.132.132 0 01-.017-.102l.365-1.537a.932.932 0 10-1.812-.43l-.365 1.537c-.043.192-.057.39-.042.587l-1.244.77a3.087 3.087 0 00-1.095-.61V4.063c.177-.09.339-.206.48-.345L11.057 2.6a.94.94 0 000-1.326.93.93 0 00-1.32 0l-1.112 1.12a.131.131 0 01-.186 0L7.326 1.275a.93.93 0 00-1.32 0 .941.941 0 000 1.326l1.112 1.117c.142.139.304.255.48.345v1.472a3.088 3.088 0 00-1.092.613L5.26 5.375a2.003 2.003 0 00-.041-.592L4.853 3.25a.933.933 0 10-1.814.435l.364 1.537a.132.132 0 01-.016.101.13.13 0 01-.082.063l-1.53.364a.938.938 0 00.216 1.85c.072 0 1.746-.392 1.746-.392a2.02 2.02 0 00.546-.231l1.244.768a2.898 2.898 0 000 1.514l-1.244.768a1.995 1.995 0 00-.546-.23l-1.53-.367a.938.938 0 10-.432 1.82l1.53.366a.13.13 0 01.082.063.13.13 0 01.016.1l-.364 1.538a.933.933 0 101.815.438l.364-1.538c.043-.194.057-.394.041-.592l1.247-.77c.319.277.69.486 1.093.613v1.47c-.177.09-.339.206-.48.345l-1.113 1.116a.941.941 0 000 1.326.93.93 0 001.32 0l1.112-1.118a.131.131 0 01.186 0l1.112 1.118a.93.93 0 001.32 0 .941.941 0 000-1.326l-1.113-1.117a1.974 1.974 0 00-.479-.345v-1.471a3.088 3.088 0 001.092-.614l1.244.77c-.015.199-.001.398.042.592l.364 1.538a.933.933 0 101.815-.438l-.364-1.537a.132.132 0 01.016-.101.13.13 0 01.082-.063l1.53-.366a.938.938 0 00-.436-1.824l.006.005zm-6.324.322c-.687 0-1.243-.56-1.243-1.25s.556-1.25 1.243-1.25 1.244.56 1.244 1.25-.557 1.25-1.244 1.25z"/></svg>