<svg viewBox="0 0 17 17" xmlns="http://www.w3.org/2000/svg"><path d="M14.344 5.844h-3.719V2.125A1.594 1.594 0 009.031.531H2.656a1.594 1.594 0 00-1.594 1.594v13.813a.531.531 0 00.532.53h3.453a.266.266 0 00.266-.265v-2.376c0-.286.22-.53.505-.545a.531.531 0 01.557.53v2.391a.266.266 0 00.266.266h8.765a.531.531 0 00.531-.532v-8.5a1.594 1.594 0 00-1.593-1.593zM3.257 14.339a.532.532 0 11-.138-1.053.532.532 0 01.138 1.053zm0-2.656a.531.531 0 11-.139-1.053.531.531 0 01.139 1.053zm0-2.656a.531.531 0 11-.138-1.054.531.531 0 01.138 1.054zm0-2.656a.531.531 0 11-.158-1.051.531.531 0 01.158 1.05zm0-2.657a.531.531 0 11-.158-1.05.531.531 0 01.158 1.05zm2.656 7.97a.531.531 0 11-.138-1.054.531.531 0 01.138 1.053zm0-2.657a.531.531 0 11-.138-1.054.531.531 0 01.138 1.054zm0-2.656a.531.531 0 11.247-.943.531.531 0 01-.247.943zm0-2.657a.531.531 0 11.247-.942.531.531 0 01-.247.943zM8.57 14.34a.531.531 0 11-.138-1.054.531.531 0 01.138 1.053zm0-2.657a.531.531 0 11-.138-1.053.531.531 0 01.138 1.053zm0-2.656a.531.531 0 11-.138-1.054.531.531 0 01.138 1.054zm0-2.656a.531.531 0 11.248-.943.531.531 0 01-.248.943zm0-2.657a.531.531 0 11.248-.942.531.531 0 01-.248.943zm6.173 11.692h-4.117v-8.5h3.719a.531.531 0 01.531.532v7.836a.133.133 0 01-.133.132z"/><path d="M13.281 13.281a.531.531 0 100 1.063.531.531 0 000-1.063zm0-2.656a.531.531 0 100 1.063.531.531 0 000-1.063zm0-2.656a.531.531 0 100 1.062.531.531 0 000-1.062zm-2.125 5.312a.531.531 0 100 1.063.531.531 0 000-1.063zm0-2.656a.531.531 0 100 1.063.531.531 0 000-1.063zm0-2.656a.531.531 0 100 1.062.531.531 0 000-1.062z"/></svg>