<svg viewBox="0 0 17 17" xmlns="http://www.w3.org/2000/svg"><path d="M7.847 8.764V16a.421.421 0 01-.115-.063L2.73 12.855a1.463 1.463 0 01-.537-.552c-.134-.24-.2-.513-.192-.788V5.154l5.846 3.61zM15 5.154v6.384a1.68 1.68 0 01-.208.75c-.12.235-.304.429-.53.559l-5.001 3.082-.108.055V8.756l2.505-1.577v2.184a.68.68 0 00.191.474.645.645 0 00.924 0 .679.679 0 00.191-.474V6.415L15 5.154zm-3.98.906L8.5 7.637 2.615 4.01l.085-.055L5.05 2.67l5.97 3.39zm3.357-2.065l-2.082 1.277-5.87-3.374 1.276-.685C7.935 1.073 8.2 1 8.47 1c.27.006.535.082.769.22l4.97 2.728a.37.37 0 01.17.047z"/></svg>