<svg viewBox="0 0 17 17" xmlns="http://www.w3.org/2000/svg"><path d="M14.344 3.188H12.75v-.532a1.595 1.595 0 00-1.594-1.594H5.844A1.595 1.595 0 004.25 2.657v.531H2.656A2.127 2.127 0 00.531 5.313v8.5a2.125 2.125 0 002.125 2.124h11.688a2.125 2.125 0 002.125-2.124v-8.5a2.127 2.127 0 00-2.125-2.125zm-3.188 6.906H9.031v2.125a.531.531 0 01-1.062 0v-2.125H5.844a.531.531 0 010-1.063h2.125V6.906a.531.531 0 111.062 0v2.125h2.125a.531.531 0 110 1.063zm.531-6.906H5.314v-.532a.531.531 0 01.53-.531h5.313a.531.531 0 01.531.531v.531z"/></svg>