<svg viewBox="0 0 17 17" xmlns="http://www.w3.org/2000/svg"><path d="M14.116 2.924l-.02-.02A6.457 6.457 0 009.5 1a6.457 6.457 0 00-4.596 1.903A6.457 6.457 0 003 7.5a6.46 6.46 0 001.904 4.597l.022.021A6.458 6.458 0 009.5 14h.014a6.46 6.46 0 004.582-1.903A6.46 6.46 0 0016 7.514a6.459 6.459 0 00-1.884-4.59zm-4.614 7.653a.46.46 0 11.001-.922.46.46 0 01-.001.922zm.85-2.712c-.376.293-.395.495-.403.923a.46.46 0 01-.46.452H9.48a.46.46 0 01-.45-.47c.008-.446.019-1.058.759-1.634l.003-.002c.533-.409.537-.892.536-.946a.221.221 0 010-.062c0-.03 0-.304-.176-.494-.131-.14-.345-.218-.635-.23-.372.002-.63.089-.764.26-.185.233-.146.625-.116.756.095.321-.073.53-.323.584-.25.055-.503-.038-.57-.364-.022-.092-.208-.913.282-1.541.318-.41.823-.617 1.5-.617h.015c.556.02.993.201 1.298.54.4.444.412.994.407 1.135.005.196-.028 1.045-.894 1.71zm-6.116 4.864a5.35 5.35 0 01-.61-.729l-2.342 2.346a.964.964 0 00-.284.686.964.964 0 00.967.968.963.963 0 00.683-.283L5 13.364a5.331 5.331 0 01-.746-.617l-.018-.018z"/></svg>