<svg viewBox="0 0 17 17" xmlns="http://www.w3.org/2000/svg"><path d="M15.938 4.25a2.125 2.125 0 00-2.126-2.125h-.53v-.517a.541.541 0 00-.507-.546.531.531 0 00-.556.531v.532H4.78v-.517a.541.541 0 00-.505-.546.531.531 0 00-.557.531v.532h-.531A2.125 2.125 0 001.062 4.25v.398a.133.133 0 00.134.133h14.609a.133.133 0 00.133-.133V4.25zM1.063 13.813a2.125 2.125 0 002.125 2.124h10.624a2.125 2.125 0 002.126-2.124v-7.87a.1.1 0 00-.1-.1H1.162a.1.1 0 00-.1.1v7.87zm11.421-6.907a.797.797 0 110 1.594.797.797 0 010-1.594zm0 2.657a.797.797 0 110 1.594.797.797 0 010-1.595zM9.828 6.905a.797.797 0 110 1.594.797.797 0 010-1.594zm0 2.657a.797.797 0 110 1.593.797.797 0 010-1.594zm0 2.656a.797.797 0 110 1.593.797.797 0 010-1.593zM7.172 9.563a.797.797 0 110 1.593.797.797 0 010-1.594zm0 2.656a.797.797 0 110 1.594.797.797 0 010-1.594zM4.516 9.563a.797.797 0 110 1.593.797.797 0 010-1.594zm0 2.656a.797.797 0 110 1.594.797.797 0 010-1.594z"/></svg>