<svg viewBox="0 0 17 17" xmlns="http://www.w3.org/2000/svg"><path d="M12.854 9.899h-.511a.415.415 0 000 .83h.51a.415.415 0 000-.83zm0 1.328h-.511a.415.415 0 000 .83h.51a.415.415 0 000-.83zm0 1.328h-.511a.415.415 0 000 .83h.51a.415.415 0 000-.83zm-8.708-1.826h.511a.415.415 0 000-.83h-.51a.415.415 0 000 .83zm0 1.328h.511a.415.415 0 000-.83h-.51a.415.415 0 000 .83zm0 1.328h.511a.415.415 0 000-.83h-.51a.415.415 0 000 .83z"/><path d="M15.175 15.536h-.564v-5.73c0-.62-.399-1.162-.991-1.347l-2.204-.686V6.426c0-.777-.633-1.41-1.411-1.41h-3.01c-.778 0-1.411.633-1.411 1.41v1.347l-2.204.686a1.405 1.405 0 00-.991 1.348v5.729h-.564a.415.415 0 000 .83h13.349a.415.415 0 000-.83zM8.5 13.456a.572.572 0 00-.57.572v1.508H7.1v-1.508c0-.773.628-1.401 1.4-1.401.772 0 1.4.628 1.4 1.401v1.508h-.83v-1.508a.572.572 0 00-.57-.571zm1.084-3.27h-.512a.415.415 0 010-.83h.512a.415.415 0 110 .83zm.415.914a.415.415 0 01-.415.415h-.512a.415.415 0 010-.83h.512c.229 0 .415.185.415.415zm-.415-2.242h-.512a.415.415 0 010-.83h.512a.415.415 0 110 .83zm0-1.328h-.512a.415.415 0 010-.83h.512a.415.415 0 110 .83zm-1.656 2.656h-.512a.415.415 0 010-.83h.512a.415.415 0 110 .83zm.415.914a.415.415 0 01-.415.415h-.512a.415.415 0 010-.83h.512c.229 0 .415.185.415.415zm-.415-2.242h-.512a.415.415 0 010-.83h.512a.415.415 0 110 .83zm0-1.328h-.512a.415.415 0 010-.83h.512a.415.415 0 110 .83zM3.219 9.807c0-.256.164-.479.408-.555l1.957-.61v6.894h-.767v-.8a.415.415 0 00-.83 0v.8h-.768v-5.73zm9.795 5.729v-.8a.415.415 0 00-.83 0v.8h-.768V8.642l1.957.61a.578.578 0 01.408.555v5.729h-.767zM3.32 6.323a.414.414 0 00.586 0L5.03 5.2a.415.415 0 00-.587-.587l-.415.414v-1.81a.415.415 0 00-.83 0v1.81l-.415-.414a.415.415 0 00-.587.587l1.123 1.123zm4.89-2.168a.414.414 0 00.587 0L9.92 3.032a.415.415 0 00-.587-.587l-.415.415V1.05a.415.415 0 00-.83 0v1.81l-.415-.415a.415.415 0 00-.587.587L8.21 4.155zm4.887 2.198a.414.414 0 00.587 0l1.123-1.124a.415.415 0 00-.587-.587l-.415.415v-1.81a.415.415 0 00-.83 0v1.81l-.414-.415a.415.415 0 00-.587.587l1.123 1.124z"/></svg>