<svg viewBox="0 0 17 17" xmlns="http://www.w3.org/2000/svg"><path d="M10.645 7.57H6.132a.266.266 0 000 .532h4.513a.266.266 0 000-.532zM7.73 8.899H6.132a.266.266 0 000 .53H7.73a.266.266 0 000-.53zm2.915 0h-1.72a.266.266 0 000 .53h1.72a.266.266 0 000-.53z"/><path d="M15.406 1.575c0-.87-.705-1.575-1.575-1.575H3.169C2.3 0 1.594.705 1.594 1.575v13.85c0 .87.705 1.575 1.575 1.575h10.662c.87 0 1.575-.705 1.575-1.575V1.575zM4.664 14.211H2.943a.466.466 0 010-.93h1.72a.466.466 0 010 .93zm0-10.492H2.943a.466.466 0 010-.93h1.72a.466.466 0 010 .93zm7.156 6.508H5.18V6.774h6.64v3.453z"/></svg>