<svg viewBox="0 0 17 17" xmlns="http://www.w3.org/2000/svg"><path d="M3.453 5.313a1.86 1.86 0 110-3.719 1.86 1.86 0 010 3.718zm5.047 0a1.86 1.86 0 110-3.719 1.86 1.86 0 010 3.718zm5.047 0a1.86 1.86 0 110-3.72 1.86 1.86 0 010 3.72zM3.453 10.36a1.86 1.86 0 110-3.72 1.86 1.86 0 010 3.72zm5.047 0a1.86 1.86 0 110-3.72 1.86 1.86 0 010 3.72zm5.047 0a1.86 1.86 0 110-3.72 1.86 1.86 0 010 3.72zM3.453 15.406a1.858 1.858 0 110-3.716 1.858 1.858 0 010 3.716zm5.047 0a1.858 1.858 0 110-3.716 1.858 1.858 0 010 3.716zm5.047 0a1.858 1.858 0 110-3.717 1.858 1.858 0 010 3.717z"/></svg>