<svg viewBox="0 0 17 17" xmlns="http://www.w3.org/2000/svg"><path d="M3.17 3.452h10.626c.123 0 .247.008.37.024a2.193 2.193 0 00-2.573-1.845L2.855 3.123h-.01a2.192 2.192 0 00-1.363.868 2.908 2.908 0 011.689-.539zm10.626.798H3.171a2.127 2.127 0 00-2.125 2.125v6.375a2.127 2.127 0 002.125 2.125h10.625a2.127 2.127 0 002.125-2.125V6.375a2.128 2.128 0 00-2.125-2.125zm-1.577 6.375a1.063 1.063 0 110-2.125 1.063 1.063 0 010 2.125z"/><path d="M1.063 8.616V5.312c0-.72.398-1.925 1.781-2.187 1.174-.22 2.336-.22 2.336-.22s.764.532.133.532c-.63 0-.615.813 0 .813.614 0 0 .78 0 .78L2.838 7.837l-1.776.78z"/></svg>