<svg viewBox="0 0 17 17" xmlns="http://www.w3.org/2000/svg"><path fill-rule="evenodd" clip-rule="evenodd" d="M14.836 5.367a1.07 1.07 0 01.664.99v7.274a2.315 2.315 0 01-.724 1.681 2.44 2.44 0 01-1.7.688H3.924C2.611 16 1.5 14.895 1.5 13.59V6.356c0-.284.113-.557.315-.757a1.08 1.08 0 01.762-.314H4.73V4.75a3.74 3.74 0 011.104-2.652 3.78 3.78 0 015.33 0A3.74 3.74 0 0112.27 4.75v.536h2.154a1.1 1.1 0 01.413.08zm-8.24-2.511a2.672 2.672 0 00-.788 1.894v.536h5.384V4.75a2.67 2.67 0 00-.788-1.894 2.7 2.7 0 00-3.808 0zm3.17 5.443c.37.156.703.383.983.669a3.004 3.004 0 010 4.259 3.035 3.035 0 01-4.281 0 3.012 3.012 0 01-.914-2.138 2.999 2.999 0 01.887-2.148 3.029 3.029 0 012.16-.882c.4.002.797.084 1.166.24zm.737 4.227c.315-.41.485-.913.484-1.429A2.376 2.376 0 008.61 8.731c-.52 0-1.024.168-1.437.481l3.331 3.314zM6.714 9.669c-.314.41-.484.912-.484 1.428a2.375 2.375 0 002.379 2.366c.518 0 1.023-.168 1.435-.48l-3.33-3.314z"/></svg>