<svg viewBox="0 0 20 20" xmlns="http://www.w3.org/2000/svg"><circle cx="10" cy="10" r="8" fill="#0190DA"/><path fill-rule="evenodd" clip-rule="evenodd" d="M7.159 6.16a.554.554 0 01.39-.16h1.947v2.27c0 .318.127.622.353.845.225.223.53.347.846.347h2.297v4.002a.534.534 0 01-.159.379.555.555 0 01-.39.16H7.55a.554.554 0 01-.39-.16.534.534 0 01-.159-.38V6.54c0-.142.057-.278.159-.38zm5.118 2.302L10.496 6.7v1.57c0 .05.02.099.056.135a.203.203 0 00.143.058h1.582zm-1.898-3.11l.174-.004 3.087 3.056a1.191 1.191 0 01.352.845v4.214c0 .41-.164.802-.455 1.09-.29.288-.684.45-1.093.45H7.549c-.41 0-.803-.162-1.094-.45A1.534 1.534 0 016 13.463V6.54c0-.41.164-.802.455-1.09l3.142-.077-3.142.077C6.746 5.161 7.14 5 7.55 5h2.158c.316 0 .62.125.846.348l-.174.004z" fill="#fff"/></svg>