<svg viewBox="0 0 17 17" xmlns="http://www.w3.org/2000/svg"><path d="M8.5 5.844A2.656 2.656 0 1011.156 8.5 2.664 2.664 0 008.5 5.844zM14.233 8.5a5.53 5.53 0 01-.053.742l1.616 1.265a.384.384 0 01.087.491l-1.53 2.64a.387.387 0 01-.469.164l-1.9-.764c-.396.305-.83.558-1.29.753l-.283 2.019a.397.397 0 01-.383.327H6.97a.398.398 0 01-.382-.317l-.284-2.018a5.627 5.627 0 01-1.289-.753l-1.9.763a.386.386 0 01-.47-.162l-1.53-2.641a.385.385 0 01.087-.49L2.82 9.253a5.795 5.795 0 01-.054-.753c.001-.248.019-.496.054-.742L1.202 6.493a.385.385 0 01-.087-.491l1.53-2.64a.387.387 0 01.47-.164l1.9.764c.396-.305.83-.558 1.29-.753l.283-2.02A.397.397 0 016.97.864h3.059a.399.399 0 01.382.316l.284 2.02c.462.191.896.445 1.29.752l1.9-.764a.387.387 0 01.47.163l1.53 2.641a.384.384 0 01-.088.49L14.18 7.749c.034.249.052.5.053.752z"/></svg>