<svg viewBox="0 0 17 17" xmlns="http://www.w3.org/2000/svg"><path fill-rule="evenodd" clip-rule="evenodd" d="M12.12 3.553c1.473.342 2.037 1.204 2.744 2.39h-2.745v-2.39zm-8.614 2.49c.288 0 .498.14.498.465a.498.498 0 01-.497.498H.498a.498.498 0 000 .996H4.98a.498.498 0 11.002.996H.498a.498.498 0 100 .996h1.096v1.494c0 .275.223.498.498.498h1.001a1.91 1.91 0 003.742 0h5.057a1.91 1.91 0 003.742 0h.868a.498.498 0 00.498-.498V8.5c0-1.461-1.541-1.558-1.543-1.56h-3.836a.498.498 0 01-.498-.499V3.453H2.092a.498.498 0 00-.498.498v1.096H.996a.498.498 0 100 .996h2.51zm10.902 4.916a.913.913 0 11-1.291 1.291.913.913 0 011.291-1.291zm-8.798 0a.913.913 0 11-1.292 1.291.913.913 0 011.292-1.291z"/></svg>