<svg viewBox="0 0 20 20" xmlns="http://www.w3.org/2000/svg"><rect width="20" height="20" rx="10" fill="#FFC971"/><path d="M11.051 4.054a.505.505 0 00-.595.493v1.445a4.018 4.018 0 00-3.359 1.135 3.99 3.99 0 00-1.138 3.348h-1.45a.507.507 0 00-.487.374.5.5 0 00-.008.218c.2 1.08.691 2.085 1.422 2.907a6.062 6.062 0 008.794.262 6.017 6.017 0 001.497-6.048 6.02 6.02 0 00-1.76-2.717 6.05 6.05 0 00-2.916-1.417zm-1.098 6.922a1.007 1.007 0 01-.868-.501H7.938a.505.505 0 01-.503-.502.501.501 0 01.503-.502h1.147c.088-.15.213-.276.364-.363V7.463a.501.501 0 01.504-.502.504.504 0 01.503.502v1.645a1.002 1.002 0 01.47 1.127 1 1 0 01-.973.742zM8.93 4a.505.505 0 01.494.6.501.501 0 01-.686.366.503.503 0 01-.164-.819A.504.504 0 018.931 4zm-2.064.881a.505.505 0 01.494.6.501.501 0 01-.687.366.503.503 0 01.191-.967l.002.001zM5.309 6.38a.505.505 0 01.494.6.501.501 0 01-.686.365.503.503 0 01-.164-.818.504.504 0 01.356-.147zm-.805 2.09a.505.505 0 01.493.6.501.501 0 01-.686.366.503.503 0 01-.164-.819.504.504 0 01.356-.147z" fill="#090909"/></svg>