<svg viewBox="0 0 20 20" xmlns="http://www.w3.org/2000/svg"><rect width="20" height="20" rx="10" fill="#8074C9"/><path d="M10 10.875a.438.438 0 100-.876.438.438 0 000 .876z" fill="#fff"/><path d="M10.656 5.228v-.26a.656.656 0 00-1.312 0v.26a5.223 5.223 0 00-2.31.879l-.288-.29a.657.657 0 00-.93.93l.235.234a5.227 5.227 0 00-1.301 3.457 5.256 5.256 0 005.25 5.25 5.256 5.256 0 005.25-5.25 5.258 5.258 0 00-4.594-5.21zM10 11.75a1.312 1.312 0 01-.438-2.55V7.156a.438.438 0 01.876 0V9.2A1.312 1.312 0 0110 11.75z" fill="#fff"/></svg>