<svg viewBox="0 0 17 17" xmlns="http://www.w3.org/2000/svg"><path d="M8.507 8.19h-7.18A.33.33 0 011 7.86V3.025c0-.08.014-.172.082-.224L4.672.09A.408.408 0 014.916 0c.091 0 .174.037.246.091l3.59 2.71c.068.052.081.145.081.225V7.86a.33.33 0 01-.327.332zm.138 4.51h-2.42v-1.334a.487.487 0 00.485-.126.5.5 0 000-.703l-.628-.635a.488.488 0 00-.694 0l-.63.636a.5.5 0 000 .702.487.487 0 00.486.126v1.83c0 .274.22.497.49.497h2.911a.494.494 0 00.492-.497.494.494 0 00-.492-.496zM16 9.866v6.87c0 .144-.12.264-.262.264h-4.146a.266.266 0 01-.261-.264v-6.87c0-.144.12-.265.261-.265h4.146c.143 0 .262.12.262.265zm-2.755 4.994a.437.437 0 00-.435-.44h-.101a.437.437 0 00-.435.44c0 .243.195.44.435.44h.101c.24 0 .435-.197.435-.44zm0-1.935a.437.437 0 00-.435-.44h-.101a.437.437 0 00-.435.44c0 .243.194.44.435.44h.101c.24 0 .435-.197.435-.44zm0-1.935a.437.437 0 00-.435-.44h-.101a.437.437 0 00-.435.44c0 .243.195.44.435.44h.101c.24 0 .435-.197.435-.44zm1.812 3.87a.437.437 0 00-.435-.44h-.101a.437.437 0 00-.435.44c0 .243.195.44.435.44h.101c.24 0 .435-.197.435-.44zm0-1.935a.437.437 0 00-.435-.44h-.101a.437.437 0 00-.435.44c0 .243.195.44.435.44h.101c.24 0 .435-.197.435-.44zm0-1.935a.437.437 0 00-.435-.44h-.101a.437.437 0 00-.435.44c0 .243.195.44.435.44h.101c.24 0 .435-.197.435-.44zm-1.535-4.863a.487.487 0 00-.484.126.5.5 0 000 .702l.628.636a.488.488 0 00.695 0l.629-.636a.501.501 0 000-.702.487.487 0 00-.485-.126v-1.83a.494.494 0 00-.492-.497h-2.91a.494.494 0 00-.492.497c0 .274.22.496.492.496h2.42v1.334z"/></svg>