<svg viewBox="0 0 17 17" xmlns="http://www.w3.org/2000/svg"><g clip-path="url(#clip0_1_85)"><path d="M6.33 11.412a1.87 1.87 0 00-.931 1.615v3.939c.151-.042.297-.103.434-.182L8.87 15.03a1.87 1.87 0 00.932-1.615V9.91c0-.158-.02-.315-.06-.467l-3.411 1.97zm10.61-8.228l-3.41 1.97a1.87 1.87 0 00-.933 1.614v3.939c.152-.042.297-.103.434-.182l3.037-1.753c.575-.332.932-.95.932-1.615V3.651c0-.158-.02-.315-.06-.467zM9.244 8.58a1.853 1.853 0 00-.374-.285L5.833 6.542a1.87 1.87 0 00-1.864 0L.932 8.295c-.138.08-.263.176-.374.286l3.41 1.969c.378.218.694.516.933.867.238-.35.554-.65.932-.867l3.41-1.97zM3.47 11.412L.06 9.442c-.04.153-.06.31-.06.468v3.506c0 .664.357 1.283.932 1.614l3.037 1.754c.137.079.283.14.434.182v-3.94a1.87 1.87 0 00-.932-1.614zm12.972-9.09a1.853 1.853 0 00-.374-.285L13.031.283a1.87 1.87 0 00-1.864 0L8.13 2.037c-.137.08-.263.175-.374.285l3.411 1.969c.378.218.694.517.932.867.239-.35.555-.65.932-.867l3.411-1.97zM10.67 5.154l-3.412-1.97c-.04.152-.06.309-.06.467v2.53l2.17 1.252a2.868 2.868 0 011.43 2.477v.402l.37.213c.136.079.282.14.433.182v-3.94a1.87 1.87 0 00-.932-1.613z"/></g><defs><clipPath id="clip0_1_85"><path d="M0 0h17v17H0z"/></clipPath></defs></svg>