<svg viewBox="0 0 20 20" xmlns="http://www.w3.org/2000/svg"><rect width="20" height="20" rx="10" fill="#29B6FF"/><path d="M7.06 12.92c.244 1.44-2.28 1.44-2.036 0H7.06zm7.273-4.716a1.115 1.115 0 00-.454-.54 1.375 1.375 0 00-.73-.207h-1.482v2.185h3.217l-.55-1.438zM7.941 12.92c-.245 1.44 2.28 1.44 2.035 0H7.94zM9.583 6H6.25c-.332 0-.65.115-.884.32A1.028 1.028 0 005 7.093v5.099h5.833v-5.1c0-.29-.131-.567-.366-.772A1.347 1.347 0 009.583 6zM15 10.37h-3.333v1.822H15V10.37zm-2.893 2.55c-.244 1.44 2.28 1.44 2.036 0h-2.036z" fill="#fff"/></svg>