<svg xmlns="http://www.w3.org/2000/svg" xmlns:xlink="http://www.w3.org/1999/xlink"><defs>
<clipPath id="clip0_1_85">
<rect width="17" height="17"/>
</clipPath>

<clipPath id="clip0_1_10784">
<rect width="17" height="17" fill="white"/>
</clipPath>
</defs><symbol id="icon-alarm-clock-round" viewBox="0 0 20 20">
<rect width="20" height="20" rx="10" fill="#FFC971"/>
<path d="M11.051 4.0537C10.9784 4.04039 10.9037 4.04314 10.8323 4.06178C10.7609 4.08042 10.6945 4.11448 10.6377 4.16156C10.581 4.20863 10.5353 4.26757 10.504 4.33419C10.4726 4.40082 10.4563 4.47349 10.4563 4.54708V5.99207C9.84658 5.91145 9.22643 5.97186 8.64392 6.16862C8.0614 6.36538 7.53217 6.69321 7.09726 7.12668C6.66235 7.56015 6.33344 8.08763 6.13603 8.66822C5.93862 9.24881 5.878 9.86692 5.9589 10.4746H4.50911C4.43528 10.4747 4.36236 10.4909 4.29552 10.5221C4.22868 10.5534 4.16954 10.5989 4.12231 10.6554C4.07508 10.712 4.0409 10.7782 4.0222 10.8494C4.0035 10.9206 4.00074 10.995 4.0141 11.0674C4.21352 12.1472 4.70532 13.1522 5.43632 13.9737C6.16733 14.7951 7.10972 15.4017 8.16161 15.728C9.21349 16.0542 10.3349 16.0877 11.4044 15.8247C12.474 15.5617 13.4511 15.0123 14.2301 14.2359C15.0091 13.4595 15.5603 12.4857 15.8241 11.4196C16.088 10.3536 16.0544 9.23592 15.7271 8.18751C15.3998 7.1391 14.7911 6.19982 13.9669 5.47123C13.1428 4.74264 12.1345 4.25247 11.051 4.0537ZM9.95273 10.9765C9.77665 10.976 9.60379 10.9294 9.4515 10.8413C9.29922 10.7532 9.17285 10.6268 9.08507 10.4746H7.93844C7.80488 10.4746 7.6768 10.4217 7.58236 10.3276C7.48792 10.2335 7.43487 10.1058 7.43487 9.97271C7.43487 9.83959 7.48792 9.71193 7.58236 9.61781C7.6768 9.52368 7.80488 9.4708 7.93844 9.4708H9.08507C9.17284 9.32044 9.2983 9.19539 9.44915 9.10792V7.46317C9.44915 7.33005 9.50221 7.20239 9.59665 7.10826C9.69109 7.01414 9.81917 6.96126 9.95273 6.96126C10.0863 6.96126 10.2144 7.01414 10.3088 7.10826C10.4032 7.20239 10.4563 7.33005 10.4563 7.46317V9.10792C10.6484 9.2179 10.7986 9.3881 10.8835 9.59201C10.9684 9.79593 10.9833 10.0221 10.9259 10.2353C10.8684 10.4486 10.7418 10.6369 10.5658 10.7709C10.3898 10.905 10.1742 10.9773 9.95273 10.9765ZM8.93148 4C9.03108 4 9.12844 4.02944 9.21125 4.08459C9.29406 4.13974 9.35861 4.21812 9.39672 4.30984C9.43484 4.40155 9.44481 4.50247 9.42538 4.59983C9.40595 4.69719 9.35799 4.78662 9.28756 4.85681C9.21714 4.927 9.12741 4.97481 9.02972 4.99417C8.93204 5.01354 8.83079 5.0036 8.73877 4.96561C8.64676 4.92762 8.56811 4.86329 8.51278 4.78075C8.45744 4.69822 8.42791 4.60118 8.42791 4.50191C8.42791 4.36879 8.48097 4.24113 8.5754 4.14701C8.66984 4.05288 8.79793 4 8.93148 4ZM6.86684 4.88135C6.96643 4.88135 7.06379 4.91079 7.14661 4.96594C7.22942 5.02109 7.29396 5.09948 7.33208 5.19119C7.37019 5.2829 7.38016 5.38382 7.36073 5.48118C7.3413 5.57854 7.29334 5.66797 7.22292 5.73816C7.15249 5.80835 7.06276 5.85616 6.96508 5.87552C6.8674 5.89489 6.76614 5.88495 6.67413 5.84696C6.58211 5.80897 6.50346 5.74464 6.44813 5.6621C6.3928 5.57957 6.36326 5.48253 6.36326 5.38326C6.363 5.25023 6.41573 5.12254 6.50987 5.02824C6.60401 4.93394 6.73186 4.88075 6.86533 4.88035L6.86684 4.88135ZM5.30929 6.37955C5.40888 6.37955 5.50625 6.40898 5.58906 6.46413C5.67187 6.51928 5.73641 6.59767 5.77453 6.68938C5.81264 6.7811 5.82261 6.88201 5.80318 6.97937C5.78375 7.07673 5.73579 7.16616 5.66537 7.23636C5.59494 7.30655 5.50521 7.35435 5.40753 7.37372C5.30985 7.39309 5.20859 7.38315 5.11658 7.34516C5.02456 7.30717 4.94592 7.24284 4.89058 7.1603C4.83525 7.07776 4.80572 6.98072 4.80572 6.88146C4.80572 6.74834 4.85877 6.62068 4.95321 6.52655C5.04765 6.43243 5.17573 6.37955 5.30929 6.37955ZM4.50357 8.471C4.60317 8.471 4.70053 8.50043 4.78334 8.55559C4.86615 8.61074 4.9307 8.68912 4.96881 8.78083C5.00693 8.87255 5.0169 8.97346 4.99747 9.07082C4.97804 9.16818 4.93008 9.25762 4.85965 9.32781C4.78923 9.398 4.6995 9.44581 4.60181 9.46517C4.50413 9.48454 4.40288 9.4746 4.31086 9.43661C4.21885 9.39862 4.1402 9.33429 4.08487 9.25175C4.02953 9.16921 4 9.07218 4 8.97291C4 8.83997 4.05292 8.71246 4.14714 8.61836C4.24136 8.52426 4.36918 8.47126 4.50257 8.471H4.50357Z" fill="#090909"/>
</symbol><symbol id="icon-arrow-dropdown" viewBox="0 0 20 16">
<path fill-rule="evenodd" clip-rule="evenodd" d="M4.21917 5.87534C4.56418 5.44408 5.19347 5.37416 5.62473 5.71917L10 9.21941L14.3753 5.71917C14.8066 5.37416 15.4359 5.44408 15.7809 5.87534C16.1259 6.3066 16.056 6.9359 15.6247 7.28091L10.6247 11.2809C10.2595 11.5731 9.74056 11.5731 9.37534 11.2809L4.37534 7.28091C3.94408 6.9359 3.87416 6.3066 4.21917 5.87534Z"/>
</symbol><symbol id="icon-arrow-profile-card" viewBox="0 0 20 20">
<path d="M15.625 7.1875L10 12.8125L4.375 7.1875" fill="none" stroke-width="2" stroke-linecap="round" stroke-linejoin="round"/>
</symbol><symbol id="icon-auto" viewBox="0 0 17 17">
<path d="M14.8644 7.33125C14.8568 7.29597 14.8457 7.26155 14.8311 7.22854L13.5773 4.301C13.2869 3.62454 12.5843 3.1875 11.7838 3.1875H5.21617C4.41576 3.1875 3.71167 3.62454 3.42267 4.301L2.16751 7.22854C2.13911 7.29453 2.12465 7.36566 2.12501 7.4375V13.2812C2.12501 13.4221 2.18098 13.5573 2.28061 13.6569C2.38023 13.7565 2.51536 13.8125 2.65626 13.8125H3.71876C3.85965 13.8125 3.99478 13.7565 4.09441 13.6569C4.19404 13.5573 4.25001 13.4221 4.25001 13.2812V12.75H12.75V13.2812C12.75 13.4221 12.806 13.5573 12.9056 13.6569C13.0052 13.7565 13.1404 13.8125 13.2813 13.8125H14.3438C14.4847 13.8125 14.6198 13.7565 14.7194 13.6569C14.819 13.5573 14.875 13.4221 14.875 13.2812V7.4375C14.875 7.40182 14.8715 7.36622 14.8644 7.33125ZM4.78126 10.625C4.49946 10.625 4.22921 10.5131 4.02996 10.3138C3.8307 10.1145 3.71876 9.84429 3.71876 9.5625C3.71876 9.28071 3.8307 9.01046 4.02996 8.8112C4.22921 8.61194 4.49946 8.5 4.78126 8.5C5.06305 8.5 5.3333 8.61194 5.53256 8.8112C5.73182 9.01046 5.84376 9.28071 5.84376 9.5625C5.84376 9.84429 5.73182 10.1145 5.53256 10.3138C5.3333 10.5131 5.06305 10.625 4.78126 10.625ZM12.2188 10.625C11.937 10.625 11.6667 10.5131 11.4675 10.3138C11.2682 10.1145 11.1563 9.84429 11.1563 9.5625C11.1563 9.28071 11.2682 9.01046 11.4675 8.8112C11.6667 8.61194 11.937 8.5 12.2188 8.5C12.5005 8.5 12.7708 8.61194 12.9701 8.8112C13.1693 9.01046 13.2813 9.28071 13.2813 9.5625C13.2813 9.84429 13.1693 10.1145 12.9701 10.3138C12.7708 10.5131 12.5005 10.625 12.2188 10.625ZM3.46163 6.90625L4.39876 4.71962C4.51917 4.43913 4.84784 4.25 5.21688 4.25H11.7831C12.1515 4.25 12.4808 4.43913 12.6005 4.71962L13.5384 6.90625H3.46163Z"/>
</symbol><symbol id="icon-bag-prohibit" viewBox="0 0 17 17">
<path fill-rule="evenodd" clip-rule="evenodd" d="M14.836 5.36676C14.9669 5.42071 15.0857 5.49999 15.1855 5.6C15.2857 5.69925 15.365 5.81728 15.419 5.94724C15.473 6.0772 15.5005 6.21652 15.5 6.35714V13.6314C15.4997 13.9457 15.4353 14.2567 15.3108 14.5456C15.1863 14.8345 15.0042 15.0952 14.7756 15.3121C14.3218 15.7529 13.7116 16 13.0769 16H3.92308C2.61067 16 1.5 14.895 1.5 13.5893V6.35714C1.5 6.07298 1.61346 5.80046 1.81542 5.59953C2.01739 5.3986 2.2913 5.28571 2.57692 5.28571H4.73077V4.75C4.73077 3.75544 5.12788 2.80161 5.83475 2.09835C6.54162 1.39509 7.50034 1 8.5 1C9.49966 1 10.4584 1.39509 11.1652 2.09835C11.8721 2.80161 12.2692 3.75544 12.2692 4.75V5.28571H14.4231C14.5647 5.28526 14.7051 5.31281 14.836 5.36676ZM6.59625 2.85596C6.09134 3.35829 5.80769 4.0396 5.80769 4.75V5.28571H11.1923V4.75C11.1923 4.0396 10.9087 3.35829 10.4037 2.85596C9.89884 2.35363 9.21404 2.07143 8.5 2.07143C7.78595 2.07143 7.10115 2.35363 6.59625 2.85596ZM9.76657 8.29882C10.1354 8.45486 10.4693 8.68218 10.7492 8.96762C11.3169 9.53246 11.6358 10.2985 11.6357 11.0973C11.6357 11.8961 11.3167 12.6621 10.749 13.2269C10.1813 13.7918 9.41127 14.109 8.60839 14.109C7.80552 14.109 7.03554 13.7916 6.46784 13.2268C6.18096 12.9484 5.95249 12.6161 5.79568 12.2492C5.63887 11.8823 5.55684 11.488 5.55435 11.0893C5.55187 10.6906 5.62897 10.2954 5.78119 9.92657C5.93341 9.55774 6.15771 9.22265 6.4411 8.94073C6.72448 8.65881 7.06131 8.43567 7.43204 8.28425C7.80277 8.13283 8.20003 8.05615 8.60077 8.05865C9.00152 8.06115 9.39778 8.14279 9.76657 8.29882ZM10.5032 12.5258C10.8175 12.1153 10.9875 11.6134 10.987 11.0974L10.9873 11.0971C10.9873 9.79312 9.92057 8.73069 8.60878 8.73069C8.08988 8.73019 7.5852 8.8994 7.17245 9.21229L10.5032 12.5258ZM6.71405 9.66864C6.39962 10.0792 6.22954 10.5812 6.22999 11.0974L6.23027 11.0971C6.23027 12.4022 7.29786 13.4634 8.60878 13.4634C9.12745 13.4639 9.6319 13.2948 10.0445 12.9821L6.71405 9.66864Z"/>
</symbol><symbol id="icon-bag-round" viewBox="0 0 20 20">
<rect width="20" height="20" rx="10" fill="#FFBE00"/>
<path d="M15.432 7.63167C15.3509 7.54999 15.2543 7.48525 15.148 7.44118C15.0417 7.39712 14.9276 7.37463 14.8125 7.375H13.0625V6.9375C13.0625 6.12527 12.7398 5.34632 12.1655 4.77199C11.5912 4.19766 10.8122 3.875 10 3.875C9.18777 3.875 8.40882 4.19766 7.83449 4.77199C7.26016 5.34632 6.9375 6.12527 6.9375 6.9375V7.375H5.1875C4.95544 7.375 4.73288 7.46719 4.56878 7.63128C4.40469 7.79538 4.3125 8.01794 4.3125 8.25V14.1562C4.3125 15.2226 5.21492 16.125 6.28125 16.125H13.7188C14.2344 16.125 14.7302 15.9232 15.0989 15.5632C15.2847 15.3861 15.4326 15.1731 15.5338 14.9372C15.6349 14.7013 15.6872 14.4474 15.6875 14.1907V8.25C15.6879 8.13516 15.6655 8.02138 15.6217 7.91525C15.5778 7.80911 15.5133 7.71272 15.432 7.63167ZM7.8125 6.9375C7.8125 6.35734 8.04297 5.80094 8.4532 5.3907C8.86344 4.98047 9.41984 4.75 10 4.75C10.5802 4.75 11.1366 4.98047 11.5468 5.3907C11.957 5.80094 12.1875 6.35734 12.1875 6.9375V7.375H7.8125V6.9375Z" fill="black"/>
</symbol><symbol id="icon-boxes" viewBox="0 0 17 17">
<g clip-path="url(#clip0_1_85)">
<path d="M6.33081 11.4124C5.75597 11.7443 5.39883 12.3628 5.39883 13.0266V16.9656C5.55004 16.9237 5.696 16.8627 5.83277 16.7838L8.86959 15.0305C9.44444 14.6986 9.80157 14.08 9.80157 13.4163V9.90961C9.80157 9.75169 9.78138 9.59478 9.7421 9.44287L6.33081 11.4124Z"/>
<path d="M16.9405 3.18408L13.5292 5.15359C12.9544 5.48549 12.5973 6.104 12.5973 6.76779V10.7068C12.7485 10.6649 12.8944 10.604 13.0312 10.525L16.068 8.77164C16.6429 8.43974 17 7.82123 17 7.15743V3.65079C17 3.49287 16.9798 3.33599 16.9405 3.18408Z"/>
<path d="M9.24362 8.58055C9.13272 8.47128 9.00751 8.37502 8.86962 8.2954L5.8328 6.54208C5.25795 6.21018 4.54369 6.21018 3.96884 6.54208L0.932017 8.2954C0.794124 8.37502 0.668915 8.47128 0.557983 8.58055L3.96884 10.5498C4.34639 10.7678 4.66245 11.0665 4.90082 11.4166C5.13918 11.0665 5.45525 10.7677 5.83283 10.5498L9.24362 8.58055Z"/>
<path d="M3.47076 11.4124L0.0594668 9.44293C0.0201543 9.59484 0 9.75172 0 9.90964V13.4163C0 14.08 0.3571 14.6986 0.931979 15.0305L3.9688 16.7838C4.10557 16.8627 4.25153 16.9237 4.40273 16.9656V13.0266C4.40273 12.3628 4.04563 11.7443 3.47076 11.4124Z"/>
<path d="M16.442 2.32169C16.3311 2.21241 16.2059 2.11619 16.068 2.03657L13.0312 0.283213C12.4563 -0.0486521 11.7421 -0.0486853 11.1673 0.283213L8.13044 2.03654C7.99255 2.11616 7.86734 2.21238 7.75644 2.32165L11.1673 4.2909C11.5448 4.50888 11.8609 4.80757 12.0993 5.15766C12.3376 4.80757 12.6537 4.50884 13.0313 4.2909L16.442 2.32169Z"/>
<path d="M10.6692 5.15359L7.25792 3.18408C7.21861 3.33599 7.19846 3.49287 7.19846 3.65079V6.1804L9.36765 7.43279C10.2497 7.94202 10.7977 8.8911 10.7977 9.90967V10.3116L11.1673 10.525C11.304 10.604 11.45 10.6649 11.6012 10.7069V6.76779C11.6012 6.10403 11.2441 5.48549 10.6692 5.15359Z"/>
</g>

</symbol><symbol id="icon-briefcase-plus-round" viewBox="0 0 20 20">
<rect width="20" height="20" rx="10" fill="#1EBEC8"/>
<path d="M13.6667 6.42857H12.6667V6.07143C12.6664 5.78735 12.561 5.51497 12.3735 5.31409C12.186 5.11322 11.9318 5.00025 11.6667 5H8.33333C8.06819 5.00025 7.81397 5.11322 7.62649 5.31409C7.439 5.51497 7.33357 5.78735 7.33333 6.07143V6.42857H6.33333C5.97982 6.42895 5.64089 6.57958 5.39091 6.84741C5.14094 7.11524 5.00035 7.47838 5 7.85714V13.5714C5 13.9503 5.14048 14.3137 5.39052 14.5816C5.64057 14.8495 5.97971 15 6.33333 15H13.6667C14.0203 15 14.3594 14.8495 14.6095 14.5816C14.8595 14.3137 15 13.9503 15 13.5714V7.85714C14.9996 7.47838 14.8591 7.11524 14.6091 6.84741C14.3591 6.57958 14.0202 6.42895 13.6667 6.42857ZM11.6667 11.0714H10.3333V12.5C10.3333 12.5947 10.2982 12.6856 10.2357 12.7525C10.1732 12.8195 10.0884 12.8571 10 12.8571C9.91159 12.8571 9.82681 12.8195 9.7643 12.7525C9.70179 12.6856 9.66667 12.5947 9.66667 12.5V11.0714H8.33333C8.24493 11.0714 8.16014 11.0338 8.09763 10.9668C8.03512 10.8998 8 10.809 8 10.7143C8 10.6196 8.03512 10.5287 8.09763 10.4617C8.16014 10.3948 8.24493 10.3571 8.33333 10.3571H9.66667V8.92857C9.66667 8.83385 9.70179 8.74301 9.7643 8.67603C9.82681 8.60906 9.91159 8.57143 10 8.57143C10.0884 8.57143 10.1732 8.60906 10.2357 8.67603C10.2982 8.74301 10.3333 8.83385 10.3333 8.92857V10.3571H11.6667C11.7551 10.3571 11.8399 10.3948 11.9024 10.4617C11.9649 10.5287 12 10.6196 12 10.7143C12 10.809 11.9649 10.8998 11.9024 10.9668C11.8399 11.0338 11.7551 11.0714 11.6667 11.0714ZM12 6.42857H8V6.07143C8 5.97671 8.03512 5.88587 8.09763 5.81889C8.16014 5.75191 8.24493 5.71429 8.33333 5.71429H11.6667C11.7551 5.71429 11.8399 5.75191 11.9024 5.81889C11.9649 5.88587 12 5.97671 12 6.07143V6.42857Z" fill="white"/>
</symbol><symbol id="icon-briefcase-plus" viewBox="0 0 17 17">
<path d="M14.3438 3.1875H12.75V2.65625C12.7496 2.23368 12.5816 1.82852 12.2828 1.52971C11.984 1.23091 11.5788 1.06288 11.1562 1.0625H5.84375C5.42118 1.06288 5.01602 1.23091 4.71721 1.52971C4.41841 1.82852 4.25038 2.23368 4.25 2.65625V3.1875H2.65625C2.09284 3.18806 1.55266 3.41213 1.15427 3.81052C0.755877 4.20891 0.531813 4.74909 0.53125 5.3125V13.8125C0.53125 14.3761 0.755133 14.9166 1.15365 15.3151C1.55216 15.7136 2.09266 15.9375 2.65625 15.9375H14.3438C14.9073 15.9375 15.4478 15.7136 15.8464 15.3151C16.2449 14.9166 16.4688 14.3761 16.4688 13.8125V5.3125C16.4682 4.74909 16.2441 4.20891 15.8457 3.81052C15.4473 3.41213 14.9072 3.18806 14.3438 3.1875ZM11.1562 10.0938H9.03125V12.2188C9.03125 12.3596 8.97528 12.4948 8.87565 12.5944C8.77602 12.694 8.6409 12.75 8.5 12.75C8.3591 12.75 8.22398 12.694 8.12435 12.5944C8.02472 12.4948 7.96875 12.3596 7.96875 12.2188V10.0938H5.84375C5.70285 10.0938 5.56773 10.0378 5.4681 9.93815C5.36847 9.83852 5.3125 9.7034 5.3125 9.5625C5.3125 9.4216 5.36847 9.28648 5.4681 9.18685C5.56773 9.08722 5.70285 9.03125 5.84375 9.03125H7.96875V6.90625C7.96875 6.76535 8.02472 6.63023 8.12435 6.5306C8.22398 6.43097 8.3591 6.375 8.5 6.375C8.6409 6.375 8.77602 6.43097 8.87565 6.5306C8.97528 6.63023 9.03125 6.76535 9.03125 6.90625V9.03125H11.1562C11.2971 9.03125 11.4323 9.08722 11.5319 9.18685C11.6315 9.28648 11.6875 9.4216 11.6875 9.5625C11.6875 9.7034 11.6315 9.83852 11.5319 9.93815C11.4323 10.0378 11.2971 10.0938 11.1562 10.0938ZM11.6875 3.1875H5.3125V2.65625C5.3125 2.51535 5.36847 2.38023 5.4681 2.2806C5.56773 2.18097 5.70285 2.125 5.84375 2.125H11.1562C11.2971 2.125 11.4323 2.18097 11.5319 2.2806C11.6315 2.38023 11.6875 2.51535 11.6875 2.65625V3.1875Z"/>
</symbol><symbol id="icon-building-arrows" viewBox="0 0 17 17">
<path d="M12.8539 9.89886H12.3426C12.1135 9.89886 11.9276 10.0848 11.9276 10.3139C11.9276 10.543 12.1135 10.7289 12.3426 10.7289H12.8539C13.083 10.7289 13.269 10.543 13.269 10.3139C13.269 10.0848 13.083 9.89886 12.8539 9.89886Z"/>
<path d="M12.8539 11.227H12.3426C12.1135 11.227 11.9276 11.4129 11.9276 11.642C11.9276 11.8711 12.1135 12.0571 12.3426 12.0571H12.8539C13.083 12.0571 13.269 11.8711 13.269 11.642C13.269 11.4129 13.083 11.227 12.8539 11.227Z"/>
<path d="M12.8539 12.5551H12.3426C12.1135 12.5551 11.9276 12.7411 11.9276 12.9702C11.9276 13.1993 12.1135 13.3852 12.3426 13.3852H12.8539C13.083 13.3852 13.269 13.1993 13.269 12.9702C13.269 12.7411 13.083 12.5551 12.8539 12.5551Z"/>
<path d="M4.14609 10.7289H4.65742C4.88652 10.7289 5.07245 10.543 5.07245 10.3139C5.07245 10.0848 4.88652 9.89886 4.65742 9.89886H4.14609C3.91699 9.89886 3.73105 10.0848 3.73105 10.3139C3.73105 10.543 3.91699 10.7289 4.14609 10.7289Z"/>
<path d="M4.14609 12.0571H4.65742C4.88652 12.0571 5.07245 11.8711 5.07245 11.642C5.07245 11.4129 4.88652 11.227 4.65742 11.227H4.14609C3.91699 11.227 3.73105 11.4129 3.73105 11.642C3.73105 11.8711 3.91699 12.0571 4.14609 12.0571Z"/>
<path d="M4.14609 13.3852H4.65742C4.88652 13.3852 5.07245 13.1993 5.07245 12.9702C5.07245 12.7411 4.88652 12.5551 4.65742 12.5551H4.14609C3.91699 12.5551 3.73105 12.7411 3.73105 12.9702C3.73105 13.1993 3.91699 13.3852 4.14609 13.3852Z"/>
<path d="M15.1745 15.5357H14.6107V9.80653C14.6107 9.18563 14.2123 8.64409 13.6196 8.45948L11.4159 7.77251V6.42645C11.4159 5.6485 10.7827 5.01532 10.0048 5.01532H6.99489C6.21694 5.01532 5.58376 5.6485 5.58376 6.42645V7.77251L3.38007 8.45948C2.78739 8.64442 2.38895 9.18563 2.38895 9.80653V15.5357H1.82516C1.59606 15.5357 1.41013 15.7217 1.41013 15.9508C1.41013 16.1799 1.59606 16.3658 1.82516 16.3658H7.51319C7.51319 16.3658 7.51386 16.3658 7.51419 16.3658H9.48579C9.48579 16.3658 9.48645 16.3658 9.48679 16.3658H15.1745C15.4036 16.3658 15.5895 16.1799 15.5895 15.9508C15.5895 15.7217 15.4036 15.5357 15.1745 15.5357ZM8.49999 13.4569C8.18522 13.4569 7.92923 13.7132 7.92923 14.028V15.5357H7.09915V14.028C7.09915 13.2553 7.72768 12.6268 8.49999 12.6268C9.27229 12.6268 9.90083 13.2553 9.90083 14.028V15.5357H9.07075V14.028C9.07075 13.7132 8.81475 13.4569 8.49999 13.4569ZM9.58374 10.1864H9.07241C8.84331 10.1864 8.65737 10.0004 8.65737 9.77134C8.65737 9.54223 8.84331 9.3563 9.07241 9.3563H9.58374C9.81284 9.3563 9.99878 9.5419 9.99878 9.77134C9.99878 10.0008 9.81284 10.1864 9.58374 10.1864ZM9.99878 11.0995C9.99878 11.3286 9.81284 11.5145 9.58374 11.5145H9.07241C8.84331 11.5145 8.65737 11.3286 8.65737 11.0995C8.65737 10.8704 8.84331 10.6844 9.07241 10.6844H9.58374C9.81284 10.6844 9.99878 10.87 9.99878 11.0995ZM9.58374 8.85825H9.07241C8.84331 8.85825 8.65737 8.67231 8.65737 8.44321C8.65737 8.21411 8.84331 8.02817 9.07241 8.02817H9.58374C9.81284 8.02817 9.99878 8.21378 9.99878 8.44321C9.99878 8.67264 9.81284 8.85825 9.58374 8.85825ZM9.58374 7.53012H9.07241C8.84331 7.53012 8.65737 7.34419 8.65737 7.11509C8.65737 6.88598 8.84331 6.70005 9.07241 6.70005H9.58374C9.81284 6.70005 9.99878 6.88565 9.99878 7.11509C9.99878 7.34452 9.81284 7.53012 9.58374 7.53012ZM7.92757 10.1864H7.41624C7.18714 10.1864 7.0012 10.0004 7.0012 9.77134C7.0012 9.54223 7.18714 9.3563 7.41624 9.3563H7.92757C8.15667 9.3563 8.34261 9.5419 8.34261 9.77134C8.34261 10.0008 8.15667 10.1864 7.92757 10.1864ZM8.34261 11.0995C8.34261 11.3286 8.15667 11.5145 7.92757 11.5145H7.41624C7.18714 11.5145 7.0012 11.3286 7.0012 11.0995C7.0012 10.8704 7.18714 10.6844 7.41624 10.6844H7.92757C8.15667 10.6844 8.34261 10.87 8.34261 11.0995ZM7.92757 8.85825H7.41624C7.18714 8.85825 7.0012 8.67231 7.0012 8.44321C7.0012 8.21411 7.18714 8.02817 7.41624 8.02817H7.92757C8.15667 8.02817 8.34261 8.21378 8.34261 8.44321C8.34261 8.67264 8.15667 8.85825 7.92757 8.85825ZM7.92757 7.53012H7.41624C7.18714 7.53012 7.0012 7.34419 7.0012 7.11509C7.0012 6.88598 7.18714 6.70005 7.41624 6.70005H7.92757C8.15667 6.70005 8.34261 6.88565 8.34261 7.11509C8.34261 7.34452 8.15667 7.53012 7.92757 7.53012ZM3.21936 9.80653C3.21936 9.55087 3.38339 9.32807 3.62743 9.25171L5.58409 8.64176V15.5357H4.81677V14.7362C4.81677 14.5071 4.63083 14.3212 4.40173 14.3212C4.17263 14.3212 3.98669 14.5071 3.98669 14.7362V15.5357H3.21936V9.80653ZM13.0136 15.5357V14.7362C13.0136 14.5071 12.8277 14.3212 12.5986 14.3212C12.3695 14.3212 12.1835 14.5071 12.1835 14.7362V15.5357H11.4162V8.64176L13.3729 9.25171C13.6169 9.32774 13.7809 9.55087 13.7809 9.80653V15.5357H13.0136Z"/>
<path d="M3.31931 6.32289C3.40032 6.4039 3.50657 6.44441 3.61282 6.44441C3.71907 6.44441 3.82532 6.4039 3.90634 6.32289L5.0296 5.19963C5.19163 5.0376 5.19163 4.77463 5.0296 4.6126C4.86757 4.45056 4.6046 4.45056 4.44257 4.6126L4.02786 5.0273V3.21674C4.02786 2.98763 3.84193 2.8017 3.61282 2.8017C3.38372 2.8017 3.19779 2.98763 3.19779 3.21674V5.0273L2.78308 4.6126C2.62105 4.45056 2.35808 4.45056 2.19605 4.6126C2.03402 4.77463 2.03402 5.0376 2.19605 5.19963L3.31931 6.32289Z"/>
<path d="M8.20948 4.15535C8.29049 4.23636 8.39674 4.27687 8.50299 4.27687C8.60924 4.27687 8.71549 4.23636 8.79651 4.15535L9.91977 3.03208C10.0818 2.87005 10.0818 2.60708 9.91977 2.44505C9.75774 2.28302 9.49477 2.28302 9.33274 2.44505L8.91803 2.85976V1.04919C8.91803 0.820093 8.73209 0.634155 8.50299 0.634155C8.27389 0.634155 8.08795 0.820093 8.08795 1.04919V2.85976L7.67325 2.44505C7.51121 2.28302 7.24825 2.28302 7.08621 2.44505C6.92418 2.60708 6.92418 2.87005 7.08621 3.03208L8.20948 4.15535Z"/>
<path d="M13.097 6.35273C13.178 6.43375 13.2842 6.47426 13.3905 6.47426C13.4967 6.47426 13.603 6.43375 13.684 6.35273L14.8073 5.22947C14.9693 5.06744 14.9693 4.80447 14.8073 4.64244C14.6452 4.48041 14.3823 4.48041 14.2202 4.64244L13.8055 5.05715V3.24658C13.8055 3.01748 13.6196 2.83154 13.3905 2.83154C13.1614 2.83154 12.9754 3.01748 12.9754 3.24658V5.05715L12.5607 4.64244C12.3987 4.48041 12.1357 4.48041 11.9737 4.64244C11.8117 4.80447 11.8117 5.06744 11.9737 5.22947L13.097 6.35273Z"/>
</symbol><symbol id="icon-building" viewBox="0 0 17 17">
<path d="M14.3438 5.84375H10.625V2.125C10.625 1.70231 10.4571 1.29693 10.1582 0.998049C9.85931 0.699162 9.45394 0.53125 9.03125 0.53125H2.65625C2.23356 0.53125 1.82818 0.699162 1.5293 0.998049C1.23041 1.29693 1.0625 1.70231 1.0625 2.125V15.9375C1.0625 16.0784 1.11847 16.2135 1.2181 16.3132C1.31773 16.4128 1.45285 16.4688 1.59375 16.4688H5.04688C5.11732 16.4688 5.18489 16.4408 5.2347 16.391C5.28451 16.3411 5.3125 16.2736 5.3125 16.2031V13.8274C5.3125 13.5412 5.53208 13.2961 5.81825 13.282C5.89002 13.2787 5.96171 13.29 6.029 13.3152C6.09629 13.3404 6.15779 13.3789 6.2098 13.4285C6.26181 13.478 6.30326 13.5376 6.33165 13.6036C6.36004 13.6696 6.37479 13.7407 6.375 13.8125V16.2031C6.375 16.2736 6.40299 16.3411 6.4528 16.391C6.50261 16.4408 6.57018 16.4688 6.64062 16.4688H15.4062C15.5471 16.4688 15.6823 16.4128 15.7819 16.3132C15.8815 16.2135 15.9375 16.0784 15.9375 15.9375V7.4375C15.9375 7.01481 15.7696 6.60943 15.4707 6.31055C15.1718 6.01166 14.7664 5.84375 14.3438 5.84375ZM3.25692 14.3395C3.11715 14.3578 2.97583 14.3199 2.86404 14.234C2.75226 14.1481 2.67917 14.0213 2.66085 13.8816C2.64254 13.7418 2.68049 13.6005 2.76637 13.4887C2.85225 13.3769 2.97902 13.3038 3.11879 13.2855C3.25856 13.2672 3.39988 13.3051 3.51166 13.391C3.62345 13.4769 3.69654 13.6037 3.71485 13.7434C3.73317 13.8832 3.69521 14.0245 3.60933 14.1363C3.52345 14.2481 3.39669 14.3212 3.25692 14.3395ZM3.25692 11.6832C3.18771 11.6923 3.11739 11.6877 3.04999 11.6696C2.98258 11.6515 2.91939 11.6203 2.86404 11.5777C2.80869 11.5352 2.76226 11.4822 2.7274 11.4217C2.69254 11.3613 2.66992 11.2945 2.66085 11.2253C2.65178 11.1561 2.65644 11.0858 2.67454 11.0184C2.69265 10.951 2.72385 10.8878 2.76637 10.8324C2.8089 10.7771 2.86191 10.7307 2.92237 10.6958C2.98284 10.6609 3.04958 10.6383 3.11879 10.6292C3.25856 10.6109 3.39988 10.6489 3.51166 10.7348C3.62345 10.8206 3.69654 10.9474 3.71485 11.0872C3.73317 11.227 3.69521 11.3683 3.60933 11.4801C3.52345 11.5918 3.39669 11.6649 3.25692 11.6832ZM3.25692 9.027C3.18771 9.03607 3.11739 9.03142 3.04999 9.01331C2.98258 8.99521 2.91939 8.964 2.86404 8.92148C2.80869 8.87896 2.76226 8.82595 2.7274 8.76548C2.69254 8.70501 2.66992 8.63827 2.66085 8.56906C2.65178 8.49986 2.65644 8.42954 2.67454 8.36213C2.69265 8.29472 2.72385 8.23154 2.76637 8.17619C2.8089 8.12084 2.86191 8.07441 2.92237 8.03954C2.98284 8.00468 3.04958 7.98207 3.11879 7.973C3.25856 7.95468 3.39988 7.99264 3.51166 8.07852C3.62345 8.1644 3.69654 8.29117 3.71485 8.43094C3.73317 8.57071 3.69521 8.71203 3.60933 8.82381C3.52345 8.93559 3.39669 9.00868 3.25692 9.027ZM3.25692 6.37075C3.18709 6.38125 3.11587 6.37773 3.04742 6.36039C2.97898 6.34305 2.91467 6.31224 2.85827 6.26976C2.80187 6.22728 2.7545 6.17398 2.71893 6.11298C2.68337 6.05198 2.66033 5.9845 2.65114 5.91449C2.64196 5.84447 2.64683 5.77334 2.66546 5.70523C2.6841 5.63712 2.71612 5.57341 2.75966 5.51782C2.8032 5.46223 2.85739 5.41588 2.91905 5.38148C2.98072 5.34708 3.04862 5.32531 3.11879 5.31746C3.25708 5.30198 3.39593 5.34138 3.50548 5.42719C3.61502 5.513 3.68653 5.63836 3.70462 5.77634C3.72272 5.91431 3.68595 6.05387 3.60223 6.16503C3.51851 6.27618 3.39452 6.35005 3.25692 6.37075ZM3.25692 3.7145C3.18709 3.725 3.11587 3.72148 3.04742 3.70414C2.97898 3.6868 2.91467 3.65599 2.85827 3.61351C2.80187 3.57103 2.7545 3.51773 2.71893 3.45673C2.68337 3.39573 2.66033 3.32825 2.65114 3.25824C2.64196 3.18822 2.64683 3.11709 2.66546 3.04898C2.6841 2.98087 2.71612 2.91716 2.75966 2.86157C2.8032 2.80598 2.85739 2.75963 2.91905 2.72523C2.98072 2.69083 3.04862 2.66906 3.11879 2.66121C3.25708 2.64573 3.39593 2.68513 3.50548 2.77094C3.61502 2.85675 3.68653 2.98211 3.70462 3.12009C3.72272 3.25806 3.68595 3.39762 3.60223 3.50878C3.51851 3.61993 3.39452 3.6938 3.25692 3.7145ZM5.91317 11.6832C5.84396 11.6923 5.77364 11.6877 5.70623 11.6696C5.63883 11.6515 5.57564 11.6203 5.52029 11.5777C5.46494 11.5352 5.41851 11.4822 5.38365 11.4217C5.34879 11.3613 5.32617 11.2945 5.3171 11.2253C5.30803 11.1561 5.31269 11.0858 5.33079 11.0184C5.3489 10.951 5.3801 10.8878 5.42262 10.8324C5.46515 10.7771 5.51816 10.7307 5.57862 10.6958C5.63909 10.6609 5.70583 10.6383 5.77504 10.6292C5.91481 10.611 6.05609 10.6491 6.16781 10.735C6.27953 10.821 6.35253 10.9478 6.37075 11.0875C6.38897 11.2273 6.35093 11.3686 6.26498 11.4803C6.17903 11.592 6.05294 11.665 5.91317 11.6832ZM5.91317 9.027C5.84396 9.03607 5.77364 9.03142 5.70623 9.01331C5.63883 8.99521 5.57564 8.964 5.52029 8.92148C5.46494 8.87896 5.41851 8.82595 5.38365 8.76548C5.34879 8.70501 5.32617 8.63827 5.3171 8.56906C5.30803 8.49986 5.31269 8.42954 5.33079 8.36213C5.3489 8.29472 5.3801 8.23154 5.42262 8.17619C5.46515 8.12084 5.51816 8.07441 5.57862 8.03954C5.63909 8.00468 5.70583 7.98207 5.77504 7.973C5.84425 7.96398 5.91455 7.96867 5.98195 7.98682C6.04934 8.00497 6.11249 8.03621 6.16781 8.07877C6.22313 8.12133 6.26952 8.17436 6.30434 8.23485C6.33916 8.29533 6.36173 8.36208 6.37075 8.43129C6.37977 8.5005 6.37508 8.5708 6.35693 8.6382C6.33878 8.70559 6.30754 8.76874 6.26498 8.82406C6.22242 8.87938 6.16939 8.92577 6.1089 8.96059C6.04842 8.99541 5.98237 9.01798 5.91317 9.027ZM5.91317 6.37075C5.84334 6.38125 5.77212 6.37773 5.70367 6.36039C5.63523 6.34305 5.57092 6.31224 5.51452 6.26976C5.45812 6.22728 5.41075 6.17398 5.37519 6.11298C5.33962 6.05198 5.31658 5.9845 5.30739 5.91449C5.29821 5.84447 5.30308 5.77334 5.32171 5.70523C5.34035 5.63712 5.37237 5.57341 5.41591 5.51782C5.45945 5.46223 5.51364 5.41588 5.5753 5.38148C5.63697 5.34708 5.70487 5.32531 5.77504 5.31746C5.91303 5.30268 6.05132 5.34249 6.16034 5.42836C6.26935 5.51423 6.34044 5.63935 6.3584 5.77696C6.37635 5.91457 6.33974 6.05374 6.2564 6.16471C6.17307 6.27568 6.05033 6.34963 5.91317 6.37075ZM5.91317 3.7145C5.84334 3.725 5.77212 3.72148 5.70367 3.70414C5.63523 3.6868 5.57092 3.65599 5.51452 3.61351C5.45812 3.57103 5.41075 3.51773 5.37519 3.45673C5.33962 3.39573 5.31658 3.32825 5.30739 3.25824C5.29821 3.18822 5.30308 3.11709 5.32171 3.04898C5.34035 2.98087 5.37237 2.91716 5.41591 2.86157C5.45945 2.80598 5.51364 2.75963 5.5753 2.72523C5.63697 2.69083 5.70487 2.66906 5.77504 2.66121C5.91303 2.64643 6.05132 2.68624 6.16034 2.77211C6.26935 2.85798 6.34044 2.9831 6.3584 3.12071C6.37635 3.25832 6.33974 3.39749 6.2564 3.50846C6.17307 3.61943 6.05033 3.69338 5.91317 3.7145ZM8.56942 14.3395C8.50021 14.3486 8.42989 14.3439 8.36248 14.3258C8.29508 14.3077 8.23189 14.2765 8.17654 14.234C8.12119 14.1915 8.07476 14.1384 8.0399 14.078C8.00503 14.0175 7.98242 13.9508 7.97335 13.8816C7.96428 13.8124 7.96894 13.742 7.98704 13.6746C8.00515 13.6072 8.03635 13.544 8.07887 13.4887C8.1214 13.4333 8.17441 13.3869 8.23487 13.352C8.29534 13.3172 8.36208 13.2946 8.43129 13.2855C8.57106 13.2673 8.71234 13.3053 8.82406 13.3913C8.93578 13.4772 9.00878 13.604 9.027 13.7438C9.04522 13.8836 9.00718 14.0248 8.92123 14.1366C8.83528 14.2483 8.70919 14.3213 8.56942 14.3395ZM8.56942 11.6832C8.50021 11.6923 8.42989 11.6877 8.36248 11.6696C8.29508 11.6515 8.23189 11.6203 8.17654 11.5777C8.12119 11.5352 8.07476 11.4822 8.0399 11.4217C8.00503 11.3613 7.98242 11.2945 7.97335 11.2253C7.96428 11.1561 7.96894 11.0858 7.98704 11.0184C8.00515 10.951 8.03635 10.8878 8.07887 10.8324C8.1214 10.7771 8.17441 10.7307 8.23487 10.6958C8.29534 10.6609 8.36208 10.6383 8.43129 10.6292C8.57106 10.611 8.71234 10.6491 8.82406 10.735C8.93578 10.821 9.00878 10.9478 9.027 11.0875C9.04522 11.2273 9.00718 11.3686 8.92123 11.4803C8.83528 11.592 8.70919 11.665 8.56942 11.6832ZM8.56942 9.027C8.50021 9.03607 8.42989 9.03142 8.36248 9.01331C8.29508 8.99521 8.23189 8.964 8.17654 8.92148C8.12119 8.87896 8.07476 8.82595 8.0399 8.76548C8.00503 8.70501 7.98242 8.63827 7.97335 8.56906C7.96428 8.49986 7.96894 8.42954 7.98704 8.36213C8.00515 8.29472 8.03635 8.23154 8.07887 8.17619C8.1214 8.12084 8.17441 8.07441 8.23487 8.03954C8.29534 8.00468 8.36208 7.98207 8.43129 7.973C8.5005 7.96398 8.5708 7.96867 8.6382 7.98682C8.70559 8.00497 8.76874 8.03621 8.82406 8.07877C8.87938 8.12133 8.92577 8.17436 8.96059 8.23485C8.99541 8.29533 9.01798 8.36208 9.027 8.43129C9.03602 8.5005 9.03133 8.5708 9.01318 8.6382C8.99503 8.70559 8.96379 8.76874 8.92123 8.82406C8.87867 8.87938 8.82564 8.92577 8.76515 8.96059C8.70467 8.99541 8.63862 9.01798 8.56942 9.027ZM8.56942 6.37075C8.49959 6.38125 8.42837 6.37773 8.35992 6.36039C8.29148 6.34305 8.22717 6.31224 8.17077 6.26976C8.11437 6.22728 8.067 6.17398 8.03143 6.11298C7.99587 6.05198 7.97283 5.9845 7.96364 5.91449C7.95446 5.84447 7.95933 5.77334 7.97796 5.70523C7.9966 5.63712 8.02862 5.57341 8.07216 5.51782C8.1157 5.46223 8.16989 5.41588 8.23155 5.38148C8.29322 5.34708 8.36112 5.32531 8.43129 5.31746C8.56928 5.30268 8.70757 5.34249 8.81659 5.42836C8.9256 5.51423 8.99669 5.63935 9.01465 5.77696C9.0326 5.91457 8.99599 6.05374 8.91265 6.16471C8.82932 6.27568 8.70658 6.34963 8.56942 6.37075ZM8.56942 3.7145C8.49959 3.725 8.42837 3.72148 8.35992 3.70414C8.29148 3.6868 8.22717 3.65599 8.17077 3.61351C8.11437 3.57103 8.067 3.51773 8.03143 3.45673C7.99587 3.39573 7.97283 3.32825 7.96364 3.25824C7.95446 3.18822 7.95933 3.11709 7.97796 3.04898C7.9966 2.98087 8.02862 2.91716 8.07216 2.86157C8.1157 2.80598 8.16989 2.75963 8.23155 2.72523C8.29322 2.69083 8.36112 2.66906 8.43129 2.66121C8.56928 2.64643 8.70757 2.68624 8.81659 2.77211C8.9256 2.85798 8.99669 2.9831 9.01465 3.12071C9.0326 3.25832 8.99599 3.39749 8.91265 3.50846C8.82932 3.61943 8.70658 3.69338 8.56942 3.7145ZM14.7418 15.4062H10.625V6.90625H14.3438C14.4846 6.90625 14.6198 6.96222 14.7194 7.06185C14.819 7.16148 14.875 7.2966 14.875 7.4375V15.2738C14.8748 15.309 14.8607 15.3427 14.8357 15.3675C14.8108 15.3923 14.777 15.4062 14.7418 15.4062Z"/>
<path d="M13.2812 13.2812C13.1404 13.2812 13.0052 13.3372 12.9056 13.4368C12.806 13.5365 12.75 13.6716 12.75 13.8125C12.75 13.9534 12.806 14.0885 12.9056 14.1882C13.0052 14.2878 13.1404 14.3438 13.2812 14.3438C13.4221 14.3438 13.5573 14.2878 13.6569 14.1882C13.7565 14.0885 13.8125 13.9534 13.8125 13.8125C13.8125 13.6716 13.7565 13.5365 13.6569 13.4368C13.5573 13.3372 13.4221 13.2812 13.2812 13.2812Z"/>
<path d="M13.2812 10.625C13.1404 10.625 13.0052 10.681 12.9056 10.7806C12.806 10.8802 12.75 11.0154 12.75 11.1562C12.75 11.2971 12.806 11.4323 12.9056 11.5319C13.0052 11.6315 13.1404 11.6875 13.2812 11.6875C13.4221 11.6875 13.5573 11.6315 13.6569 11.5319C13.7565 11.4323 13.8125 11.2971 13.8125 11.1562C13.8125 11.0154 13.7565 10.8802 13.6569 10.7806C13.5573 10.681 13.4221 10.625 13.2812 10.625Z"/>
<path d="M13.2812 7.96875C13.1404 7.96875 13.0052 8.02472 12.9056 8.12435C12.806 8.22398 12.75 8.3591 12.75 8.5C12.75 8.6409 12.806 8.77602 12.9056 8.87565C13.0052 8.97528 13.1404 9.03125 13.2812 9.03125C13.4221 9.03125 13.5573 8.97528 13.6569 8.87565C13.7565 8.77602 13.8125 8.6409 13.8125 8.5C13.8125 8.3591 13.7565 8.22398 13.6569 8.12435C13.5573 8.02472 13.4221 7.96875 13.2812 7.96875Z"/>
<path d="M11.1562 13.2812C11.0154 13.2812 10.8802 13.3372 10.7806 13.4368C10.681 13.5365 10.625 13.6716 10.625 13.8125C10.625 13.9534 10.681 14.0885 10.7806 14.1882C10.8802 14.2878 11.0154 14.3438 11.1562 14.3438C11.2971 14.3438 11.4323 14.2878 11.5319 14.1882C11.6315 14.0885 11.6875 13.9534 11.6875 13.8125C11.6875 13.6716 11.6315 13.5365 11.5319 13.4368C11.4323 13.3372 11.2971 13.2812 11.1562 13.2812Z"/>
<path d="M11.1562 10.625C11.0154 10.625 10.8802 10.681 10.7806 10.7806C10.681 10.8802 10.625 11.0154 10.625 11.1562C10.625 11.2971 10.681 11.4323 10.7806 11.5319C10.8802 11.6315 11.0154 11.6875 11.1562 11.6875C11.2971 11.6875 11.4323 11.6315 11.5319 11.5319C11.6315 11.4323 11.6875 11.2971 11.6875 11.1562C11.6875 11.0154 11.6315 10.8802 11.5319 10.7806C11.4323 10.681 11.2971 10.625 11.1562 10.625Z"/>
<path d="M11.1562 7.96875C11.0154 7.96875 10.8802 8.02472 10.7806 8.12435C10.681 8.22398 10.625 8.3591 10.625 8.5C10.625 8.6409 10.681 8.77602 10.7806 8.87565C10.8802 8.97528 11.0154 9.03125 11.1562 9.03125C11.2971 9.03125 11.4323 8.97528 11.5319 8.87565C11.6315 8.77602 11.6875 8.6409 11.6875 8.5C11.6875 8.3591 11.6315 8.22398 11.5319 8.12435C11.4323 8.02472 11.2971 7.96875 11.1562 7.96875Z"/>
</symbol><symbol id="icon-burger" viewBox="0 0 40 40">
<g fill="none">
<path d="M6.25 12.5H33.75" stroke-width="2.875" stroke-linecap="round"/>
<path d="M6.25 20H33.75" stroke-width="2.875" stroke-linecap="round"/>
<path d="M6.25 27.5H33.75" stroke-width="2.875" stroke-linecap="round"/>
</g>
</symbol><symbol id="icon-calendar" viewBox="0 0 17 17">
<path d="M15.9375 4.25C15.9375 3.68642 15.7136 3.14591 15.3151 2.7474C14.9166 2.34889 14.3761 2.125 13.8125 2.125H13.2813V1.60792C13.2813 1.32175 13.0617 1.07667 12.7755 1.0625C12.7037 1.05905 12.6319 1.07021 12.5645 1.09532C12.4971 1.12042 12.4356 1.15894 12.3835 1.20855C12.3315 1.25815 12.29 1.3178 12.2617 1.3839C12.2334 1.44999 12.2188 1.52114 12.2188 1.59304V2.125H4.78125V1.60792C4.78125 1.32175 4.56167 1.07667 4.2755 1.0625C4.20368 1.05905 4.13191 1.07021 4.06453 1.09532C3.99715 1.12042 3.93557 1.15894 3.88351 1.20855C3.83146 1.25815 3.79002 1.3178 3.76169 1.3839C3.73337 1.44999 3.71876 1.52114 3.71875 1.59304V2.125H3.1875C2.62392 2.125 2.08341 2.34889 1.6849 2.7474C1.28639 3.14591 1.0625 3.68642 1.0625 4.25V4.64809C1.06241 4.6656 1.06579 4.68296 1.07245 4.69916C1.07911 4.71536 1.08891 4.73007 1.1013 4.74246C1.11368 4.75484 1.1284 4.76465 1.1446 4.77131C1.1608 4.77797 1.17815 4.78135 1.19567 4.78125H15.805C15.8402 4.78106 15.8739 4.76695 15.8987 4.742C15.9236 4.71705 15.9375 4.68328 15.9375 4.64809V4.25Z"/>
<path d="M1.0625 13.8125C1.0625 14.3761 1.28638 14.9166 1.6849 15.3151C2.08341 15.7136 2.62391 15.9375 3.1875 15.9375H13.8125C14.3761 15.9375 14.9166 15.7136 15.3151 15.3151C15.7136 14.9166 15.9375 14.3761 15.9375 13.8125V5.94292C15.9375 5.91662 15.9271 5.89139 15.9085 5.8728C15.8899 5.8542 15.8646 5.84375 15.8383 5.84375H1.16167C1.13537 5.84375 1.11014 5.8542 1.09155 5.8728C1.07295 5.89139 1.0625 5.91662 1.0625 5.94292V13.8125ZM12.4844 6.90625C12.6957 6.90625 12.8984 6.99021 13.0479 7.13965C13.1973 7.28909 13.2812 7.49178 13.2812 7.70312C13.2812 7.91447 13.1973 8.11716 13.0479 8.2666C12.8984 8.41604 12.6957 8.5 12.4844 8.5C12.273 8.5 12.0703 8.41604 11.9209 8.2666C11.7715 8.11716 11.6875 7.91447 11.6875 7.70312C11.6875 7.49178 11.7715 7.28909 11.9209 7.13965C12.0703 6.99021 12.273 6.90625 12.4844 6.90625ZM12.4844 9.5625C12.6957 9.5625 12.8984 9.64646 13.0479 9.7959C13.1973 9.94534 13.2812 10.148 13.2812 10.3594C13.2812 10.5707 13.1973 10.7734 13.0479 10.9229C12.8984 11.0723 12.6957 11.1562 12.4844 11.1562C12.273 11.1562 12.0703 11.0723 11.9209 10.9229C11.7715 10.7734 11.6875 10.5707 11.6875 10.3594C11.6875 10.148 11.7715 9.94534 11.9209 9.7959C12.0703 9.64646 12.273 9.5625 12.4844 9.5625ZM9.82812 6.90625C10.0395 6.90625 10.2422 6.99021 10.3916 7.13965C10.541 7.28909 10.625 7.49178 10.625 7.70312C10.625 7.91447 10.541 8.11716 10.3916 8.2666C10.2422 8.41604 10.0395 8.5 9.82812 8.5C9.61678 8.5 9.41409 8.41604 9.26465 8.2666C9.11521 8.11716 9.03125 7.91447 9.03125 7.70312C9.03125 7.49178 9.11521 7.28909 9.26465 7.13965C9.41409 6.99021 9.61678 6.90625 9.82812 6.90625ZM9.82812 9.5625C10.0395 9.5625 10.2422 9.64646 10.3916 9.7959C10.541 9.94534 10.625 10.148 10.625 10.3594C10.625 10.5707 10.541 10.7734 10.3916 10.9229C10.2422 11.0723 10.0395 11.1562 9.82812 11.1562C9.61678 11.1562 9.41409 11.0723 9.26465 10.9229C9.11521 10.7734 9.03125 10.5707 9.03125 10.3594C9.03125 10.148 9.11521 9.94534 9.26465 9.7959C9.41409 9.64646 9.61678 9.5625 9.82812 9.5625ZM9.82812 12.2188C10.0395 12.2188 10.2422 12.3027 10.3916 12.4521C10.541 12.6016 10.625 12.8043 10.625 13.0156C10.625 13.227 10.541 13.4297 10.3916 13.5791C10.2422 13.7285 10.0395 13.8125 9.82812 13.8125C9.61678 13.8125 9.41409 13.7285 9.26465 13.5791C9.11521 13.4297 9.03125 13.227 9.03125 13.0156C9.03125 12.8043 9.11521 12.6016 9.26465 12.4521C9.41409 12.3027 9.61678 12.2188 9.82812 12.2188ZM7.17188 9.5625C7.38322 9.5625 7.58591 9.64646 7.73535 9.7959C7.88479 9.94534 7.96875 10.148 7.96875 10.3594C7.96875 10.5707 7.88479 10.7734 7.73535 10.9229C7.58591 11.0723 7.38322 11.1562 7.17188 11.1562C6.96053 11.1562 6.75784 11.0723 6.6084 10.9229C6.45896 10.7734 6.375 10.5707 6.375 10.3594C6.375 10.148 6.45896 9.94534 6.6084 9.7959C6.75784 9.64646 6.96053 9.5625 7.17188 9.5625ZM7.17188 12.2188C7.38322 12.2188 7.58591 12.3027 7.73535 12.4521C7.88479 12.6016 7.96875 12.8043 7.96875 13.0156C7.96875 13.227 7.88479 13.4297 7.73535 13.5791C7.58591 13.7285 7.38322 13.8125 7.17188 13.8125C6.96053 13.8125 6.75784 13.7285 6.6084 13.5791C6.45896 13.4297 6.375 13.227 6.375 13.0156C6.375 12.8043 6.45896 12.6016 6.6084 12.4521C6.75784 12.3027 6.96053 12.2188 7.17188 12.2188ZM4.51562 9.5625C4.72697 9.5625 4.92966 9.64646 5.0791 9.7959C5.22854 9.94534 5.3125 10.148 5.3125 10.3594C5.3125 10.5707 5.22854 10.7734 5.0791 10.9229C4.92966 11.0723 4.72697 11.1562 4.51562 11.1562C4.30428 11.1562 4.10159 11.0723 3.95215 10.9229C3.80271 10.7734 3.71875 10.5707 3.71875 10.3594C3.71875 10.148 3.80271 9.94534 3.95215 9.7959C4.10159 9.64646 4.30428 9.5625 4.51562 9.5625ZM4.51562 12.2188C4.72697 12.2188 4.92966 12.3027 5.0791 12.4521C5.22854 12.6016 5.3125 12.8043 5.3125 13.0156C5.3125 13.227 5.22854 13.4297 5.0791 13.5791C4.92966 13.7285 4.72697 13.8125 4.51562 13.8125C4.30428 13.8125 4.10159 13.7285 3.95215 13.5791C3.80271 13.4297 3.71875 13.227 3.71875 13.0156C3.71875 12.8043 3.80271 12.6016 3.95215 12.4521C4.10159 12.3027 4.30428 12.2188 4.51562 12.2188Z"/>
</symbol><symbol id="icon-check" viewBox="0 0 18 19">
<path d="M14.625 5L6.75 14L3.375 10.625" stroke="white" fill="none" stroke-width="2" stroke-linecap="round" stroke-linejoin="round"/>
</symbol><symbol id="icon-cross-indent-round" viewBox="0 0 20 20">
<path d="M10 2C5.58892 2 2 5.58892 2 10C2 14.4111 5.58892 18 10 18C14.4111 18 18 14.4111 18 10C18 5.58892 14.4111 2 10 2ZM12.8964 12.0267C12.9569 12.083 13.0054 12.1509 13.039 12.2264C13.0726 12.3019 13.0907 12.3834 13.0922 12.466C13.0936 12.5487 13.0784 12.6307 13.0475 12.7074C13.0165 12.784 12.9705 12.8536 12.912 12.912C12.8536 12.9705 12.784 13.0165 12.7074 13.0475C12.6307 13.0784 12.5487 13.0936 12.466 13.0922C12.3834 13.0907 12.3019 13.0726 12.2264 13.039C12.1509 13.0054 12.083 12.9569 12.0267 12.8964L10 10.8697L7.97333 12.8964C7.85668 13.0051 7.70238 13.0643 7.54296 13.0615C7.38353 13.0587 7.23142 12.9941 7.11867 12.8813C7.00592 12.7686 6.94134 12.6165 6.93852 12.457C6.93571 12.2976 6.99489 12.1433 7.10359 12.0267L9.13026 10L7.10359 7.97333C6.99489 7.85668 6.93571 7.70238 6.93852 7.54296C6.94134 7.38353 7.00592 7.23142 7.11867 7.11867C7.23142 7.00592 7.38353 6.94134 7.54296 6.93852C7.70238 6.93571 7.85668 6.99489 7.97333 7.10359L10 9.13026L12.0267 7.10359C12.1433 6.99489 12.2976 6.93571 12.457 6.93852C12.6165 6.94134 12.7686 7.00592 12.8813 7.11867C12.9941 7.23142 13.0587 7.38353 13.0615 7.54296C13.0643 7.70238 13.0051 7.85668 12.8964 7.97333L10.8697 10L12.8964 12.0267Z" fill="#FF0000"/>
</symbol><symbol id="icon-cross-round" viewBox="0 0 52 52">
<path d="M26 0C11.664 0 0 11.664 0 26C0 40.336 11.664 52 26 52C40.336 52 52 40.336 52 26C52 11.664 40.336 0 26 0ZM35.4133 32.5867C35.6098 32.7698 35.7674 32.9906 35.8768 33.2359C35.9861 33.4812 36.0448 33.7461 36.0496 34.0146C36.0543 34.2831 36.0049 34.5499 35.9043 34.7989C35.8037 35.048 35.654 35.2742 35.4641 35.4641C35.2742 35.654 35.048 35.8037 34.7989 35.9043C34.5499 36.0049 34.2831 36.0543 34.0146 36.0496C33.7461 36.0448 33.4812 35.9861 33.2359 35.8768C32.9906 35.7674 32.7698 35.6098 32.5867 35.4133L26 28.8267L19.4133 35.4133C19.0342 35.7666 18.5327 35.9589 18.0146 35.9498C17.4965 35.9407 17.0021 35.7308 16.6357 35.3643C16.2692 34.9979 16.0593 34.5035 16.0502 33.9854C16.0411 33.4673 16.2334 32.9658 16.5867 32.5867L23.1733 26L16.5867 19.4133C16.2334 19.0342 16.0411 18.5327 16.0502 18.0146C16.0593 17.4965 16.2692 17.0021 16.6357 16.6357C17.0021 16.2692 17.4965 16.0593 18.0146 16.0502C18.5327 16.0411 19.0342 16.2334 19.4133 16.5867L26 23.1733L32.5867 16.5867C32.9658 16.2334 33.4673 16.0411 33.9854 16.0502C34.5035 16.0593 34.9979 16.2692 35.3643 16.6357C35.7308 17.0021 35.9407 17.4965 35.9498 18.0146C35.9589 18.5327 35.7666 19.0342 35.4133 19.4133L28.8267 26L35.4133 32.5867Z" fill="#FF0000"/>
</symbol><symbol id="icon-doc-indent-round" viewBox="0 0 20 20">
<circle cx="10" cy="10" r="8" fill="#0190DA"/>
<path fill-rule="evenodd" clip-rule="evenodd" d="M7.15904 6.1595C7.26161 6.05793 7.40174 6 7.54888 6H9.49571V8.2699C9.49571 8.58775 9.62325 8.89158 9.84869 9.11483C10.074 9.33792 10.3785 9.46238 10.695 9.46238H12.9925V13.4635C12.9925 13.6048 12.9359 13.7413 12.8335 13.8428C12.7309 13.9443 12.5908 14.0023 12.4436 14.0023H7.54888C7.40174 14.0023 7.26161 13.9443 7.15904 13.8428C7.05663 13.7413 7 13.6048 7 13.4635V6.53872C7 6.39742 7.05663 6.26092 7.15904 6.1595ZM12.2773 8.46238L10.4957 6.69858V8.2699C10.4957 8.31937 10.5155 8.36781 10.5523 8.40429C10.5893 8.44094 10.6406 8.46238 10.695 8.46238H12.2773ZM10.3793 5.35235L10.553 5.34808L13.6396 8.40396L13.6398 8.40413C13.7514 8.51469 13.8401 8.6462 13.9007 8.79127C13.9613 8.93629 13.9926 9.09187 13.9925 9.2491V9.24933V13.4635C13.9925 13.8732 13.8281 14.2651 13.5371 14.5533C13.2463 14.8413 12.8529 15.0023 12.4436 15.0023H7.54888C7.13965 15.0023 6.74622 14.8413 6.45538 14.5533C6.16438 14.2651 6 13.8732 6 13.4635V6.53872C6 6.12905 6.16438 5.73715 6.45538 5.44897L9.59679 5.37162C9.59684 5.37155 9.5969 5.37148 9.59695 5.3714L6.45538 5.44897C6.74622 5.16095 7.13965 5 7.54888 5H9.70677H9.7072C10.0235 5.00028 10.3277 5.12482 10.5527 5.34781L10.3791 5.35209C10.3791 5.35218 10.3792 5.35227 10.3793 5.35235Z" fill="white"/>
</symbol><symbol id="icon-done-indent-round" viewBox="0 0 20 20">
<path d="M10 2C5.58892 2 2 5.58892 2 10C2 14.4111 5.58892 18 10 18C14.4111 18 18 14.4111 18 10C18 5.58892 14.4111 2 10 2ZM14.1633 7.31856L8.99405 13.4724C8.93749 13.54 8.86703 13.5947 8.78745 13.6326C8.70788 13.6706 8.62107 13.6909 8.53292 13.6923H8.52226C8.43608 13.6923 8.35086 13.6742 8.27213 13.6391C8.1934 13.604 8.12291 13.5528 8.06523 13.4888L5.84985 11.0273C5.75183 10.9219 5.69381 10.7855 5.68584 10.6418C5.67788 10.4981 5.72048 10.3561 5.80624 10.2405C5.89201 10.1249 6.01554 10.043 6.15539 10.0089C6.29525 9.9749 6.4426 9.9909 6.5719 10.0542C6.64574 10.0911 6.71138 10.1419 6.7639 10.2035L8.50585 12.1399L13.2213 6.52759C13.3281 6.40917 13.4767 6.33683 13.6358 6.32579C13.7948 6.31476 13.952 6.3659 14.0741 6.46843C14.1962 6.57097 14.2737 6.7169 14.2904 6.87548C14.307 7.03406 14.2614 7.19291 14.1633 7.31856Z" fill="#008000"/>
</symbol><symbol id="icon-done-round" viewBox="0 0 20 20">
<rect width="20" height="20" rx="10" fill="#44D453"/>
<path d="M10 4.3125C6.864 4.3125 4.3125 6.864 4.3125 10C4.3125 13.136 6.864 15.6875 10 15.6875C13.136 15.6875 15.6875 13.136 15.6875 10C15.6875 6.864 13.136 4.3125 10 4.3125ZM12.9598 8.09367L9.28483 12.4687C9.24462 12.5167 9.19453 12.5556 9.13796 12.5826C9.08138 12.6095 9.01967 12.624 8.957 12.625H8.94942C8.88815 12.625 8.82757 12.6121 8.77159 12.5872C8.71562 12.5623 8.66551 12.5259 8.6245 12.4803L7.0495 10.7303C6.97982 10.6554 6.93857 10.5584 6.9329 10.4563C6.92724 10.3541 6.95753 10.2532 7.0185 10.171C7.07948 10.0888 7.1673 10.0306 7.26672 10.0064C7.36615 9.98216 7.47091 9.99353 7.56283 10.0385C7.61533 10.0647 7.662 10.1009 7.69933 10.1447L8.93775 11.5213L12.2902 7.53133C12.3661 7.44715 12.4717 7.39571 12.5848 7.38787C12.6979 7.38002 12.8096 7.41638 12.8964 7.48928C12.9832 7.56217 13.0384 7.66592 13.0502 7.77866C13.062 7.89141 13.0296 8.00434 12.9598 8.09367Z" fill="white"/>
</symbol><symbol id="icon-dots" viewBox="0 0 17 17">
<path d="M3.45312 5.3125C3.20895 5.3125 2.96716 5.26441 2.74157 5.17096C2.51598 5.07752 2.31101 4.94056 2.13835 4.7679C1.96569 4.59524 1.82873 4.39027 1.73529 4.16468C1.64184 3.93909 1.59375 3.6973 1.59375 3.45312C1.59375 3.20895 1.64184 2.96716 1.73529 2.74157C1.82873 2.51598 1.96569 2.31101 2.13835 2.13835C2.31101 1.96569 2.51598 1.82873 2.74157 1.73529C2.96716 1.64184 3.20895 1.59375 3.45312 1.59375C3.94626 1.59375 4.4192 1.78965 4.7679 2.13835C5.1166 2.48705 5.3125 2.95999 5.3125 3.45312C5.3125 3.94626 5.1166 4.4192 4.7679 4.7679C4.4192 5.1166 3.94626 5.3125 3.45312 5.3125Z"/>
<path d="M8.5 5.3125C8.25582 5.3125 8.01404 5.26441 7.78845 5.17096C7.56286 5.07752 7.35788 4.94056 7.18522 4.7679C7.01256 4.59524 6.8756 4.39027 6.78216 4.16468C6.68872 3.93909 6.64062 3.6973 6.64062 3.45312C6.64062 3.20895 6.68872 2.96716 6.78216 2.74157C6.8756 2.51598 7.01256 2.31101 7.18522 2.13835C7.35788 1.96569 7.56286 1.82873 7.78845 1.73529C8.01404 1.64184 8.25582 1.59375 8.5 1.59375C8.99314 1.59375 9.46608 1.78965 9.81478 2.13835C10.1635 2.48705 10.3594 2.95999 10.3594 3.45312C10.3594 3.94626 10.1635 4.4192 9.81478 4.7679C9.46608 5.1166 8.99314 5.3125 8.5 5.3125Z"/>
<path d="M13.5469 5.3125C13.3027 5.3125 13.0609 5.26441 12.8353 5.17096C12.6097 5.07752 12.4048 4.94056 12.2321 4.7679C12.0594 4.59524 11.9225 4.39027 11.829 4.16468C11.7356 3.93909 11.6875 3.6973 11.6875 3.45312C11.6875 3.20895 11.7356 2.96716 11.829 2.74157C11.9225 2.51598 12.0594 2.31101 12.2321 2.13835C12.4048 1.96569 12.6097 1.82873 12.8353 1.73529C13.0609 1.64184 13.3027 1.59375 13.5469 1.59375C14.04 1.59375 14.513 1.78965 14.8617 2.13835C15.2104 2.48705 15.4062 2.95999 15.4062 3.45312C15.4062 3.94626 15.2104 4.4192 14.8617 4.7679C14.513 5.1166 14.04 5.3125 13.5469 5.3125Z"/>
<path d="M3.45312 10.3594C2.95999 10.3594 2.48705 10.1635 2.13835 9.81478C1.78965 9.46608 1.59375 8.99314 1.59375 8.5C1.59375 8.00686 1.78965 7.53392 2.13835 7.18522C2.48705 6.83652 2.95999 6.64063 3.45312 6.64062C3.94626 6.64063 4.4192 6.83652 4.7679 7.18522C5.1166 7.53392 5.3125 8.00686 5.3125 8.5C5.3125 8.99314 5.1166 9.46608 4.7679 9.81478C4.4192 10.1635 3.94626 10.3594 3.45312 10.3594Z"/>
<path d="M8.5 10.3594C8.00686 10.3594 7.53392 10.1635 7.18522 9.81478C6.83652 9.46608 6.64063 8.99314 6.64062 8.5C6.64062 8.00686 6.83652 7.53392 7.18522 7.18522C7.53392 6.83652 8.00686 6.64063 8.5 6.64062C8.99314 6.64063 9.46608 6.83652 9.81478 7.18522C10.1635 7.53392 10.3594 8.00686 10.3594 8.5C10.3594 8.99314 10.1635 9.46608 9.81478 9.81478C9.46608 10.1635 8.99314 10.3594 8.5 10.3594Z"/>
<path d="M13.5469 10.3594C13.0537 10.3594 12.5808 10.1635 12.2321 9.81478C11.8834 9.46608 11.6875 8.99314 11.6875 8.5C11.6875 8.00686 11.8834 7.53392 12.2321 7.18522C12.5808 6.83652 13.0537 6.64063 13.5469 6.64062C14.04 6.64063 14.513 6.83652 14.8617 7.18522C15.2104 7.53392 15.4062 8.00686 15.4062 8.5C15.4062 8.99314 15.2104 9.46608 14.8617 9.81478C14.513 10.1635 14.04 10.3594 13.5469 10.3594Z"/>
<path d="M3.45312 15.4062C3.20895 15.4062 2.96716 15.3582 2.74157 15.2647C2.51598 15.1713 2.31101 15.0343 2.13835 14.8617C1.96569 14.689 1.82873 14.484 1.73529 14.2584C1.64184 14.0328 1.59375 13.7911 1.59375 13.5469C1.59375 13.3027 1.64184 13.0609 1.73529 12.8353C1.82873 12.6097 1.96569 12.4048 2.13835 12.2321C2.31101 12.0594 2.51598 11.9225 2.74157 11.829C2.96716 11.7356 3.20895 11.6875 3.45312 11.6875C3.94626 11.6875 4.4192 11.8834 4.7679 12.2321C5.1166 12.5808 5.3125 13.0537 5.3125 13.5469C5.3125 14.04 5.1166 14.513 4.7679 14.8617C4.4192 15.2104 3.94626 15.4062 3.45312 15.4062Z"/>
<path d="M8.5 15.4062C8.25582 15.4062 8.01404 15.3582 7.78845 15.2647C7.56286 15.1713 7.35788 15.0343 7.18522 14.8617C7.01256 14.689 6.8756 14.484 6.78216 14.2584C6.68872 14.0328 6.64062 13.7911 6.64062 13.5469C6.64062 13.3027 6.68872 13.0609 6.78216 12.8353C6.8756 12.6097 7.01256 12.4048 7.18522 12.2321C7.35788 12.0594 7.56286 11.9225 7.78845 11.829C8.01404 11.7356 8.25582 11.6875 8.5 11.6875C8.99314 11.6875 9.46608 11.8834 9.81478 12.2321C10.1635 12.5808 10.3594 13.0537 10.3594 13.5469C10.3594 14.04 10.1635 14.513 9.81478 14.8617C9.46608 15.2104 8.99314 15.4062 8.5 15.4062Z"/>
<path d="M13.5469 15.4062C13.3027 15.4062 13.0609 15.3582 12.8353 15.2647C12.6097 15.1713 12.4048 15.0343 12.2321 14.8617C12.0594 14.689 11.9225 14.484 11.829 14.2584C11.7356 14.0328 11.6875 13.7911 11.6875 13.5469C11.6875 13.3027 11.7356 13.0609 11.829 12.8353C11.9225 12.6097 12.0594 12.4048 12.2321 12.2321C12.4048 12.0594 12.6097 11.9225 12.8353 11.829C13.0609 11.7356 13.3027 11.6875 13.5469 11.6875C14.04 11.6875 14.513 11.8834 14.8617 12.2321C15.2104 12.5808 15.4062 13.0537 15.4062 13.5469C15.4062 14.04 15.2104 14.513 14.8617 14.8617C14.513 15.2104 14.04 15.4062 13.5469 15.4062Z"/>
</symbol><symbol id="icon-fast-truck" viewBox="0 0 17 17">
<path fill-rule="evenodd" clip-rule="evenodd" d="M12.1191 3.55325C13.593 3.89527 14.1569 4.75713 14.8637 5.94336H12.1191V3.55325ZM3.50552 6.04297C3.79411 6.04297 4.00357 6.18227 4.00357 6.50781C4.00357 6.78239 3.78139 7.00508 3.50695 7.00586H0.498047C0.222954 7.00586 0 7.22894 0 7.50391C0 7.779 0.222954 8.00195 0.498047 8.00195H4.98047C5.25816 8.00195 5.48046 8.22478 5.48046 8.5C5.48046 8.77509 5.25751 8.99805 4.98241 8.99805H0.498047C0.222954 8.99805 0 9.221 0 9.49609C0 9.77119 0.222954 9.99414 0.498047 9.99414H1.59375V11.4883C1.59375 11.7634 1.8167 11.9863 2.0918 11.9863H3.09295C3.27142 12.8654 4.04819 13.5137 4.96387 13.5137C5.87955 13.5137 6.65632 12.8654 6.83479 11.9863H11.8918C12.0702 12.8654 12.847 13.5137 13.7627 13.5137C14.6784 13.5137 15.4551 12.8654 15.6336 11.9863H16.502C16.777 11.9863 17 11.7634 17 11.4883V8.5C17 7.03867 15.4586 6.94166 15.4572 6.93945H11.6211C11.346 6.93945 11.123 6.7165 11.123 6.44141V3.45312H2.0918C1.8167 3.45312 1.59375 3.67608 1.59375 3.95117V5.04688H0.996094C0.721001 5.04688 0.498047 5.26983 0.498047 5.54492C0.498047 5.82001 0.721001 6.04297 0.996094 6.04297H3.50552ZM14.4083 10.9588C14.7649 11.3154 14.7649 11.8937 14.4083 12.2503C13.8348 12.8238 12.8496 12.4158 12.8496 11.6045C12.8496 10.7934 13.8348 10.3853 14.4083 10.9588ZM5.60951 10.9588C5.96606 11.3154 5.96606 11.8937 5.60951 12.2503C5.03598 12.8238 4.05078 12.4158 4.05078 11.6045C4.05078 10.7934 5.03598 10.3853 5.60951 10.9588Z"/>
</symbol><symbol id="icon-floppy-prohibit" viewBox="0 0 17 17">
<g clip-path="url(#clip0_1_10784)">
<path d="M13.6354 0H11.0422H10.625H4.25H3.83279H1.23958C0.559583 0 0 0.559583 0 1.23958V13.6354C0 14.3154 0.559583 14.875 1.23958 14.875H6.91333C6.56625 14.1171 6.375 13.2812 6.375 12.3958C6.375 9.07375 9.07375 6.375 12.3958 6.375C13.2812 6.375 14.1171 6.56625 14.875 6.91333V1.23958C14.875 0.559583 14.3154 0 13.6354 0ZM10.3062 6.3325C10.2354 6.36083 10.1646 6.375 10.0938 6.375C9.95917 6.375 9.83167 6.32542 9.7325 6.23333L7.4375 4.09417L5.1425 6.23333C4.98667 6.375 4.76 6.4175 4.56875 6.3325C4.3775 6.2475 4.25 6.05625 4.25 5.84375V1.0625H10.625V5.84375C10.625 6.05625 10.4975 6.2475 10.3062 6.3325Z"/>
<path d="M16.0011 9.54121C15.7815 9.26496 15.5265 9.00996 15.2503 8.79038C14.4711 8.16704 13.4723 7.79163 12.3957 7.79163C9.85984 7.79163 7.7915 9.85996 7.7915 12.3958C7.7915 13.4725 8.16692 14.4712 8.79025 15.2504C9.00984 15.5266 9.26484 15.7816 9.54109 16.0012C10.3203 16.6245 11.319 17 12.3957 17C14.9315 17 16.9998 14.9316 16.9998 12.3958C16.9998 11.3191 16.6244 10.3204 16.0011 9.54121ZM12.3957 15.9375C11.6094 15.9375 10.8869 15.6825 10.299 15.2433C10.0086 15.0379 9.75359 14.7829 9.54817 14.4925C9.109 13.9045 8.854 13.182 8.854 12.3958C8.854 10.4408 10.4407 8.85413 12.3957 8.85413C13.1819 8.85413 13.9044 9.10913 14.4923 9.54829C14.7828 9.75371 15.0378 10.0087 15.2432 10.2991C15.6823 10.887 15.9373 11.6095 15.9373 12.3958C15.9373 14.3508 14.3507 15.9375 12.3957 15.9375Z"/>
<path d="M16.0014 9.54124L15.2434 10.2992L10.2993 15.2433L9.54136 16.0012C9.26511 15.7817 9.01011 15.5267 8.79053 15.2504L9.54844 14.4925L14.4926 9.54832L15.2505 8.79041C15.5268 9.00999 15.7818 9.26499 16.0014 9.54124Z"/>
</g>

</symbol><symbol id="icon-gear" viewBox="0 0 17 17">
<path d="M8.50024 5.8437C7.97488 5.8437 7.46132 5.99948 7.02451 6.29135C6.58769 6.58323 6.24723 6.99808 6.04618 7.48344C5.84514 7.96881 5.79254 8.50289 5.89503 9.01815C5.99752 9.53342 6.2505 10.0067 6.62199 10.3782C6.99347 10.7497 7.46677 11.0027 7.98203 11.1052C8.49729 11.2076 9.03138 11.155 9.51674 10.954C10.0021 10.753 10.417 10.4125 10.7088 9.97568C11.0007 9.53886 11.1565 9.0253 11.1565 8.49994C11.1544 7.7961 10.8739 7.12166 10.3762 6.62396C9.87852 6.12627 9.20409 5.84575 8.50024 5.8437ZM14.2335 8.49994C14.2321 8.74786 14.2144 8.99578 14.1797 9.24157L15.7961 10.5074C15.8665 10.5655 15.914 10.6468 15.9299 10.7368C15.9459 10.8267 15.9293 10.9194 15.8832 10.9982L14.3539 13.6382C14.3074 13.7163 14.2348 13.7756 14.1489 13.8055C14.063 13.8354 13.9693 13.8341 13.8843 13.8018L11.9838 13.0382C11.588 13.3432 11.1547 13.5962 10.6947 13.7912L10.4106 15.8099C10.3944 15.9002 10.3475 15.982 10.2777 16.0416C10.208 16.1011 10.1198 16.1347 10.0281 16.1365H6.97024C6.88004 16.1349 6.79307 16.1026 6.72357 16.0451C6.65408 15.9876 6.60618 15.9082 6.58774 15.8199L6.30441 13.8018C5.84313 13.6092 5.40959 13.356 5.01524 13.0489L3.11407 13.8124C3.02914 13.845 2.93546 13.8464 2.84955 13.8166C2.76363 13.7868 2.691 13.7276 2.64445 13.6495L1.11516 11.0089C1.06922 10.9301 1.05276 10.8376 1.06872 10.7478C1.08467 10.658 1.13201 10.5768 1.20228 10.5187L2.81941 9.2529C2.78488 9.00337 2.76666 8.75185 2.76486 8.49994C2.76628 8.25203 2.78399 8.00411 2.81941 7.75832L1.20228 6.49253C1.13183 6.43438 1.08438 6.35306 1.06842 6.26312C1.05246 6.17318 1.06902 6.08049 1.11516 6.00165L2.64516 3.36169C2.69167 3.28371 2.76415 3.22459 2.84988 3.19467C2.93561 3.16475 3.02914 3.16596 3.11407 3.19807L5.01524 3.96165C5.41111 3.65675 5.84435 3.40371 6.30441 3.2087L6.58774 1.18994C6.60393 1.09969 6.65089 1.01784 6.72062 0.958307C6.79036 0.898773 6.87857 0.865237 6.97024 0.863403H10.0288C10.1189 0.86512 10.2057 0.89728 10.2752 0.954645C10.3446 1.01201 10.3926 1.0912 10.4113 1.17932L10.6947 3.19807C11.1572 3.39003 11.5914 3.64432 11.9859 3.95103L13.885 3.18744C13.9699 3.15508 14.0636 3.15367 14.1494 3.18346C14.2353 3.21326 14.308 3.27235 14.3546 3.35036L15.8846 5.99103C15.9307 6.06995 15.9471 6.16268 15.931 6.25263C15.9149 6.34257 15.8673 6.42385 15.7968 6.4819L14.1804 7.74769C14.2144 7.99703 14.2321 8.24849 14.2335 8.49994Z"/>
</symbol><symbol id="icon-home-delivery" viewBox="0 0 17 17">
<path d="M8.50664 8.1906H1.32776C1.14706 8.1906 1 8.04217 1 7.85937V3.02634C1 2.94541 1.01367 2.85359 1.08208 2.80194L4.67105 0.0909824C4.74326 0.0364327 4.82597 0 4.91728 0C5.00847 0 5.09102 0.0365122 5.16311 0.0909824L8.75263 2.80194C8.82088 2.85347 8.83436 2.94572 8.83436 3.02634V7.85941C8.83436 8.04225 8.68745 8.1906 8.50664 8.1906ZM8.64545 12.6997H6.22594V11.3656C6.39222 11.4144 6.57916 11.3726 6.71039 11.2399C6.90212 11.0457 6.90247 10.7314 6.71039 10.5375L6.08179 9.9017C5.98981 9.8085 5.86483 9.75629 5.73486 9.75629C5.60434 9.75629 5.47955 9.8085 5.38754 9.9017L4.7589 10.5375C4.56661 10.7314 4.56701 11.0457 4.7589 11.2399C4.88997 11.3727 5.07707 11.4144 5.24374 11.3656V13.1963C5.24374 13.4705 5.46329 13.6929 5.73482 13.6929H8.64541C8.91639 13.6929 9.1365 13.4705 9.1365 13.1963C9.13654 12.9221 8.91643 12.6997 8.64545 12.6997ZM16 9.86555V16.7359C16 16.8797 15.8806 17 15.7384 17H11.5925C11.4504 17 11.3308 16.8797 11.3308 16.7359V9.86555C11.3308 9.72165 11.4503 9.60126 11.5925 9.60126H15.7384C15.8807 9.60122 16 9.72165 16 9.86555ZM13.2446 14.8602C13.2446 14.6174 13.0502 14.4208 12.8101 14.4208H12.7087C12.4684 14.4208 12.2741 14.6172 12.2741 14.8602C12.2741 15.1029 12.4686 15.2996 12.7087 15.2996H12.8101C13.05 15.2996 13.2446 15.1028 13.2446 14.8602ZM13.2446 12.9249C13.2446 12.6823 13.05 12.4855 12.8101 12.4855H12.7087C12.4686 12.4855 12.2741 12.6822 12.2741 12.9249C12.2741 13.1679 12.4684 13.3643 12.7087 13.3643H12.8101C13.0502 13.3643 13.2446 13.1677 13.2446 12.9249ZM13.2446 10.9902C13.2446 10.7475 13.0501 10.5507 12.8101 10.5507H12.7087C12.4685 10.5507 12.2741 10.7473 12.2741 10.9902C12.2741 11.2329 12.4686 11.4296 12.7087 11.4296H12.8101C13.05 11.4295 13.2446 11.2327 13.2446 10.9902ZM15.0568 14.8602C15.0568 14.6175 14.8623 14.4208 14.6223 14.4208H14.5209C14.2808 14.4208 14.0863 14.6174 14.0863 14.8602C14.0863 15.1028 14.281 15.2996 14.5209 15.2996H14.6223C14.862 15.2996 15.0568 15.1027 15.0568 14.8602ZM15.0568 12.9249C15.0568 12.6825 14.862 12.4855 14.6223 12.4855H14.5209C14.281 12.4855 14.0863 12.6824 14.0863 12.9249C14.0863 13.1677 14.2808 13.3643 14.5209 13.3643H14.6223C14.8622 13.3643 15.0568 13.1676 15.0568 12.9249ZM15.0568 10.9902C15.0568 10.7476 14.8621 10.5507 14.6223 10.5507H14.5209C14.2809 10.5507 14.0863 10.7475 14.0863 10.9902C14.0863 11.2327 14.281 11.4296 14.5209 11.4296H14.6223C14.862 11.4295 15.0568 11.2326 15.0568 10.9902ZM13.5224 6.12745C13.3558 6.07842 13.1689 6.12037 13.0376 6.25307C12.8459 6.44696 12.8459 6.76142 13.0376 6.95546L13.6662 7.59111C13.7582 7.68432 13.8832 7.73668 14.0135 7.73668C14.1437 7.73668 14.2687 7.68432 14.3608 7.59111L14.9896 6.95546C15.1812 6.76142 15.1812 6.44711 14.9896 6.25307C14.8582 6.12033 14.6709 6.07842 14.5046 6.12745V4.29671C14.5046 4.02234 14.2847 3.80012 14.0135 3.80012H11.1026C10.8314 3.80012 10.6115 4.02234 10.6115 4.29671C10.6115 4.57093 10.8314 4.7933 11.1026 4.7933H13.5224V6.12745Z"/>
</symbol><symbol id="icon-lightning-round" viewBox="0 0 20 20">
<rect width="20" height="20" rx="10" fill="#F05D23"/>
<path d="M8.32696 16.5636C8.25362 16.5637 8.18114 16.5477 8.11464 16.5168C8.04814 16.4858 7.98923 16.4407 7.94207 16.3845C7.89491 16.3284 7.86064 16.2625 7.84167 16.1917C7.8227 16.1208 7.81951 16.0467 7.8323 15.9744V15.9715L8.59996 11.7511H5.62496C5.54233 11.7511 5.46137 11.7277 5.39148 11.6837C5.32158 11.6396 5.2656 11.5766 5.23001 11.502C5.19443 11.4274 5.1807 11.3443 5.19041 11.2622C5.20012 11.1801 5.23287 11.1025 5.28488 11.0383L11.2775 3.62995C11.3457 3.54333 11.4403 3.48144 11.547 3.45371C11.6537 3.42599 11.7666 3.43398 11.8683 3.47644C11.97 3.5189 12.055 3.59351 12.1104 3.68886C12.1657 3.78421 12.1883 3.89505 12.1746 4.00445C12.1746 4.01261 12.1723 4.02078 12.1711 4.02895L11.4 8.25111H14.375C14.4575 8.25118 14.5383 8.2746 14.6081 8.31866C14.6779 8.36272 14.7338 8.42562 14.7694 8.5001C14.8049 8.57458 14.8187 8.6576 14.8091 8.73958C14.7995 8.82155 14.7669 8.89913 14.715 8.96336L8.7213 16.3717C8.67425 16.4313 8.61435 16.4795 8.54607 16.5127C8.47779 16.546 8.4029 16.5634 8.32696 16.5636Z" fill="white"/>
</symbol><symbol id="icon-magnifier-question" viewBox="0 0 17 17">
<path d="M14.1161 2.92374L14.0957 2.90333C12.8682 1.6759 11.236 1 9.50005 1C7.76406 1 6.13189 1.6759 4.90424 2.90333C3.67634 4.131 3 5.76349 3 7.49982C3 9.23627 3.67634 10.8688 4.90436 12.0966L4.92615 12.1184C6.15153 13.3321 7.77508 14 9.49957 14H9.5143C11.2448 13.9962 12.8719 13.3201 14.0957 12.0966C15.3198 10.8726 15.996 9.24528 16 7.51435C16.0038 5.78377 15.3353 4.15393 14.1161 2.92374ZM9.50173 10.5766C9.24774 10.5766 9.04178 10.3701 9.04178 10.1155C9.04178 9.86091 9.24774 9.65442 9.50173 9.65442C9.75571 9.65442 9.96156 9.86091 9.96156 10.1155C9.96156 10.3701 9.75571 10.5766 9.50173 10.5766ZM10.3518 7.86502C9.97605 8.15783 9.95677 8.35964 9.94875 8.78787C9.94408 9.03939 9.73919 9.24024 9.48915 9.24024C9.48628 9.24024 9.48341 9.24024 9.48041 9.24024C9.22655 9.23543 9.02453 9.02522 9.02932 8.77071C9.03758 8.32387 9.04896 7.71195 9.78888 7.13594C9.78984 7.13522 9.79068 7.1345 9.79164 7.13378C10.3245 6.72523 10.3289 6.2419 10.3276 6.18763C10.3245 6.1599 10.3246 6.15402 10.3273 6.12569C10.3278 6.09519 10.3272 5.82219 10.1515 5.63239C10.0208 5.4912 9.80745 5.41389 9.5173 5.40248C9.14488 5.40368 8.88766 5.49096 8.75258 5.6618C8.56781 5.89542 8.60673 6.2868 8.63739 6.4179C8.73163 6.7394 8.56446 6.94733 8.31419 7.00208C8.06379 7.05682 7.811 6.96402 7.7443 6.63772C7.72155 6.54611 7.53606 5.72483 8.02571 5.09683C8.34448 4.68781 8.8491 4.48047 9.52532 4.48047C9.53071 4.48047 9.53598 4.48059 9.54124 4.48071C10.0974 4.50016 10.5338 4.68132 10.8386 5.01939C11.2395 5.46419 11.2509 6.0138 11.2465 6.15546C11.2511 6.35067 11.2178 7.20017 10.3518 7.86502Z"/>
<path d="M4.23612 12.729C4.00945 12.502 3.80592 12.258 3.62678 12L1.28353 14.3463C1.1007 14.5294 1 14.7728 1 15.0317C1 15.2906 1.1007 15.5341 1.28353 15.7172C1.4719 15.9057 1.71917 16 1.96654 16C2.21381 16 2.46128 15.9057 2.64955 15.7172L5 13.3638C4.73572 13.1832 4.48602 12.9771 4.25381 12.7468L4.23612 12.729Z"/>
</symbol><symbol id="icon-magnifier" viewBox="0 0 20 20">
<path d="M17.8392 16.4608L14.1642 12.7858C15.0491 11.6076 15.5267 10.1735 15.525 8.7C15.525 4.93667 12.4633 1.875 8.7 1.875C4.93667 1.875 1.875 4.93667 1.875 8.7C1.875 12.4633 4.93667 15.525 8.7 15.525C10.1732 15.5266 11.607 15.0489 12.785 14.1642L16.46 17.8392C16.6453 18.0092 16.8891 18.1012 17.1406 18.0958C17.392 18.0905 17.6317 17.9882 17.8096 17.8104C17.9875 17.6326 18.0899 17.393 18.0954 17.1416C18.1009 16.8901 18.0091 16.6462 17.8392 16.4608ZM3.825 8.7C3.825 7.73582 4.11091 6.79328 4.64659 5.9916C5.18226 5.18991 5.94363 4.56506 6.83442 4.19609C7.72521 3.82711 8.70541 3.73057 9.65107 3.91867C10.5967 4.10677 11.4654 4.57107 12.1471 5.25285C12.8289 5.93464 13.2932 6.80328 13.4813 7.74893C13.6694 8.69459 13.5729 9.67479 13.2039 10.5656C12.8349 11.4564 12.2101 12.2177 11.4084 12.7534C10.6067 13.2891 9.66418 13.575 8.7 13.575C7.40754 13.5735 6.16846 13.0593 5.25456 12.1454C4.34065 11.2315 3.82654 9.99246 3.825 8.7Z" fill="#D3D9DE"/>
</symbol><symbol id="icon-notebook" viewBox="0 0 17 17">
<path d="M10.6452 7.57031H6.13182C5.98521 7.57031 5.86621 7.68931 5.86621 7.83592C5.86621 7.98253 5.98521 8.10153 6.13182 8.10153H10.6452C10.7919 8.10153 10.9108 7.98253 10.9108 7.83592C10.9108 7.68931 10.7919 7.57031 10.6452 7.57031Z"/>
<path d="M7.7297 8.89856H6.13182C5.98521 8.89856 5.86621 9.01756 5.86621 9.16417C5.86621 9.31078 5.98521 9.42978 6.13182 9.42978H7.7297C7.87644 9.42978 7.99531 9.31078 7.99531 9.16417C7.99531 9.01756 7.87644 8.89856 7.7297 8.89856Z"/>
<path d="M10.6453 8.89856H8.92528C8.77867 8.89856 8.65967 9.01756 8.65967 9.16417C8.65967 9.31078 8.77867 9.42978 8.92528 9.42978H10.6453C10.792 9.42978 10.9109 9.31078 10.9109 9.16417C10.9109 9.01756 10.7922 8.89856 10.6453 8.89856Z"/>
<path d="M15.4063 1.5753C15.4063 0.705302 14.7009 0 13.8309 0H3.16919C2.29905 0 1.59375 0.705302 1.59375 1.5753V15.4247C1.59375 16.2947 2.29905 17 3.16919 17H13.831C14.701 17 15.4064 16.2947 15.4064 15.4247V1.5753H15.4063ZM4.66384 14.211H2.94261C2.68597 14.211 2.47721 14.0024 2.47721 13.7462C2.47721 13.4899 2.68597 13.2813 2.94261 13.2813H4.66384C4.92047 13.2813 5.12923 13.4899 5.12923 13.7462C5.12923 14.0024 4.92047 14.211 4.66384 14.211ZM4.66384 3.71881H2.94261C2.68597 3.71881 2.47721 3.51019 2.47721 3.25396C2.47721 2.99774 2.68597 2.78911 2.94261 2.78911H4.66384C4.92047 2.78911 5.12923 2.99774 5.12923 3.25396C5.12923 3.51019 4.92047 3.71881 4.66384 3.71881ZM11.8204 10.2266H5.17969V6.77353H11.8204V10.2266Z"/>
</symbol><symbol id="icon-package" viewBox="0 0 17 17">
<path d="M7.84711 8.7638V15.9997C7.80577 15.985 7.76698 15.9636 7.73194 15.9367L2.7305 12.8547C2.50642 12.7234 2.32066 12.5329 2.19265 12.3029C2.05944 12.0632 1.99299 11.7905 2.00059 11.5147V5.15369L7.84711 8.7638Z"/>
<path d="M14.9999 5.15369V11.5384C14.99 11.8014 14.9189 12.0581 14.7924 12.2872C14.6723 12.5225 14.4881 12.7168 14.2623 12.8468L9.26088 15.9288L9.15332 15.984V8.75591L11.6579 7.17946V9.36285C11.6579 9.54052 11.7267 9.71093 11.8491 9.83658C11.9716 9.96222 12.1378 10.0328 12.3109 10.0328C12.4841 10.0328 12.6503 9.96222 12.7727 9.83658C12.8952 9.71093 12.964 9.54052 12.964 9.36285V6.41486L14.9999 5.15369Z"/>
<path d="M11.0201 6.06015L8.50023 7.63661L2.61523 4.01075L2.69974 3.9556L5.05069 2.67078L11.0201 6.06015Z"/>
<path d="M14.3774 3.99513L12.2954 5.27206L6.42578 1.89844L7.70117 1.21268C7.93457 1.07376 8.19955 1.00037 8.46944 0.999878C8.73957 1.00562 9.00393 1.08155 9.23772 1.22057L14.2084 3.94784C14.2676 3.94975 14.3254 3.96595 14.3774 3.99513Z"/>
</symbol><symbol id="icon-play-indent-round" viewBox="0 0 20 20">
<path d="M18 10C18 5.58154 14.4176 2 10 2C7.87827 2 5.84344 2.84285 4.34315 4.34315C2.84285 5.84344 2 7.87827 2 10C2 14.4176 5.58154 18 10 18C14.4176 18 18 14.4176 18 10ZM8.30728 12.8513V7.14872C8.30733 7.03179 8.34068 6.91729 8.40345 6.81863C8.46622 6.71997 8.55579 6.64124 8.66169 6.59165C8.76758 6.54206 8.88541 6.52366 9.00139 6.53862C9.11736 6.55358 9.22667 6.60127 9.31651 6.6761L12.743 9.52656C12.8125 9.58431 12.8685 9.65667 12.9069 9.7385C12.9453 9.82032 12.9652 9.90961 12.9652 10C12.9652 10.0904 12.9453 10.1797 12.9069 10.2615C12.8685 10.3433 12.8125 10.4157 12.743 10.4734L9.31651 13.3239C9.22667 13.3987 9.11736 13.4464 9.00139 13.4614C8.88541 13.4763 8.76758 13.4579 8.66169 13.4084C8.55579 13.3588 8.46622 13.28 8.40345 13.1814C8.34068 13.0827 8.30733 12.9682 8.30728 12.8513Z" fill="#F39834"/>
</symbol><symbol id="icon-plus-round" viewBox="0 0 20 20">
<rect width="20" height="20" rx="10" fill="#21979E"/>
<path d="M12 16H8V12H4V8H8V4H12V8H16V12H12V16Z" fill="white"/>
</symbol><symbol id="icon-print" viewBox="0 0 17 17">
<path d="M13.5469 3.71875H3.51971C3.00891 3.71875 2.51904 3.92166 2.15785 4.28285C1.79666 4.64404 1.59375 5.13391 1.59375 5.64471V10.8906C1.59375 11.3838 1.78965 11.8567 2.13835 12.2054C2.48705 12.5541 2.95999 12.75 3.45312 12.75H3.71875V14.0675C3.71875 14.4226 3.8598 14.7631 4.11086 15.0141C4.36193 15.2652 4.70244 15.4062 5.0575 15.4062H11.9425C12.2976 15.4062 12.6381 15.2652 12.8891 15.0141C13.1402 14.7631 13.2812 14.4226 13.2812 14.0675V12.75H13.5469C14.04 12.75 14.513 12.5541 14.8617 12.2054C15.2104 11.8567 15.4062 11.3838 15.4062 10.8906V5.57812C15.4062 5.08499 15.2104 4.61205 14.8617 4.26335C14.513 3.91465 14.04 3.71875 13.5469 3.71875ZM12.2188 14.0675C12.2184 14.1407 12.1892 14.2107 12.1374 14.2624C12.0857 14.3142 12.0157 14.3434 11.9425 14.3438H5.0575C4.98435 14.3434 4.9143 14.3142 4.86257 14.2624C4.81085 14.2107 4.78162 14.1407 4.78125 14.0675V8.77625C4.78162 8.7031 4.81085 8.63305 4.86257 8.58132C4.9143 8.5296 4.98435 8.50037 5.0575 8.5H11.9425C12.0157 8.50037 12.0857 8.5296 12.1374 8.58132C12.1892 8.63305 12.2184 8.7031 12.2188 8.77625V14.0675ZM13.0822 6.90342C12.9764 6.91473 12.8694 6.90474 12.7675 6.87403C12.6656 6.84332 12.5709 6.79251 12.489 6.7246C12.407 6.65669 12.3395 6.57305 12.2904 6.47863C12.2413 6.38421 12.2117 6.28091 12.2031 6.17483C12.1946 6.06875 12.2074 5.96204 12.2408 5.861C12.2742 5.75996 12.3275 5.66662 12.3976 5.58651C12.4676 5.5064 12.553 5.44113 12.6487 5.39456C12.7444 5.34798 12.8484 5.32104 12.9547 5.31533C13.1621 5.30419 13.3657 5.37446 13.522 5.51118C13.6784 5.6479 13.7752 5.84026 13.7918 6.04729C13.8084 6.25432 13.7435 6.45966 13.611 6.61957C13.4785 6.77948 13.2887 6.88133 13.0822 6.90342Z"/>
<path d="M11.4218 1.59375H5.57804C5.13114 1.5945 4.6994 1.75588 4.36158 2.04845C4.02375 2.34102 3.80236 2.74529 3.73779 3.1875H13.262C13.1975 2.74529 12.9761 2.34102 12.6383 2.04845C12.3004 1.75588 11.8687 1.5945 11.4218 1.59375Z"/>
</symbol><symbol id="icon-snowflake" viewBox="0 0 17 17">
<path d="M14.8552 9.42818L13.3259 9.79441C13.1335 9.84363 12.9495 9.92136 12.7798 10.025L11.536 9.25757C11.6703 8.76163 11.6703 8.23859 11.536 7.74265L12.7798 6.97518C12.9495 7.07886 13.1335 7.15659 13.3259 7.20581C13.3259 7.20581 15.0001 7.59766 15.0722 7.59766C15.5874 7.59272 16.0011 7.169 15.9962 6.65126C15.9921 6.22363 15.7006 5.85296 15.2874 5.75023L13.7556 5.38212C13.7208 5.37361 13.6911 5.35096 13.6735 5.31963C13.6547 5.28947 13.6489 5.25293 13.6574 5.21839L14.0218 3.68096C14.1709 3.18537 13.892 2.66215 13.3988 2.51234C12.9056 2.36254 12.3849 2.64283 12.2359 3.13841C12.2248 3.17516 12.216 3.21253 12.2095 3.25036L11.8451 4.78779C11.8023 4.98047 11.7883 5.17844 11.8034 5.37526L10.5595 6.14584C10.2398 5.86914 9.86708 5.66111 9.46434 5.53463V4.06281C9.64085 3.97293 9.80273 3.8566 9.94446 3.71782L11.0571 2.60037C11.4214 2.23414 11.4212 1.64052 11.0568 1.2745C10.6923 0.908453 10.1016 0.9086 9.73735 1.27483L8.62534 2.39287C8.57387 2.44465 8.4904 2.44471 8.43887 2.39299L8.43876 2.39287L7.32551 1.2748C6.96107 0.90857 6.37022 0.90857 6.00578 1.2748C5.64134 1.64103 5.64134 2.23476 6.00578 2.60099L7.11841 3.71844C7.26017 3.85698 7.42207 3.97311 7.59853 4.06281V5.53463C7.19667 5.66226 6.82502 5.87112 6.50642 6.14834L5.25944 5.37526C5.27502 5.177 5.26096 4.97749 5.21778 4.78341L4.85334 3.25036C4.74191 2.74489 4.24378 2.42588 3.74077 2.53785C3.23775 2.64983 2.9203 3.15039 3.03173 3.65586C3.03387 3.66551 3.03615 3.67513 3.03858 3.6847L3.40302 5.22213C3.41151 5.2567 3.40569 5.29324 3.38686 5.32336C3.3693 5.35473 3.33955 5.37735 3.30477 5.38585L1.77544 5.7502C1.27427 5.87044 0.964982 6.37615 1.08464 6.87974C1.18477 7.30125 1.55937 7.59887 1.9906 7.59952C2.06274 7.59952 3.73696 7.20766 3.73696 7.20766C3.92934 7.15844 4.11338 7.08071 4.28301 6.97703L5.52686 7.7445C5.39254 8.24044 5.39254 8.76348 5.52686 9.25942L4.28301 10.0269C4.11338 9.92321 3.92934 9.84548 3.73696 9.79626L2.20763 9.43003C1.71521 9.27769 1.19314 9.55537 1.04154 10.0502C0.889944 10.545 1.16626 11.0696 1.65868 11.222C1.69694 11.2338 1.73594 11.2432 1.77538 11.25L3.30471 11.6162C3.33949 11.6247 3.36924 11.6473 3.3868 11.6787C3.40563 11.7088 3.41146 11.7454 3.40297 11.7799L3.03855 13.3174C2.91834 13.821 3.22713 14.3271 3.72827 14.4479C4.22941 14.5687 4.73312 14.2585 4.85334 13.7549L5.21778 12.2174C5.26102 12.0231 5.27508 11.8234 5.25944 11.625L6.50642 10.8544C6.82502 11.1316 7.19667 11.3405 7.59853 11.4681V12.9374C7.42213 13.0278 7.26028 13.1443 7.11841 13.283L6.00578 14.3992C5.64134 14.7654 5.64134 15.3592 6.00578 15.7254C6.37022 16.0916 6.96107 16.0916 7.32551 15.7254L8.43753 14.6073C8.489 14.5555 8.57247 14.5555 8.62399 14.6072L8.62411 14.6073L9.73612 15.7254C10.1006 16.0916 10.6914 16.0916 11.0559 15.7254C11.4203 15.3592 11.4203 14.7654 11.0559 14.3992L9.94323 13.2817C9.80165 13.1435 9.64021 13.0275 9.46434 12.9374V11.4656C9.8662 11.3379 10.2378 11.1291 10.5564 10.8518L11.8003 11.6224C11.7847 11.8207 11.7988 12.0202 11.842 12.2143L12.2064 13.7517C12.3266 14.2553 12.8303 14.5656 13.3315 14.4448C13.8326 14.324 14.1414 13.8178 14.0212 13.3142L13.6567 11.7768C13.6483 11.7422 13.6541 11.7057 13.6729 11.6756C13.6905 11.6442 13.7202 11.6216 13.755 11.6131L15.2843 11.2468C15.7855 11.126 16.0943 10.6199 15.974 10.1163C15.8538 9.61268 15.3501 9.30238 14.849 9.42318L14.8552 9.42818ZM8.53142 9.75004C7.84446 9.75004 7.28757 9.19043 7.28757 8.50011C7.28757 7.80978 7.84446 7.25018 8.53142 7.25018C9.21838 7.25018 9.77527 7.80978 9.77527 8.50011C9.77527 9.19043 9.21838 9.75004 8.53142 9.75004Z"/>
</symbol><symbol id="icon-star-spiky" viewBox="0 0 10 10"><g fill="none">
<path d="M0.0819876 4.07811C-0.0774003 3.92354 0.00917949 3.64411 0.224765 3.6173L3.27951 3.23734C3.36737 3.22642 3.44369 3.16856 3.48075 3.08431L4.7692 0.155066C4.86013 -0.0516621 5.14038 -0.0517018 5.23131 0.155026L6.51976 3.08424C6.55681 3.1685 6.63264 3.22651 6.7205 3.23744L9.77541 3.6173C9.991 3.64411 10.0773 3.92362 9.91794 4.07819L7.65975 6.26853C7.59479 6.33152 7.56587 6.42529 7.58311 6.5163L8.18243 9.68026C8.22474 9.90355 7.99812 10.0766 7.80869 9.96537L5.12449 8.38935C5.04728 8.34403 4.95348 8.34424 4.87628 8.38956L2.1918 9.96496C2.00236 10.0762 1.77533 9.90354 1.81764 9.68025L2.41706 6.51649C2.4343 6.42549 2.40545 6.3315 2.34049 6.26851L0.0819876 4.07811Z" fill="#FFCF23"/>
</g></symbol><symbol id="icon-star" viewBox="0 0 20 19">
<path d="M9.07776 0.821956C9.44427 0.0776272 10.5055 0.0776253 10.872 0.821954L12.9679 5.07842C13.1134 5.37388 13.3951 5.57876 13.721 5.62623L18.4113 6.30933C19.2308 6.42869 19.5584 7.43544 18.966 8.01418L15.5691 11.3329C15.3341 11.5625 15.2269 11.893 15.2823 12.2168L16.0838 16.9006C16.2236 17.7178 15.3654 18.3404 14.6319 17.9539L10.4411 15.7456C10.1493 15.5919 9.8005 15.5919 9.50873 15.7456L5.31787 17.9539C4.58437 18.3405 3.72618 17.7178 3.86602 16.9006L4.66751 12.2168C4.72294 11.893 4.61571 11.5625 4.38067 11.3329L0.983809 8.01418C0.391438 7.43544 0.719006 6.42869 1.53852 6.30933L6.22885 5.62623C6.55475 5.57876 6.83638 5.37388 6.98187 5.07842L9.07776 0.821956Z"/>
</symbol><symbol id="icon-stopwatch-round" viewBox="0 0 20 20">
<rect width="20" height="20" rx="10" fill="#8074C9"/>
<path d="M10 10.875C10.116 10.875 10.2273 10.8289 10.3094 10.7469C10.3914 10.6648 10.4375 10.5535 10.4375 10.4375C10.4375 10.3215 10.3914 10.2102 10.3094 10.1281C10.2273 10.0461 10.116 10 10 10C9.88397 10 9.77269 10.0461 9.69064 10.1281C9.60859 10.2102 9.5625 10.3215 9.5625 10.4375C9.5625 10.5535 9.60859 10.6648 9.69064 10.7469C9.77269 10.8289 9.88397 10.875 10 10.875Z" fill="white"/>
<path d="M10.6563 5.22833V4.96875C10.6563 4.7947 10.5871 4.62778 10.464 4.50471C10.341 4.38164 10.1741 4.3125 10 4.3125C9.82595 4.3125 9.65903 4.38164 9.53596 4.50471C9.41289 4.62778 9.34375 4.7947 9.34375 4.96875V5.22833C8.51496 5.33232 7.7232 5.63358 7.03492 6.10683L6.74617 5.81633C6.62287 5.69303 6.45563 5.62376 6.28125 5.62376C6.10687 5.62376 5.93964 5.69303 5.81634 5.81633C5.69303 5.93964 5.62376 6.10687 5.62376 6.28125C5.62376 6.45563 5.69303 6.62286 5.81634 6.74617L6.05142 6.98125C5.21152 7.93661 4.74882 9.16544 4.75 10.4375C4.75 13.3326 7.10492 15.6875 10 15.6875C12.8951 15.6875 15.25 13.3326 15.25 10.4375C15.25 7.76467 13.2422 5.55208 10.6563 5.22833ZM10 11.75C9.69048 11.7499 9.39096 11.6404 9.15436 11.4408C8.91775 11.2413 8.75928 10.9645 8.70693 10.6595C8.65459 10.3544 8.71174 10.0407 8.8683 9.77365C9.02485 9.50664 9.27073 9.30355 9.5625 9.20025V7.15625C9.5625 7.04022 9.6086 6.92894 9.69064 6.84689C9.77269 6.76484 9.88397 6.71875 10 6.71875C10.116 6.71875 10.2273 6.76484 10.3094 6.84689C10.3914 6.92894 10.4375 7.04022 10.4375 7.15625V9.20025C10.7293 9.30355 10.9752 9.50664 11.1317 9.77365C11.2883 10.0407 11.3454 10.3544 11.2931 10.6595C11.2407 10.9645 11.0823 11.2413 10.8456 11.4408C10.609 11.6404 10.3095 11.7499 10 11.75Z" fill="white"/>
</symbol><symbol id="icon-timer-round" viewBox="0 0 20 20">
<rect width="20" height="20" rx="10" fill="#FF9000"/>
<path d="M10 4C8.4087 4 6.88258 4.63214 5.75736 5.75736C4.63214 6.88258 4 8.4087 4 10C4 11.5913 4.63214 13.1174 5.75736 14.2426C6.88258 15.3679 8.4087 16 10 16C11.5913 16 13.1174 15.3679 14.2426 14.2426C15.3679 13.1174 16 11.5913 16 10C16 8.4087 15.3679 6.88258 14.2426 5.75736C13.1174 4.63214 11.5913 4 10 4ZM10 15.0769C7.20185 15.0769 4.92308 12.8 4.92308 10C4.92069 9.31718 5.0572 8.64102 5.32433 8.01262C5.59145 7.38421 5.9836 6.81671 6.47692 6.34462L10.6634 9.33662L10.1157 10.2018L6.50954 7.57723C6.13415 8.24 5.73969 8.904 5.73969 10C5.741 11.1295 6.19027 12.2124 6.98895 13.0111C7.78763 13.8097 8.8705 14.259 10 14.2603C11.1295 14.259 12.2124 13.8097 13.0111 13.0111C13.8097 12.2124 14.259 11.1295 14.2603 10C14.2592 8.94113 13.8641 7.92056 13.1521 7.13686C12.44 6.35316 11.4619 5.86237 10.408 5.76V7.34585H9.592V4.92C9.71446 4.92185 9.84985 4.92308 10 4.92308C12.8 4.92308 15.0769 7.20185 15.0769 10C15.0769 12.7982 12.8 15.0769 10 15.0769Z" fill="white"/>
</symbol><symbol id="icon-truck-round" viewBox="0 0 20 20">
<rect width="20" height="20" rx="10" fill="#29B6FF"/>
<path d="M7.05917 12.9202C7.30375 14.3603 4.77917 14.3596 5.02417 12.9202H7.05917ZM14.3333 8.20389C14.2505 7.98665 14.0916 7.79766 13.8792 7.66362C13.6668 7.52958 13.4116 7.45726 13.1496 7.45688H11.6667V9.6422H14.8837L14.3333 8.20389ZM7.94083 12.9202C7.69625 14.3603 10.2208 14.3596 9.97583 12.9202H7.94083ZM9.58333 6H6.25C5.91848 6 5.60054 6.11512 5.36612 6.32003C5.1317 6.52495 5 6.80287 5 7.09266V12.1917H10.8333V7.09266C10.8333 6.80287 10.7016 6.52495 10.4672 6.32003C10.2328 6.11512 9.91485 6 9.58333 6ZM15 10.3706H11.6667V12.1917H15V10.3706ZM12.1075 12.9202C11.8629 14.3603 14.3875 14.3596 14.1425 12.9202H12.1075Z" fill="white"/>
</symbol><symbol id="icon-wallet" viewBox="0 0 17 17">
<path d="M3.17051 3.45239H13.7955C13.9195 3.45239 14.0434 3.46018 14.1667 3.47576C14.1249 3.18289 14.0242 2.90151 13.8708 2.64858C13.7173 2.39565 13.5143 2.17641 13.2738 2.00406C13.0334 1.83171 12.7605 1.70983 12.4717 1.64576C12.1829 1.58169 11.8841 1.57676 11.5933 1.63126L2.8553 3.12301H2.84538C2.29692 3.22797 1.80921 3.53833 1.48184 3.99072C1.97499 3.63992 2.56531 3.45173 3.17051 3.45239Z"/>
<path d="M13.7962 4.25H3.1712C2.60779 4.25056 2.06762 4.47463 1.66922 4.87302C1.27083 5.27141 1.04677 5.81159 1.0462 6.375V12.75C1.04677 13.3134 1.27083 13.8536 1.66922 14.252C2.06762 14.6504 2.60779 14.8744 3.1712 14.875H13.7962C14.3596 14.8744 14.8998 14.6504 15.2982 14.252C15.6966 13.8536 15.9206 13.3134 15.9212 12.75V6.375C15.9205 5.81165 15.6963 5.27158 15.298 4.87323C14.8996 4.47487 14.3596 4.25075 13.7962 4.25ZM12.2187 10.625C11.937 10.625 11.6667 10.5131 11.4674 10.3138C11.2682 10.1145 11.1562 9.84429 11.1562 9.5625C11.1562 9.28071 11.2682 9.01046 11.4674 8.8112C11.6667 8.61194 11.937 8.5 12.2187 8.5C12.5005 8.5 12.7708 8.61194 12.97 8.8112C13.1693 9.01046 13.2812 9.28071 13.2812 9.5625C13.2812 9.84429 13.1693 10.1145 12.97 10.3138C12.7708 10.5131 12.5005 10.625 12.2187 10.625Z"/>
<path d="M1.0625 8.61616V5.31249C1.0625 4.59283 1.46129 3.38654 2.84396 3.12516C4.01767 2.90558 5.18004 2.90558 5.18004 2.90558C5.18004 2.90558 5.94362 3.43683 5.3125 3.43683C4.68208 3.43683 4.69837 4.25 5.3125 4.25C5.92662 4.25 5.3125 5.03058 5.3125 5.03058L2.839 7.83558L1.0625 8.61687V8.61616Z"/>
</symbol><symbol id="icon-watch-round" viewBox="0 0 20 20">
<rect width="20" height="20" rx="10" fill="#B5A5FF"/>
<path d="M9.99998 4.0769C8.82851 4.0769 7.68334 4.42429 6.7093 5.07512C5.73525 5.72596 4.97608 6.65102 4.52777 7.73332C4.07947 8.81562 3.96217 10.0066 4.19072 11.1555C4.41926 12.3045 4.98338 13.3599 5.81174 14.1882C6.64009 15.0166 7.69548 15.5807 8.84445 15.8092C9.99341 16.0378 11.1843 15.9205 12.2666 15.4722C13.3489 15.0239 14.274 14.2647 14.9248 13.2907C15.5757 12.3166 15.9231 11.1715 15.9231 9.99998C15.9214 8.4296 15.2968 6.92403 14.1864 5.81361C13.0759 4.70318 11.5704 4.0786 9.99998 4.0769ZM10.4936 9.94026C10.4936 10.0239 10.4724 10.1062 10.4319 10.1795C10.3914 10.2527 10.333 10.3144 10.2621 10.3588L8.36669 11.5434C8.3116 11.5779 8.25026 11.6011 8.18619 11.6118C8.12211 11.6225 8.05656 11.6205 7.99326 11.6059C7.92996 11.5913 7.87017 11.5643 7.81728 11.5266C7.7644 11.4889 7.71947 11.4411 7.68505 11.386C7.65063 11.3309 7.6274 11.2695 7.61668 11.2055C7.60597 11.1414 7.60798 11.0758 7.6226 11.0125C7.63722 10.9492 7.66417 10.8895 7.7019 10.8366C7.73963 10.7837 7.78741 10.7388 7.8425 10.7043L9.50639 9.66681V7.53203C9.50639 7.40112 9.5584 7.27558 9.65096 7.18301C9.74353 7.09045 9.86907 7.03844 9.99998 7.03844C10.1309 7.03844 10.2564 7.09045 10.349 7.18301C10.4416 7.27558 10.4936 7.40112 10.4936 7.53203V9.94026Z" fill="white"/>
</symbol></svg>